<svg version="1.2" xmlns="http://www.w3.org/2000/svg" viewBox="0 0 1144 305" width="1144" height="305"><style></style><path fill-rule="evenodd" d="m155.4 7c80.2 0 146.5 65.4 146.5 145.6 0 80.2-66.3 146.4-146.5 146.4-80.2 0-146.4-66.2-146.4-146.4 0-80.2 66.2-145.6 146.4-145.6zm63.7 197.9c-38.4-23.6-85.5-29.7-141.2-16.6-10.5 1.7-8.8 19.2 3.4 17.4 50.6-11.3 94.2-6.1 128.2 14.9 9.6 5.2 19.2-9.6 9.6-15.7zm17.4-42.7c-45.3-27.9-110.7-35.8-163.9-20.1-13.9 3.5-8.7 26.2 6.1 21.8 46.2-14 106.4-7 145.6 17.4 12.2 7.9 24.4-11.3 12.2-19.1zm5.2-26.2c15.7 8.7 29.7-15.7 14.8-23.5-54-32.3-141.2-34.9-192.6-19.2-16.5 6.1-7 31.4 7.9 26.1 44.4-13.9 122.9-11.3 169.9 16.6z"/><path fill-rule="evenodd" d="m434.2 179.8c0-10.9-4.4-17.5-35-24.1-35-8.7-56.9-18.6-56.9-50.3 0-29.5 24.1-50.3 58-50.3 22.9 0 43.7 7.7 61.2 21.9 1.1 1.1 1.1 1.1 0 2.2l-15.3 21.9c0 0 0 1-1.1 1-1.1 0-2.2-1-2.2-1-15.3-11-28.4-16.4-42.6-16.4-14.3 0-25.2 6.5-25.2 17.4 0 11 5.5 16.5 37.2 24.1 38.3 9.8 54.7 24.1 54.7 50.3 0 30.6-23 51.4-60.2 51.4-26.2 0-50.3-8.7-70-26.2q-1.6-1.7 0-3.3l17.5-20.8c0 0 0-1.1 1.1-1.1 15.3 15.3 32.8 21.9 51.4 21.9 16.4 0 27.4-6.6 27.4-18.6zm115.9-84.2c29.5 0 59 21.9 59 65.6 0 43.7-29.5 66.7-59 66.7-16.4 0-28.4-5.5-39.4-17.5v50.3c0 1.1-1.1 2.2-2.2 2.2h-28.4c-1.1 0-2.2-1.1-2.2-2.2v-160.7c0-1.1 1.1-2.2 2.2-2.2h28.4c1.1 0 2.2 1.1 2.2 2.2v14.2c11-13.1 23-18.6 39.4-18.6zm26.2 65.6c0-21.9-13.1-37.2-32.8-37.2-19.7 0-33.9 15.3-33.9 37.2 0 21.9 14.2 38.3 33.9 38.3 19.7 0 32.8-16.4 32.8-38.3zm110.5-65.6c38.3 0 66.7 28.4 66.7 65.6 0 37.2-29.5 66.7-67.8 66.7-38.3 0-67.8-28.4-67.8-65.6 0-37.2 30.6-66.7 68.9-66.7zm0 103.9c20.8 0 35-15.3 35-37.2 0-21.9-15.3-38.3-36.1-38.3-20.8 0-35 15.3-35 37.2 0 21.9 15.3 38.3 36.1 38.3zm149.8-101.7c1.1 0 2.2 1.1 2.2 2.2v24c0 1.1-1.1 2.2-2.2 2.2h-32.8v59.1q0 13.1 13.1 13.1c5.5 0 12.1-1.1 17.5-4.4h2.2c1.1 0 1.1 1.1 1.1 2.2v23c0 1.1 0 2.1-1.1 2.1-7.6 4.4-17.5 6.6-27.3 6.6-25.2 0-37.2-13.1-37.2-38.3v-63.4h-14.2c-1.1 0-2.2-1.1-2.2-2.2v-24c0-1.1 1.1-2.2 2.2-2.2h14.2v-31.7c0-1.1 1.1-2.2 2.2-2.2h28.4c1.1 0 1.1 1.1 1.1 2.2v31.7zm108.3 0h48.1c1.1 0 2.2 1.1 2.2 2.2l32.8 85.3 30.6-85.3c0-1.1 0-2.2 1.1-2.2h29.5c1.1 0 2.2 0 2.2 1.1v2.2l-49.2 126.8c-9.8 26.3-21.9 36.1-42.7 36.1-10.9 0-19.6-2.2-29.5-7.7-1.1 0-1.1-2.1-1.1-3.2l9.9-20.8 1.1-1.1h1.1c5.4 3.3 10.9 4.4 16.4 4.4 6.5 0 10.9-2.2 15.3-12.1l-40.5-97.3h-27.3v97.3c0 1.1 0 2.2-1.1 2.2h-28.5c-1.1 0-2.1-1.1-2.1-2.2v-97.3h-14.3c-1.1 0-2.1-1.1-2.1-2.2v-24c0-1.1 1-2.2 2.1-2.2h14.3v-5.5c0-27.3 13.1-42.6 39.3-42.6 11 0 18.6 1 24.1 3.2 1.1 0 1.1 1.1 1.1 2.2v23c0 1.1-1.1 2.2-1.1 2.2h-1.1c-5.5-2.2-10.9-2.2-16.4-2.2-9.9 0-14.2 4.4-14.2 16.4zm-62.4 0c1.1 0 1.1 1.1 1.1 2.2v123.6c0 1 0 2.1-1.1 2.1h-28.4c-1.1 0-2.2-1.1-2.2-2.1v-123.6c0-1.1 1.1-2.2 2.2-2.2zm-14.2-55.8c10.9 0 19.7 8.8 19.7 19.7 0 10.9-8.8 20.8-19.7 20.8-11 0-20.8-9.9-20.8-20.8 0-10.9 9.8-19.7 20.8-19.7zm227.5 75.5c0-11 8.7-19.7 19.6-19.7 11 0 20.8 8.7 20.8 19.7 0 10.9-9.8 19.7-20.8 19.7-10.9 0-19.6-8.8-19.6-19.7zm2.1 0c0 9.8 7.7 17.5 17.5 17.5 9.9 0 18.6-7.7 18.6-17.5 0-9.9-8.7-17.5-18.6-17.5-9.8 0-17.5 7.6-17.5 17.5zm28.5 9.8h-5.5l-4.4-6.5h-4.3v6.5h-4.4v-20.8h8.7c4.4 0 8.8 2.2 8.8 6.6 0 3.3-2.2 5.5-5.5 6.6zm-14.2-17.5v6.5h4.4c2.2 0 4.3-1.1 4.3-3.3 0-2.1-2.1-3.2-4.3-3.2z"/></svg>