<svg version="1.2" xmlns="http://www.w3.org/2000/svg" viewBox="0 0 1563 200" width="1563" height="200">
    <title>New Project</title>
    <style>
        .s0 { fill: #000000 }
    </style>
    <path id="for" fill-rule="evenodd" class="s0"
          d="m695.8 142.8h-19.8l13.5-63.4h-15.6l3.4-15.7h15.6l2.8-12.3q2.6-12.7 9.9-18.9 7.3-6.1 19.4-6.1 3.4 0 6.5 0.5 3.2 0.5 4.5 0.9l-3.2 15.6q-2.8-0.8-5.4-0.8-4.8 0-8.2 2.8-3.4 2.5-4.7 9l-1.8 9.3h16.4l-3.1 14.1q4.8-6.2 11.5-10.2 10.4-6.5 23.8-6.5 10.6 0 18.5 4.5 8.1 4.6 12.5 12.7 4.6 7.9 4.6 18.3 0 14.1-5.7 25.3-5.5 11.2-15.9 17.5-10.4 6.3-24.2 6.3-10.5 0-18.6-4.2-8-4.4-12.5-12.3-4.4-8-4.4-18.3 0-14.3 5.7-25.7 1.6-3.1 3.5-5.8h-15.5zm56.6-12.6q7.4 0 13.1-4.9 5.9-4.9 8.8-12.5 3.1-7.8 3.1-16.2 0-9.6-4.7-14.6-4.6-5.2-12.7-5.2-7.5 0-13.3 4.9-5.7 4.8-8.8 12.6-2.9 7.8-2.9 16.2 0 9.4 4.6 14.6 4.5 5.1 12.8 5.1zm60.6 12.6h-19.6l16.9-79.1h19.6l-1.1 6q-1.2 4.7-2.8 8.2 11.5-16.8 25.8-16.8 2.7 0 5 0.6l-4.2 19.3q-2.9-0.6-5.8-0.6-20.5 0-25.8 24.8z"/>
    <g id="Folder 2">
        <path fill-rule="evenodd" class="s0"
              d="m1172.1 100.5c0-5.9-2.4-9.5-19-13-18.9-4.8-30.7-10.1-30.7-27.2 0-16 13-27.2 31.3-27.2 12.4 0 23.7 4.1 33.1 11.8 0.6 0.6 0.6 0.6 0 1.2l-8.2 11.8c0 0 0 0.6-0.6 0.6-0.6 0-1.2-0.6-1.2-0.6-8.3-5.9-15.4-8.8-23.1-8.8-7.7 0-13.6 3.5-13.6 9.4 0 5.9 3 8.9 20.1 13 20.7 5.3 29.6 13 29.6 27.2 0 16.6-12.4 27.8-32.5 27.8-14.2 0-27.2-4.7-37.9-14.2q-0.8-0.9 0-1.8l9.5-11.2c0 0 0-0.6 0.6-0.6 8.3 8.3 17.7 11.8 27.8 11.8 8.8 0 14.8-3.5 14.8-10zm62.6-45.5c16 0 31.9 11.8 31.9 35.4 0 23.7-15.9 36.1-31.9 36.1-8.9 0-15.4-3-21.3-9.5v27.2c0 0.6-0.6 1.2-1.2 1.2h-15.3c-0.6 0-1.2-0.6-1.2-1.2v-86.9c0-0.6 0.6-1.2 1.2-1.2h15.3c0.6 0 1.2 0.6 1.2 1.2v7.7c5.9-7.1 12.4-10 21.3-10zm14.2 35.4c0-11.8-7.1-20.1-17.7-20.1-10.7 0-18.4 8.3-18.4 20.1 0 11.9 7.7 20.7 18.4 20.7 10.6 0 17.7-8.8 17.7-20.7zm59.7-35.4c20.7 0 36.1 15.3 36.1 35.4 0 20.1-16 36.1-36.7 36.1-20.7 0-36.6-15.4-36.6-35.5 0-20.1 16.5-36 37.2-36zm0 56.1c11.2 0 18.9-8.3 18.9-20.1 0-11.8-8.3-20.7-19.5-20.7-11.2 0-18.9 8.3-18.9 20.1 0 11.9 8.3 20.7 19.5 20.7zm81-55c0.6 0 1.2 0.6 1.2 1.2v13c0 0.6-0.6 1.2-1.2 1.2h-17.8v31.9q0 7.1 7.1 7.1c3 0 6.5-0.6 9.5-2.3h1.2c0.6 0 0.6 0.6 0.6 1.1v12.5c0 0.6 0 1.1-0.6 1.1-4.2 2.4-9.5 3.6-14.8 3.6-13.6 0-20.1-7.1-20.1-20.7v-34.3h-7.7c-0.6 0-1.2-0.6-1.2-1.2v-13c0-0.6 0.6-1.2 1.2-1.2h7.7v-17.1c0-0.6 0.6-1.2 1.2-1.2h15.4c0.5 0 0.5 0.6 0.5 1.2v17.1zm58.6 0h26c0.6 0 1.2 0.6 1.2 1.2l17.7 46.1 16.5-46.1c0-0.6 0-1.2 0.6-1.2h16c0.6 0 1.2 0 1.2 0.6v1.2l-26.6 68.6c-5.3 14.2-11.8 19.5-23.1 19.5-5.9 0-10.6-1.2-15.9-4.1-0.6 0-0.6-1.2-0.6-1.8l5.3-11.2 0.6-0.6h0.6c2.9 1.7 5.9 2.3 8.8 2.3 3.6 0 6-1.2 8.3-6.5l-21.9-52.6h-14.7v52.6c0 0.6 0 1.2-0.6 1.2h-15.4c-0.6 0-1.2-0.6-1.2-1.2v-52.6h-7.7c-0.5 0-1.1-0.6-1.1-1.2v-13c0-0.6 0.6-1.2 1.1-1.2h7.7v-2.9c0-14.8 7.1-23.1 21.3-23.1 5.9 0 10.1 0.6 13 1.8 0.6 0 0.6 0.6 0.6 1.2v12.4c0 0.6-0.6 1.2-0.6 1.2h-0.6c-2.9-1.2-5.9-1.2-8.8-1.2-5.4 0-7.7 2.4-7.7 8.9zm-33.7 0c0.6 0 0.6 0.6 0.6 1.2v66.8c0 0.5 0 1.1-0.6 1.1h-15.4c-0.6 0-1.2-0.6-1.2-1.1v-66.8c0-0.6 0.6-1.2 1.2-1.2zm-7.7-30.2c5.9 0 10.7 4.8 10.7 10.7 0 5.9-4.8 11.2-10.7 11.2-5.9 0-11.2-5.3-11.2-11.2 0-5.9 5.3-10.7 11.2-10.7zm123 40.8c0-5.9 4.7-10.6 10.6-10.6 5.9 0 11.2 4.7 11.2 10.6 0 5.9-5.3 10.7-11.2 10.7-5.9 0-10.6-4.8-10.6-10.7zm1.2 0c0 5.3 4.1 9.5 9.4 9.5 5.3 0 10.1-4.2 10.1-9.5 0-5.3-4.8-9.4-10.1-9.4-5.3 0-9.4 4.1-9.4 9.4zm15.3 5.3h-2.9l-2.4-3.5h-2.4v3.5h-2.3v-11.2h4.7c2.4 0 4.7 1.2 4.7 3.5 0 1.8-1.1 3-2.9 3.6zm-7.7-9.5v3.6h2.4c1.1 0 2.3-0.6 2.3-1.8 0-1.2-1.2-1.8-2.3-1.8z"/>
        <path id="Layer 1" fill-rule="evenodd" class="s0"
              d="m1011 11c41.1 0 75 33.5 75 74.6 0 41-33.9 75-75 75-41.1 0-75-34-75-75 0-41.1 33.9-74.6 75-74.6zm32.6 101.4c-19.6-12.1-43.8-15.2-72.3-8.5-5.4 0.9-4.5 9.8 1.8 8.9 25.9-5.8 48.2-3.1 65.6 7.6 4.9 2.7 9.8-4.9 4.9-8zm8.9-21.9c-23.2-14.3-56.7-18.3-83.9-10.3-7.2 1.8-4.5 13.4 3.1 11.2 23.7-7.2 54.5-3.6 74.6 8.9 6.2 4 12.5-5.8 6.2-9.8zm2.7-13.4c8.1 4.4 15.2-8.1 7.6-12.1-27.7-16.5-72.3-17.8-98.7-9.8-8.5 3.1-3.5 16.1 4 13.4 22.8-7.1 63-5.8 87.1 8.5z"/>
    </g>
    <g id="Folder 1">
        <path id="rawc-on!" fill-rule="evenodd" class="s0"
              d="m37.7 141h-19.7v-78.9h19.7v5.9q0 4.4-0.6 8.3 7.9-16.8 23.1-16.8 2.3 0 4.2 0.5v17.3q2.7-5.8 8-10.1 9.5-7.7 24.5-7.7 17.7 0 25.8 9 8.1 8.9 8.1 26.1v46.4h-18.3v-3.2q0-3.3 0.8-7.6-3.4 6.3-9.9 10-6.3 3.7-16 3.7-7 0-13.3-2.9-6.3-3.1-10.2-8.6-3.7-5.6-3.7-13.1 0-12.4 8.1-18.3 8.3-5.9 22.7-7.9l11.3-1.4q4.7-0.7 6.6-2.3 2.1-1.8 2.1-4.9 0-4.3-3.5-7.2-3.4-3.1-9.4-3.1-6.8 0-11 3.5-4.2 3.6-4.9 9.9h-20.4q0.4-4.7 2-8.7-2.4-0.5-5-0.5-9.7 0-15.4 5.7-5.7 5.5-5.7 17.8zm55-11.7q8 0 13.5-5.3 5.5-5.4 5.5-13.6v-8.6q-2.5 2.3-9.4 3.4l-6.5 1.3q-7.4 1.3-11.5 4.2-4 2.8-4 7.8 0 5 3.5 7.9 3.6 2.9 8.9 2.9zm86.9 11.7h-25.4l-24.1-79h20.4l14.4 53.6q1.1 5.3 1.8 9.8 1.7-7.9 2.2-9.8l13-53.6h26.2l13.1 53.6q0.1 1.1 0.8 4.2 0.8 2.9 1.1 5.9 1.3-6.6 2.3-10.1l14.2-53.6h18.9l-23.2 79h-24.5l-13.7-53.9q-1.5-7.5-1.8-9.9-0.7 5-2.1 9.9zm114.5 2.9q-18.7 0-29.4-11.3-10.5-11.4-10.5-31.1 0-12.8 5.3-22.3 5.3-9.6 14.7-14.6 9.4-5.1 20.9-5.1 16.7 0 26.2 8.9 9.7 8.8 11.2 23.4h-20.1q-0.5-7.1-5-11.8-4.4-4.9-12.3-4.9-9.1 0-15.1 7.2-5.8 6.9-5.8 19.4 0 11.8 5.7 19.2 5.6 7.5 14.7 7.5 8.4 0 13.1-4.9 4.7-5 5.5-12.6h20.1q-2.1 15.5-12.2 24.3-9.8 8.7-27 8.7zm83.3-52.1v20.1h-41.7v-20.1zm43.8 52.1q-11.8 0-21-5-9.2-5.2-14.4-14.6-5-9.5-5-22.5 0-12.7 5.2-22.3 5.1-9.5 14.2-14.7 9.2-5.3 21-5.3 11.8 0 21.1 5.1 9.2 5.2 14.4 14.9 5.1 9.6 5.1 22.3 0 13-5.1 22.5-5.2 9.4-14.4 14.6-9.3 5-21.1 5zm0-15.5q9.4 0 14.9-7 5.7-7.1 5.7-19.6 0-12.6-5.7-19.5-5.6-7.2-14.9-7.2-9.2 0-14.8 7.2-5.5 6.9-5.5 19.5 0 12.5 5.5 19.6 5.5 7 14.8 7zm65.1 12.6h-19.8v-79h19.8v3.6q0 3.7-0.7 7.8 7.6-13.9 24.3-13.9 13.1 0 20.4 8.5 7.4 8.4 7.4 23.2v49.8h-19.7v-46.9q0-8.8-4.1-13.8-3.9-5.2-10.8-5.2-7.3 0-12.1 5.7-4.7 5.7-4.7 13.9zm81.8-79.2l-6 45.1h-9.2l-6-45.1v-34h21.2zm1.6 55.1v24.1h-24.4v-24.1z"/>
        <path id="®" fill-rule="evenodd" class="s0"
              d="m584.6 47.8q-2.7 0-5-1.4-2.3-1.5-3.7-3.9-1.4-2.4-1.4-5.1 0-2.8 1.4-5.2 1.4-2.4 3.7-3.8 2.4-1.4 5.2-1.4 2.8 0 5.1 1.4 2.4 1.4 3.7 3.8 1.4 2.4 1.4 5.2 0 2.8-1.4 5.2-1.3 2.4-3.7 3.8-2.4 1.4-5.3 1.4zm0.3-2.5q2 0 3.7-1.1 1.8-1 2.8-2.9 1-1.8 1-3.9 0-2.2-1-4-1-1.9-2.8-2.9-1.7-1.1-3.8-1.1-2.1 0-3.8 1.1-1.7 1-2.8 2.9-1 1.8-1 4 0 2.1 1 4 1 1.8 2.8 2.8 1.8 1.1 3.9 1.1zm-1.3-2.4h-2.6v-11.1h3.9q2.2 0 3.4 0.8 1.1 0.8 1.1 2.3 0 1-0.7 1.7-0.6 0.8-1.8 1.1 1.1 0.1 1.7 0.8 0.6 0.6 0.6 1.9v2.5h-2.7v-2.5q0-0.9-0.5-1.3-0.3-0.4-1.3-0.4h-1.1zm0-6.4h1.3q0.9 0 1.4-0.3 0.5-0.3 0.5-1.1 0-1.2-1.9-1.2h-1.3z"/>
    </g>
</svg>