<svg version="1.2" xmlns="http://www.w3.org/2000/svg" viewBox="0 0 1455 439" width="1455" height="439">
	<title>rawcon2</title>
	<style>
		.s0 { fill: #242424 } 
		.s1 { opacity: .2;fill: #242424 } 
		.s2 { opacity: .1;fill: #242424 } 
		.s3 { opacity: .2;fill: #232323 } 
		.s4 { opacity: .3;fill: #232323 } 
		.s5 { fill: #f4f4f4 } 
		.s6 { opacity: .3;fill: #242424 } 
		.s7 { fill: #575757 } 
		.s8 { fill: #404040 } 
		.s9 { fill: #2d2d2d } 
		.s10 { opacity: .4;fill: #242424 } 
		.s11 { fill: #f4f4f4;stroke: #242424;stroke-linecap: round;stroke-linejoin: round;stroke-width: 4 } 
	</style>
	<g id="Folder 2">
		<g id="! copy">
			<path id="Path 0" class="s0" d="m1324.3 16.3c-0.4 1.2-9.7 57.4-20.7 124.9l-19.9 122.6c20.5 23.1 22 25.9 19.4 27.5-1.8 1-4 1.9-4.9 1.9-0.9 0.1-5.7 3.8-10.7 8.3-4.9 4.5-10.9 12.1-13.4 16.9-2.8 5.7-4.4 13.2-4.5 21.8-0.1 9.2 1.3 16 4.6 22.9 2.6 5.4 12 17.7 20.8 27.3 10.5 11.5 20 19.5 27.8 23.4 9.3 4.7 14.9 6.1 25.5 6 7.5 0 16.9-1.3 20.8-2.9 3.9-1.6 10.4-5.8 14.5-9.3 4.1-3.5 9.8-11.2 12.6-17.2 3.5-7.6 5-14.9 5-24 0-8.5-1.5-16.2-4.2-21.9-2.3-4.8-14.1-18.3-26.2-30l-21.9-21.2 59.9-1.1c29.5-186 38.1-242 38.2-244.4 0.1-2.6-5.6-10.4-14-19.1l-14.3-14.7c-77 0-93.9 0.8-94.4 2.3z"/>
			<path id="Path 1" class="s1" d="m1268.3 348.9c0.1 2.4 0.4 3.1 0.7 1.5 0.3-1.6 0.2-3.5-0.2-4.4-0.4-0.8-0.7 0.5-0.5 2.9z"/>
			<path id="Path 2" class="s2" d="m1350 295.5c1.4 1.5 4 1.5 7.6 0.1 5.2-1.9 5.1-2.1-2.2-2.2-5.2-0.1-6.9 0.5-5.4 2.1z"/>
			<path id="Path 3" class="s3" d="m1343.4 421.4c2.4 0.5 6.9 0.5 9.9 0 3-0.6 1-1-4.4-1-5.4 0-7.9 0.4-5.5 1z"/>
			<path id="Path 4" class="s4" d="m1268.3 333.6c0.1 2.4 0.4 3.1 0.7 1.5 0.3-1.5 0.2-3.5-0.2-4.3-0.4-0.8-0.7 0.4-0.5 2.8z"/>
			<path id="Path 5" class="s5" d="m1330.4 25.5c-0.5 1.5-8.8 53-18.5 114.5-9.7 61.5-17.6 113.3-17.6 115.1 0 2.8 6 3.3 40.4 3.3h40.4c3.2-21.2 11.1-71.5 19.6-125.5 8.4-54 15.8-100.9 16.4-104.2l1.1-6c-70.8 0-81.1 0.7-81.8 2.8zm-26.2 275.1c-3.6 1.7-9.1 5.3-12.2 8.2-3.1 2.9-7.1 8.1-9 11.7-1.8 3.6-4 10-4.7 14.2-0.9 4.5-0.1 12.2 1.7 18.6 2.2 7.6 5.8 13.4 12 19.1 4.9 4.5 11.3 9.1 14.3 10.3 3 1.2 10.2 2.2 15.9 2.2 6.4 0 14-1.8 20-4.9 5.3-2.7 12.7-8.7 16.4-13.3 6.1-7.7 6.7-9.7 6.7-25.2 0-14.5-0.8-18-5.5-24.8-3-4.3-8.8-10.1-12.9-12.9-5.6-3.8-11.1-5.2-21.9-5.6-8.7-0.4-16.8 0.5-20.8 2.4z"/>
		</g>
		<g id="N copy">
			<path id="Path 0" class="s0" d="m1138.9 133.8c-0.4 1.1-8.7 51.4-18.5 111.8l-17.8 109.9c10.4 11.8 16.7 18.4 20.8 22.3l7.3 7.1c47.4 0 61.5-0.7 62-1.6 0.5-0.9 4.2-23.5 8.2-50.2 4-26.7 7.8-48.6 8.4-48.6 0.6 0 8.2 16.2 16.9 36 8.7 19.8 17.5 37.9 19.6 40.1 2.1 2.3 6.8 7.5 10.4 11.6 3.6 4.1 8.7 8.7 11.4 10.1 3.2 1.7 16.2 2.6 36.6 2.6 30.7 0 31.7-0.1 33.6-4.9 1.2-2.7 9.5-52.8 18.6-111.3l16.5-106.3-29.5-30.5c-48.9-0.2-57.4 0.5-59.2 2.5-1.4 1.6-5.8 23.7-9.8 49.2-4 25.4-8 45.6-8.8 44.7-0.9-0.9-7.6-15.8-15-33.2-12.6-29.7-14.4-32.6-29-47.5l-15.6-15.8c-51.4 0-66.7 0.9-67.1 2z"/>
			<path id="Path 1" class="s6" d="m1146 386.5c7.8 0.4 21 0.4 29.4 0 8.4-0.4 2.1-0.7-14.1-0.7-16.2 0-23.1 0.3-15.3 0.7zm140.7 0c9.6 0.4 24.8 0.4 33.8 0 9-0.4 1.2-0.7-17.4-0.7-18.6 0-26 0.3-16.4 0.7z"/>
			<path id="Path 2" class="s5" d="m1145 143.2c-0.5 1.5-7.9 47.2-16.3 101.5-8.5 54.3-15.4 100.2-15.4 102 0 2.7 4 3.3 22.9 3.3 22 0 22.9-0.2 23.9-4.9 0.6-2.7 4.4-28.5 8.6-57.3 4.1-28.8 8.3-59.7 9.3-68.7 1.3-11.7 2.7-16.4 4.8-16.4 1.7 0 3.8 1.5 4.7 3.3 0.9 1.8 4.6 11.1 8.2 20.7 3.6 9.6 16.9 41.3 29.7 70.4l23.1 52.9h55.7l32.9-208.4c-35.7-0.8-46.3-0.8-46.5-0.5-0.3 0.3-4.4 25.1-9.2 55.1-4.7 30-9.4 62.2-10.4 71.5-1.5 14.7-2.3 17-5.7 16.4-2.7-0.4-5.5-5.3-9.1-15.9-2.9-8.4-15.9-40.3-29-70.9l-23.8-55.7c-50.5-1-57.6-0.5-58.4 1.6z"/>
			<path id="Path 3" class="s7" d="m1122 351.6c6.6 0.4 17.9 0.4 25.1 0 7.2-0.4 1.8-0.8-12-0.8-13.8 0-19.7 0.4-13.1 0.8zm139.6 0c7.8 0.4 21.1 0.4 29.5 0 8.4-0.4 2-0.7-14.2-0.7-16.2 0-23.1 0.3-15.3 0.7z"/>
			<path id="Path 4" class="s8" d="m1268.5 273.6c0 3 0.5 4 1.1 2.2 0.6-1.8 0.6-4.2 0-5.4-0.6-1.2-1.1 0.2-1.1 3.2z"/>
			<path id="Path 5" class="s9" d="m1178.8 211.5c0.1 2.4 0.5 3 0.8 1.5 0.3-1.6 0.2-3.6-0.3-4.4-0.4-0.8-0.6 0.5-0.5 2.9z"/>
		</g>
		<g id="Path 0 copy">
			<path id="Path 0" class="s0" d="m936.5 19.4c-10.2 2.8-24.9 8.2-32.7 12-7.8 3.9-20.9 12.1-29.1 18.3-8.2 6.2-20.8 18.1-28 26.5-7.6 8.8-17.1 23.5-22.6 34.9-5.2 10.8-11.1 25.5-13 32.7-2 7.2-4.1 24.4-4.8 38.2-1 19.7-0.5 28.4 2.5 40.4 2.1 8.4 6.6 22.6 10 31.6 3.5 9 11.1 23.2 17 31.6 5.8 8.4 17.4 21.7 25.7 29.5 8.3 7.8 24.8 20.2 36.8 27.6 12 7.4 26.8 15.8 32.8 18.8 6 3 17.8 7.5 26.2 10 8.4 2.5 22.5 6 31.6 6.9 12.8 1.2 20.6 0.9 36-0.8 10.9-1.3 27-5.7 36-8.8 9-3.2 23.2-9.9 31.6-14.9 8.4-5 22.3-16.1 30.8-24.5 8.5-8.5 19.5-22.3 24.4-30.7 5-8.4 11.5-22.6 14.6-31.6 3-9 6.5-23.5 7.7-32.2 1.2-8.7 2.2-20.7 2.2-26.7 0-6-2.5-20.5-5.6-32.2-3.1-11.7-9.3-28.1-13.8-36.5-4.5-8.4-13.6-24.1-20.1-34.9-7.4-12.3-18.7-26.6-30.4-38.3-10.2-10.3-24.4-22.2-31.6-26.4-7.2-4.2-19.5-10.1-27.3-13.2-7.8-3.1-20.3-7.2-27.8-9.2-8.8-2.3-21.9-3.4-37.1-3.3-16.9 0.2-28.6 1.7-42 5.2z"/>
			<path id="Path 1" class="s5" d="m946.3 28.5c-8.4 1.9-21.1 5.8-28.3 8.7-7.2 3-18.5 8.7-25.1 12.7-6.6 4-18.7 14-26.9 22.3-8.2 8.2-18.5 20.3-22.9 26.9-4.3 6.6-10.5 18.4-13.8 26.2-3.2 7.8-7.6 22.5-9.6 32.7-2.7 13.5-3.4 24.2-2.6 39.3 0.7 11.8 3.3 27.3 6 36 2.6 8.4 8.8 23 13.8 32.6 5.3 10.1 14.9 23.5 23.3 32.4 7.8 8.3 21 19.7 29.4 25.4 8.4 5.6 23.6 13.2 33.8 16.9 10.2 3.7 27.4 7.9 38.2 9.4 17 2.3 22.6 2.1 41.5-1.1 12-2 27.7-5.9 34.9-8.6 7.2-2.7 18.5-8.3 25.1-12.5 6.6-4.2 16-11 20.8-15.1 4.9-4.1 14.1-13.3 20.4-20.5 6.6-7.5 15.6-21.5 21-32.7 5.2-10.8 11.1-26.6 13.1-35 2.8-11.5 3.4-21.8 2.7-42.5-0.8-22.4-2-30.4-7-44.7-3.3-9.6-10-24.4-14.9-32.8-4.9-8.5-16.2-22.5-25.4-31.6-9.1-9-21.9-19.5-28.5-23.4-6.6-3.9-17.9-9.5-25.1-12.4-7.2-2.9-20.7-6.9-30-8.7-9.3-1.9-24.1-3.4-32.8-3.3-8.7 0.1-22.7 1.6-31.1 3.4z"/>
			<path id="Path 2" fill-rule="evenodd" class="s0" d="m924.4 73.4c2.3 0.3 4.5 1.8 4.9 3.3 0.4 1.5-4.9 6.4-11.8 10.9-6.9 4.5-17.4 13.2-23.5 19.3-6 6.1-14 16.9-17.8 24-3.8 7.1-8.5 18.3-10.4 24.9-1.9 6.6-3.5 15.5-3.5 19.7 0 4.2-0.5 9.8-1.1 12.5-0.6 3.1-2.6 4.9-5.4 4.9-3.9 0-4.4-1.5-4.4-12.5 0-6.9 2-19.5 4.6-27.9 2.6-8.4 6.9-19.6 9.7-25 2.8-5.4 9.8-15.4 15.6-22.1 5.8-6.8 13.4-14.8 17-17.8 3.6-2.9 10-7.5 14.2-10.1 4.2-2.6 9.5-4.4 11.9-4.1zm-14.6 45.4c1.5-0.1 3.2 0.9 3.8 2.1 0.6 1.2-2.4 7.3-6.6 13.6-4.3 6.3-9.7 16.9-12.1 23.5-2.3 6.6-5.1 13.5-6.1 15.3-1 1.8-3.2 3.2-4.8 3.2-1.7 0-3.4-1.9-3.8-4.3-0.4-2.4 0.9-9.3 2.9-15.3 2.1-6 7.2-16.3 11.4-22.9 4.2-6.6 8.8-12.7 10.1-13.6 1.4-0.9 3.7-1.6 5.2-1.6zm70.4 0c13.5-0.1 18.6 1 29.4 6.1 7.6 3.6 16.7 10.3 21.7 15.9 4.7 5.2 10.5 14 12.9 19.4 2.3 5.4 4.7 15.7 5.3 22.9 0.8 9.1 0 16.8-2.7 25.1-2 6.6-7.5 16.9-12.1 22.9-5.5 7.3-12.8 13.4-22.1 18.4-11.1 5.9-17 7.6-29.2 8.4-12.1 0.7-17.9-0.1-28.3-4-9.3-3.6-16.6-8.5-25.3-17.2-8.8-8.7-13.3-15.5-16.3-24.2-2.5-7.2-4.1-17.5-4-26.1 0.2-9.6 1.8-17.8 5-25.1 2.7-6 7.3-13.9 10.3-17.6 3-3.6 9.1-9.3 13.5-12.5 4.4-3.3 12-7.4 16.8-9.1 4.8-1.8 16.1-3.2 25.1-3.3zm123.9 63.7c3.1 0.6 3.6 3.2 3.4 14.8-0.2 8.8-2.5 20.6-6 31.1-3.1 9.3-9 22-13 28.3-4 6.3-12.1 16.3-18 22.2-5.9 5.9-15.9 14-22.2 18-6.3 4-12.9 7.3-14.7 7.3-1.8 0-3.3-2-3.3-4.4 0-3 5-7.6 15.8-14.7 8.6-5.7 19.6-15.3 24.3-21.3 4.7-6 11.9-17.8 15.9-26.2 4.6-9.8 8.1-21.5 9.7-32.7 1.4-9.6 2.9-18.7 3.4-20.3 0.6-1.6 2.7-2.6 4.7-2.1zm-29.1 17c1.8 0 3.7 1 4.2 2.3 0.5 1.3-1.1 8.9-3.4 16.9-2.3 8-7.9 20-12.3 26.6-4.4 6.5-9.8 12.2-11.9 12.5-2.1 0.3-4.3-0.9-4.9-2.7-0.6-1.8 2.4-8.4 6.7-14.7 4.2-6.3 9.7-16.9 12-23.5 2.4-6.6 4.8-13.2 5.3-14.7 0.6-1.5 2.5-2.7 4.3-2.7z"/>
			<path id="Path 3" class="s5" d="m961.6 131.2c-6 2.2-13.8 6-17.4 8.5-3.6 2.5-9.8 9.4-13.7 15.2-3.9 5.9-8.1 15.6-9.4 21.6-1.2 6-1.6 14.9-0.8 19.7 0.9 4.8 3.7 13.1 6.4 18.5 2.7 5.4 9.2 13.5 14.4 18.1 5.3 4.5 14 9.7 19.4 11.4 5.4 1.8 14.3 3.3 19.7 3.3 5.4 0 14.2-1.5 19.6-3.4 5.4-1.9 13.6-6.6 18.2-10.4 4.8-3.9 11.2-12.7 14.8-20.1 4.4-9.1 6.4-16.3 6.3-24 0-6-1.4-15.3-3.2-20.7-1.8-5.4-6.6-13.7-10.7-18.5-4-4.8-12.1-11.4-18-14.6-6.1-3.4-15.8-6.5-22.7-7.2-8.6-0.9-15-0.2-22.9 2.6z"/>
			<path id="Path 4" class="s0" d="m966.5 176c-5.8 6.1-6.5 8.2-5.3 14.7 0.8 4.2 3.7 9.4 6.4 11.4 2.7 2.1 7.9 3.9 11.5 3.9 3.6 0.1 9.2-1.8 12.5-4.3 4.8-3.5 6-6.2 6-13.2 0-6.4-1.4-10.1-5.4-14.1-3.5-3.5-8-5.5-12.2-5.5-4.7 0-8.7 2.1-13.5 7.1z"/>
			<path id="Path 5" class="s5" d="m973.9 183.1c-1.4 1.8-2.2 5-1.9 7.1 0.4 2.6 2.6 3.8 7.1 3.8 5.3 0 6.6-1 7.2-5.5 0.4-3-0.6-6.1-2.2-7-1.6-0.9-4-1.6-5.3-1.6-1.4-0.1-3.6 1.4-4.9 3.2z"/>
		</g>
		<g id="C copy">
			<path id="Path 0" class="s0" d="m676.9 126.1c-9 2.7-21.8 7.7-28.4 11.1-6.6 3.4-17.9 12.1-25.1 19.5-7.3 7.4-16.6 20.1-21.1 28.6-4.4 8.4-9.6 21.6-11.6 29.4-2.1 8.4-3.6 22.7-3.6 34.9 0 11.4 1.2 25.7 2.6 31.7 1.5 6 6.2 17.7 10.6 26 5.1 9.9 14.8 22.5 27.7 36 13 13.7 24.2 23.3 32.7 27.9 7.1 3.8 20.8 8.9 30.4 11.4 9.6 2.4 23.1 4.4 30 4.5 6.9 0 22.1-2 33.8-4.4 11.7-2.4 21.5-4.6 21.8-4.9 0.2-0.3 2.4-11.8 4.9-25.6 2.4-13.8 4.3-27.6 4.3-30.6 0-3.7-4.4-10.1-14.1-20.1-7.8-8.1-14.4-14.8-14.7-14.8-0.3 0-6.5 2.1-13.7 4.7-9.9 3.6-18.4 4.8-35.2 4.9-12.2 0.2-23-0.6-24-1.6-1-1-1.9-10.8-1.8-21.8 0-17.2 0.8-21.5 5.6-30.9 3.2-6 9.5-14.1 14.2-18 4.7-3.9 12.9-8.6 18.3-10.4 5.4-1.8 14.5-3.3 20.2-3.3 5.7 0.1 15.5 2 21.8 4.3 6.3 2.4 15.2 6.8 19.7 9.8 4.5 3.1 10.3 5.8 13 6.1 4.3 0.5 5.2-0.9 7.5-12.5 1.5-7.2 3.9-21.4 5.4-31.6l2.7-18.6c-23.8-24.5-34-32.8-39-34.8-4.8-2-15.8-5.5-24.5-7.9-10.3-2.7-22.6-4.1-35-4.1-13.2 0.1-24.1 1.7-35.4 5.1z"/>
			<path id="Path 1" class="s5" d="m686.7 133.1c-8.4 1.6-22.1 6.3-30.5 10.5-10.5 5.1-19.1 11.5-27.3 20.3-6.6 7-15.1 18.7-18.9 25.8-3.8 7.2-8.6 19.4-10.6 27.2-2.8 10.6-3.5 20.5-2.8 39.3 0.7 23.4 1.3 26.2 8.6 41.4 4.3 9 11.2 19.7 15.2 23.8 4.1 4.1 11.3 10.3 16.1 13.8 4.8 3.5 15.1 8.2 22.9 10.6 10.8 3.3 20 4.2 38.2 4 13.2-0.1 28.9-1.4 34.9-2.7l10.9-2.6c5.6-33.8 7-43.9 6.9-44.3-0.2-0.4-6.7 0.9-14.5 2.7-7.8 1.9-20.8 3.4-28.9 3.4-9.4 0.1-18.9-1.5-26.2-4.2-6.3-2.4-14.5-7.5-18.3-11.5-3.8-3.9-8.7-10.6-10.9-14.8-3.2-6-4.1-12.3-4.1-29.4 0-20.9 0.4-22.5 7.7-35.8 4.3-7.9 11.4-16.9 16.3-20.7 4.8-3.7 13.4-8.5 19.1-10.6 5.7-2.1 14.1-3.9 18.6-3.9 4.5 0 13.5 1 20.1 2.3 6.6 1.2 17.4 4.9 24.1 8.1 6.6 3.2 12.4 6.1 13 6.5 0.6 0.3 2.9-9.9 5-22.8 2.1-12.9 3.8-24.2 3.8-25.1 0-0.9-6.2-3.6-13.7-6-7.5-2.4-20.5-5.3-28.9-6.5-8.4-1.2-18.7-2.1-22.9-2-4.2 0.1-14.5 1.5-22.9 3.2z"/>
		</g>
		<g id="W">
			<path id="Path 0" class="s0" d="m343.5 106.2c-1.6 1.9 3.6 35.2 17.7 113 18.1 99.7 20.6 111 25.5 116.4 3 3.4 9.1 9.9 13.6 14.6l8.2 8.5 68.7-1.1c15.3-44.5 20.4-58.2 21.2-59.2 0.9-1 2.2 3.1 3 9.1 0.7 6 2 13.5 2.8 16.7 0.8 3.2 7.3 12.3 14.5 20.3l13.1 14.4c54.8 0 63.9-0.7 65.8-2.8 1.3-1.6 22.7-51.2 47.4-110.3 24.7-59.1 45-108.4 45-109.6 0-1.2-6.9-9.1-15.3-17.5l-15.3-15.2h-61.1c-4.6 9.3-11.6 27.2-18.5 45.8-6.9 18.6-13.3 34.8-14.3 36-0.9 1.2-2.2-1.2-2.9-5.5-0.6-4.2-2.3-16-3.7-26.2l-2.4-18.5-31.3-31.7c-52 0.1-53.6 0.3-56.4 5-1.7 2.7-8.1 20.6-14.4 39.8-6.2 19.2-11.7 34.4-12.2 33.8-0.5-0.6-2.5-11.4-4.5-24l-3.5-22.9-31.1-31.7c-49 0.1-58 0.9-59.6 2.8z"/>
			<path id="Path 1" class="s5" d="m351.8 116c0 0.9 8.3 47.3 18.5 103.1 10.2 55.8 18.6 102.2 18.6 103.1 0 0.9 12.5 1.6 27.8 1.6l27.8 0.1c30-92.2 39.8-122.4 41.2-126.6 1.5-4.2 4.1-7.7 5.8-7.7 2.2 0 3.4 2.8 3.8 8.8 0.3 4.8 4 32.7 8.2 62.1 4.2 29.4 8.1 55.7 8.7 58.4 1 4.8 1.6 4.9 27.5 4.4l26.4-0.6c67.3-160.6 86.8-207.5 86.8-207.8 0-0.3-11.4-0.3-25.4 0l-25.4 0.6c-33.4 87.9-45.5 121.5-48.5 131.4-3.7 12.1-6.5 18-8.7 18-2.1 0-3.6-2.6-4.2-7.1-0.5-3.9-4.5-35.5-8.9-70.3-4.4-34.8-8.4-65.5-8.9-68.2-0.9-4.8-1.8-4.9-24.4-5h-23.4c-35.1 107.4-46 141.1-46.9 144.1-0.8 3-2.9 5.4-4.6 5.4-2.2 0-3.6-4.2-4.7-14.2-1-7.8-5.2-39.2-9.3-69.8-4.2-30.6-8.1-57.8-8.7-60.5-1.1-4.8-2-4.9-25.1-4.9-13.2 0-24 0.7-24 1.6z"/>
		</g>
		<g id="A">
			<path id="Path 0" class="s0" d="m293.4 132.4c-1.2 1.5-26.9 52-57 112.3l-54.8 109.7c9.3 10.6 15.7 17.5 20.2 22.1l8.2 8.4h69.8l20.7-41.5 49.1 0.1c2.5 9.9 9.2 19.2 16.4 27.2l13.1 14.4c65-0.2 66.5-0.4 66.5-4.6 0-2.4-10.2-52.7-22.7-111.8l-22.7-107.4-31-31.7c-63.7 0-74.2 0.8-75.8 2.8z"/>
			<path id="Path 1" class="s5" d="m282.3 173.8c-9.5 18.3-33.1 65-52.5 103.7-19.3 38.7-35.1 70.8-35.1 71.4 0 0.6 12 0.9 26.7 0.6l26.8-0.6 20.7-40.4c70.4 0 81.1 0.7 82.2 2.8 0.9 1.5 3.1 10.6 5 20.2l3.5 17.4c45.1 1 50.9 0.5 50.4-1.6-0.5-1.5-10.5-48.7-22.4-104.8l-21.6-102h-66.3z"/>
			<path id="Path 2" class="s0" d="m321.9 188c-0.7 2.1-3 8.2-5.1 13.6-2.1 5.4-9.3 21.9-16 36.6-6.8 14.7-11.8 27.7-11.2 28.9 0.6 1.3 11.6 2.2 26.2 2.2 21.9 0 25.3-0.5 26.5-3.8 0.8-2.1-1.1-16.6-4.2-32.2-3.1-15.6-6-33.1-6.5-38.8-0.6-7.9-1.7-10.3-4.6-10.3-2 0-4.3 1.7-5.1 3.8z"/>
		</g>
		<g id="R copy">
			<path id="Path 0" fill-rule="evenodd" class="s0" d="m137.8 16.8c66.3 0.9 77.3 1.6 90.7 5.3 8.4 2.4 20.7 7 27.3 10.4 7.8 3.9 20 14.1 35.2 29.2 12.7 12.8 25.2 27.4 27.8 32.5 2.5 5.1 6.1 14.9 7.9 21.8 1.8 6.9 3.3 19.4 3.3 27.8-0.1 8.4-1.5 21.4-3.3 28.9-1.8 7.5-5.9 18.8-9.1 25.1-3.1 6.3-11.7 17.4-19 24.7-8.5 8.4-18.6 15.7-27.5 20-7.8 3.7-17.9 7.3-22.4 8-4.5 0.7-8.2 1.8-8.2 2.4 0 0.6 17.4 29.3 38.6 63.8 21.2 34.5 38.6 64.2 38.7 66 0.2 2.8-7.5 3.4-108.9 4.4l-13.9-14.7c-11.2-11.9-17.2-21.4-30.9-48.6-9.9-19.7-17.5-32.4-18.2-30.5-0.6 1.8-4.2 22.9-7.9 46.9-3.8 24-7.3 44.4-7.8 45.3-0.5 0.9-22.1 1.6-94.8 1.6l-7.3-7.1c-4.1-3.9-10.5-10.8-14.2-15.3-6.7-8-6.8-8.4-4.6-20.7 1.2-6.9 13-81.8 26.3-166.4 13.2-84.6 24.6-155.6 25.4-157.8 1.2-3.9 4.7-4 76.8-3zm31.5 124.7c-2.2 13.8-3.6 25.6-3 26.4 0.6 0.7 4.6 0.8 8.8 0.1 4.2-0.6 10.9-3.4 15-6.1 4.1-2.8 9.3-7.4 11.6-10.4 2.4-3.3 4.6-10.8 5.4-18.6l1.3-13.1c-11.5-2.6-19.4-3.3-24.9-3.3h-10.2z"/>
			<path id="Path 1" class="s10" d="m196.3 17.4c1.5 0.6 4 0.6 5.5 0 1.5-0.5 0.3-0.9-2.7-0.9-3 0-4.3 0.4-2.8 0.9z"/>
			<path id="Path 2" class="s3" d="m7 341.8c0 5.1 0.3 8.8 0.8 8.2 0.5-0.6 1.4-4.8 2-9.3 0.6-4.5 0.3-8.2-0.8-8.2-1.1 0-2 4.2-2 9.3z"/>
			<path id="Path 3" fill-rule="evenodd" class="s5" d="m68.9 24.5l71.1 1c57.4 0.8 73.8 1.7 85.2 4.7 7.8 2 20 6.8 27.1 10.7 7.1 3.8 17.2 11.8 22.4 17.8 5.3 6 11.6 16.3 14.1 22.9 2.7 7.1 5 19.7 5.7 30.6 0.7 11.5 0.1 23.1-1.6 30.5-1.5 6.6-5.1 16.7-8 22.4-2.8 5.7-9.3 14.9-14.4 20.5-5.1 5.5-13.7 13.1-19.1 16.8-5.4 3.7-18.1 9.3-28.3 12.4-10.5 3.3-18.9 7.1-19.2 8.9-0.4 1.7 15.4 29 35 60.8 19.7 31.8 36.9 60.1 40.9 67.7h-91.6l-32.2-64.4c-22.8-45.7-33.2-64.3-35.5-63.8-2.5 0.5-5.5 14.8-23.1 127.1l-39.7 0.5c-36.6 0.5-39.7 0.3-39.7-3.2 0-2.1 10.8-72.1 23.9-155.5 13.2-83.4 24.7-155.4 25.5-160zm100.4 117c-2.2 13.8-3.6 25.6-3 26.4 0.6 0.7 4.6 0.8 8.8 0.1 4.2-0.6 11-3.4 15-6.1 4.1-2.8 9.3-7.5 11.6-10.5 2.4-3.2 4.7-10.8 5.4-18.5l1.4-14.1c-11.9-1.6-19.2-1.5-25-2.3h-10.2z"/>
			<path id="Path 4" fill-rule="evenodd" class="s0" d="m161.8 82.1c13.7 0.8 24.3 2.6 30.7 5.4 5.6 2.4 12.7 7.8 16.4 12.6 6.1 7.9 6.5 9.7 6.5 27.5 0 18.2-0.3 19.6-7 28.5-3.9 5.1-11.7 11.8-17.4 14.9-9.2 4.9-13.3 5.6-36.6 6.2-14.4 0.4-26.9-0.1-27.8-1.1-0.9-0.9 1.4-20.4 5-43.2 3.6-22.8 7.1-43.8 7.9-46.7 1.4-5.1 1.7-5.2 22.3-4.1zm7.5 59.4c-2.2 13.8-3.6 25.6-3 26.4 0.6 0.7 4.6 0.8 8.8 0.1 4.2-0.6 10.9-3.4 15-6.1 4.1-2.8 9.3-7.4 11.6-10.4 2.4-3.3 4.6-10.8 5.4-18.6l1.3-13.1c-11.5-2.6-19.2-3.2-24.8-3.2l-10.3-0.1z"/>
		</g>
		<g id="-">
			<path id="Path 0" class="s0" d="m743.5 230.5c-0.6 2.7-2.2 10.8-3.6 18-1.4 7.2-2.9 16.6-3.4 20.8-0.9 6.9 0.3 9 12.8 22.3l13.8 14.6 108 0.2c1.6-7.6 3.2-16.2 4.5-24 1.4-7.8 3-16.7 3.6-19.7 1-4.5-1.5-8.2-13.8-21.2l-15.1-15.8-105.7-0.1z"/>
			<path id="Path 1" class="s5" d="m749.1 248c-1.3 7.5-2.4 15.8-2.4 18.5v5h90.6c4.2-23.7 5.4-32.1 5.4-33.9 0-2.8-6.5-3.2-45.6-3.2h-45.6z"/>
		</g>
	</g>
	<g id="Folder 2 copy">
		<path id="!" class="s11" aria-label="!"  d="m1326.8 18.2l-38.7 245.3h90.4l38.7-245.3zm-53.6 322.7c0 26.3 21.8 49.1 49.1 49.1 26.8 0 49.2-20.8 49.2-49.1 0-27.8-21.9-48.7-49.2-48.7-27.3 0-49.1 22.4-49.1 48.7z"/>
		<path id="N" class="s11" aria-label="N"  d="m1105.9 354.7h58.4l16.4-110.5c1.3-9.5 2.5-19.6 2.5-30.3v-6.1c3.7 15.3 8.8 26.9 12.8 35.7l48.9 111.2h64.1l34.6-218.4h-58.4l-16.8 107.2c-1.5 10.7-2.7 21.1-2.7 30.9v5.5c-3.7-16.2-9.2-27.5-12.6-35.7l-46.1-107.9h-66.6z"/>
		<path id="C" class="s11" aria-label="C"  d="m780.4 141.7c-18-9.2-39.4-15.6-65.4-15.6-40.9 0-74.2 14.6-95.9 41.2-18.3 22.6-28.4 51-28.4 82.2 0 63.2 40 105.7 102.9 105.7 20.8 0 38.8-2.5 53.8-7.4l9.2-56.5c-17.5 7.4-33.6 11.3-49.8 11.3-36.4 0-56.5-20.4-56.5-55.6 0-39.4 26.2-67.2 62.3-67.2 20.7 0 40.9 7.4 58 22z"/>
		<path id="W" class="s11" aria-label="W"  d="m385.8 327.9h62.3l33-100.5c2.8-8.6 6.1-20.2 9.8-34.6 0.3 11.4 1.5 22.3 3.1 33.3l14.9 101.8h59.9l91.3-218.4h-60.5l-43.9 116.6c-4.6 12.6-8.6 23.9-10.7 34.6-0.3-11.3-1.6-22.3-3.1-33.3l-15.9-117.9h-53.7l-38.8 116.6c-2.5 7.4-5.8 19-9.8 34.6-0.3-11-1.5-22-3.1-33.3l-16.8-117.9h-58z"/>
		<path id="A" class="s11" aria-label="A"  d="m293.4 264.2l23.2-50.1c1.5-3.3 4.9-11.9 9.7-25.6 0.4 8.2 1.6 16.5 3.1 24.7l10.1 51zm-106.3 89.8h63.5l20.8-41.2h76.4l8.8 41.2h59.3l-46.5-218.4h-73z"/>
		<path id="R" class="s11" aria-label="R"  d="m129.6 174.1l14-88.2h13.2c37.5 0 55.8 11.2 55.8 40.8 0 30.5-19.2 47.4-54.9 47.4zm-28.6 182l20.2-128.1 64.7 128.1h102.3l-81.7-132.3c59.1-9.8 93.4-50.2 93.4-105.1 0-40.3-17.8-69.4-51.6-85.4-24.9-11.7-55.4-12.6-94.3-12.6h-89.1l-53.1 335.4z"/>
		<path id="Shape 2" class="s0" d="m978.8 361.3c-96.1-0.1-173.8-77.7-173.8-173.8 0-96.1 77.9-173.5 173.8-173.7 96-0.3 173.7 77.6 173.7 173.7 0 96.1-77.7 173.8-173.7 173.8z"/>
		<path id="Shape 1" class="s5" d="m978.8 349.6c-90.9 0-164.5-72.7-164.5-162.5 0-89.9 73.6-162.6 164.5-162.6 91 0 164.9 72.7 164.5 162.6-0.3 89.8-73.5 162.5-164.5 162.5zm-9.6-231.7c-2.3 0.3-6.6 1.4-9.8 2.4-3.1 0.9-8.1 2.9-11.1 4.4-2.9 1.5-6.7 3.7-8.4 4.8-1.6 1.1-5.5 4.5-8.6 7.5-3.1 2.9-6.9 7.2-8.5 9.4-1.6 2.2-4.1 6.5-5.6 9.4-1.4 3-3.4 7.8-4.3 10.8-1 2.9-2.1 7.7-2.5 10.5-0.4 2.9-0.7 7.4-0.7 10 0 2.5 0.3 7 0.7 9.9 0.4 2.8 1.5 7.6 2.5 10.5 0.9 3 2.9 7.8 4.3 10.8 1.5 2.9 3.7 6.7 4.8 8.4 1.2 1.6 4.4 5.4 7.2 8.3 2.7 2.9 6.8 6.6 9.1 8.3 2.2 1.6 6.4 4.2 9.4 5.7 2.9 1.5 7.4 3.4 10 4.3 2.6 0.9 7.5 2.1 10.8 2.6 3.3 0.6 8.3 1 11.1 1 2.7 0 7.7-0.4 11-1 3.4-0.5 8.2-1.7 10.8-2.6 2.6-0.8 7-2.7 9.7-4.1 2.8-1.4 6.4-3.5 8.1-4.6 1.7-1.2 5.4-4.4 8.3-7.2 2.9-2.7 6.7-7 8.5-9.4 1.7-2.4 4.3-6.6 5.7-9.4 1.4-2.8 3.3-7.1 4.1-9.7 0.9-2.6 2.1-7.4 2.6-10.8 0.6-3.3 1-8.3 1-11 0-2.8-0.4-7.8-1-11.1-0.5-3.4-1.7-8.2-2.6-10.8-0.8-2.6-2.8-7.1-4.3-10.1-1.5-2.9-4-7.1-5.7-9.4-1.6-2.2-5.7-6.6-9-9.7-3.4-3.1-8.5-7.1-11.4-8.8-2.9-1.7-7.2-3.9-9.6-4.9-2.4-0.9-6.8-2.4-9.8-3.1-3.6-1-8.2-1.5-14.1-1.7-4.8-0.1-10.5 0.1-12.7 0.4zm0 0c-2.3 0.3-6.6 1.4-9.8 2.4-3.1 0.9-8.1 2.9-11.1 4.4-2.9 1.5-6.7 3.7-8.4 4.8-1.6 1.1-5.5 4.5-8.6 7.5-3.1 2.9-6.9 7.2-8.5 9.4-1.6 2.2-4.1 6.5-5.6 9.4-1.4 3-3.4 7.8-4.3 10.8-1 2.9-2.1 7.7-2.5 10.5-0.4 2.9-0.7 7.4-0.7 10 0 2.5 0.3 7 0.7 9.9 0.4 2.8 1.5 7.6 2.5 10.5 0.9 3 2.9 7.8 4.3 10.8 1.5 2.9 3.7 6.7 4.8 8.4 1.2 1.6 4.4 5.4 7.2 8.3 2.7 2.9 6.8 6.6 9.1 8.3 2.2 1.6 6.4 4.2 9.4 5.7 2.9 1.5 7.4 3.4 10 4.3 2.6 0.9 7.5 2.1 10.8 2.6 3.3 0.6 8.3 1 11.1 1 2.7 0 7.7-0.4 11-1 3.4-0.5 8.2-1.7 10.8-2.6 2.6-0.8 7-2.7 9.7-4.1 2.8-1.4 6.4-3.5 8.1-4.6 1.7-1.2 5.4-4.4 8.3-7.2 2.9-2.7 6.7-7 8.5-9.4 1.7-2.4 4.3-6.6 5.7-9.4 1.4-2.8 3.3-7.1 4.1-9.7 0.9-2.6 2.1-7.4 2.6-10.8 0.6-3.3 1-8.3 1-11 0-2.8-0.4-7.8-1-11.1-0.5-3.4-1.7-8.2-2.6-10.8-0.8-2.6-2.8-7.1-4.3-10.1-1.5-2.9-4-7.1-5.7-9.4-1.6-2.2-5.7-6.6-9-9.7-3.4-3.1-8.5-7.1-11.4-8.8-2.9-1.7-7.2-3.9-9.6-4.9-2.4-0.9-6.8-2.4-9.8-3.1-3.6-1-8.2-1.5-14.1-1.7-4.8-0.1-10.5 0.1-12.7 0.4z"/>
		<path id="Path 0" fill-rule="evenodd" class="s0" d="m923.5 70.8c0.9 0 2.4 0.6 3.2 1.3 0.9 0.8 1.7 2.1 2 2.9 0.2 0.9-0.1 2.4-0.6 3.5q-0.9 1.9-5.6 4.5c-2.6 1.4-6.9 3.9-9.5 5.6-2.7 1.8-7.8 5.7-11.6 8.8-3.7 3.1-9 8.3-11.7 11.5-2.8 3.1-7 8.6-9.4 12.2-2.4 3.6-6.1 10.3-8.4 15-2.2 4.6-5.1 12-6.4 16.3-1.3 4.3-2.9 10.7-3.5 14.2-0.6 3.6-1.3 10.3-1.5 15-0.4 7.6-0.6 8.7-2 10-0.9 0.9-2.4 1.6-3.6 1.6-1.3 0-2.7-0.7-3.8-1.7-1.5-1.5-1.7-2.3-1.7-6.5 0-2.6 0.3-7.7 0.7-11.4 0.4-3.6 1.4-9.5 2.1-13.1 0.7-3.5 2.5-10.1 4-14.6 1.5-4.5 4.4-11.5 6.4-15.6 2-4.1 5.5-10.3 7.7-13.6 2.2-3.4 5.9-8.4 8.1-11.2 2.3-2.8 7.3-8.2 11.2-11.9 3.9-3.8 10-8.8 13.4-11.3 3.4-2.4 9.1-6 12.5-7.9 3.5-2 7.1-3.6 8-3.6zm57.6 46.3c5.9 0.1 10.6 0.7 14.3 1.6 3 0.8 7.4 2.2 9.8 3.2 2.5 1 6.8 3.2 9.8 5 2.9 1.7 8.1 5.7 11.5 8.9 3.3 3.1 7.5 7.6 9.1 9.8 1.7 2.3 4.3 6.5 5.8 9.5 1.5 3 3.5 7.6 4.4 10.2 0.9 2.6 2.1 7.5 2.6 10.9 0.6 3.4 1 8.4 1 11.2 0 2.8-0.4 7.9-1 11.2-0.5 3.4-1.7 8.3-2.6 10.9-0.9 2.6-2.8 7.1-4.2 9.9-1.4 2.8-4 7.1-5.8 9.5-1.8 2.4-5.6 6.7-8.6 9.5-2.9 2.8-6.7 6.1-8.4 7.3-1.7 1.1-5.3 3.2-8.1 4.6-2.8 1.4-7.3 3.3-9.9 4.2-2.6 0.9-7.5 2.1-10.9 2.6-3.3 0.6-8.4 1-11.2 1-2.8 0-7.8-0.4-11.2-1-3.4-0.5-8.3-1.7-10.9-2.6-2.6-0.9-7.2-2.8-10.2-4.4-3-1.5-7.3-4.1-9.5-5.8-2.2-1.6-6.4-5.4-9.2-8.4-2.8-2.9-6.1-6.7-7.2-8.4-1.2-1.6-3.4-5.5-4.9-8.5-1.5-3-3.5-7.8-4.4-10.8-0.9-3-2-7.9-2.5-10.7-0.4-2.9-0.7-7.5-0.7-10.1 0-2.6 0.3-7.1 0.7-10 0.5-2.9 1.6-7.7 2.5-10.7 0.9-3 2.9-7.9 4.4-10.9 1.5-3 4.1-7.3 5.7-9.5 1.6-2.3 5.4-6.6 8.6-9.6 3.1-3 7-6.4 8.7-7.5 1.7-1.2 5.5-3.4 8.5-4.9 3-1.5 8-3.5 11.2-4.5 3.2-1 7.6-2 9.9-2.4 2.2-0.3 8-0.5 12.9-0.3zm-23.9 13.8c-2.7 1-7.4 3.4-10.4 5.2-3 1.9-7.7 5.7-10.5 8.5-2.9 2.9-6.7 7.6-8.5 10.6-1.9 3-4.2 7.7-5.3 10.4-1 2.7-2.3 7.6-2.9 10.8-0.5 3.3-1 8-1 10.4 0 2.4 0.5 7.2 1.1 10.5 0.5 3.4 1.9 8.5 3.1 11.3 1.1 2.8 3.4 7.4 5.2 10.2 1.7 2.8 5.3 7.2 7.9 9.9 2.7 2.7 6.9 6.2 9.6 7.9 2.6 1.7 6.6 3.9 8.8 4.9 2.2 1 6.4 2.4 9.2 3.2 2.8 0.7 8.1 1.5 11.9 1.7 4.8 0.3 8.6 0.1 13.2-0.7 3.6-0.7 8.8-2.1 11.6-3.2 2.8-1.1 7.4-3.5 10.2-5.2 2.8-1.8 7.3-5.4 9.9-8 2.7-2.6 6.3-6.9 7.9-9.5 1.7-2.6 3.9-6.6 4.9-8.9 1-2.2 2.5-6.5 3.3-9.5 1.2-4.3 1.5-7.3 1.5-14.6 0-7.3-0.3-10.3-1.5-14.6-0.8-3-2.3-7.3-3.3-9.5-1-2.3-3.2-6.2-4.9-8.9-1.6-2.6-5.2-6.9-7.9-9.5-2.6-2.6-7.1-6.2-9.9-7.9-2.8-1.8-7.4-4.1-10.2-5.3-2.8-1.1-7.9-2.5-11.2-3.1-3.4-0.6-8.4-1-11.2-1-2.8 0.1-7.5 0.5-10.4 1.1-2.9 0.5-7.5 1.8-10.2 2.8zm-49.1-13.9c1.9 0 2.8 0.4 3.9 1.9 0.7 1 1.3 2.6 1.3 3.6 0 1-1.3 3.2-3.4 5.7-1.9 2.3-4.8 6.1-6.4 8.5-1.6 2.5-4.1 6.7-5.5 9.6-1.4 2.8-3.3 7-4.2 9.5-0.9 2.4-2.4 7.4-3.3 11.2-1 3.7-2.2 7.3-2.9 8-0.8 0.9-1.9 1.2-3.8 1-2-0.1-3-0.7-4.1-2.1-1.4-1.9-1.4-1.9-0.2-7.8 0.7-3.2 2-8.2 3-11 0.9-2.8 3-8 4.7-11.6 1.7-3.5 5-9.3 7.4-12.9 2.3-3.5 5.8-8 7.6-10 2.9-3.1 3.7-3.6 5.9-3.6zm194.2 63.9c1.3 0 2.7 0.7 3.7 1.7 1.5 1.5 1.7 2.3 1.7 6.5 0 2.6-0.3 7.7-0.7 11.4-0.4 3.6-1.5 10.1-2.4 14.4-1 4.3-2.8 10.9-4.1 14.6-1.3 3.8-3.7 9.6-5.3 13-1.6 3.3-4.7 9-6.9 12.5-2.2 3.6-6.4 9.5-9.4 13.2-3 3.8-8.6 9.7-12.3 13.2-3.7 3.5-9.5 8.3-12.9 10.7-3.4 2.4-9 5.9-12.6 7.9-5.4 2.9-6.8 3.4-8.7 3.1-1.6-0.4-2.5-1.1-3.4-2.9-0.9-1.8-1-2.8-0.5-4.2 0.5-1.3 2.3-2.7 6.2-4.8 2.9-1.7 7.7-4.6 10.5-6.5 2.8-1.9 7.7-5.6 10.9-8.3 3.1-2.7 8.1-7.6 11.1-10.9 2.9-3.3 7.2-9 9.6-12.5 2.4-3.6 6-10 8.1-14.3 2.1-4.3 4.7-10.6 5.8-13.9 1.1-3.4 2.6-8.9 3.4-12.3 0.7-3.3 1.6-9.1 2-12.7 0.4-3.7 0.8-8.6 0.8-11.1 0-3.7 0.3-4.7 1.7-6.1 1-1.1 2.4-1.7 3.7-1.7zm-28.7 17.2c2 0.1 3 0.7 4.1 2.1 1.4 1.9 1.4 1.9 0.2 7.8-0.7 3.3-2 8.2-2.9 11-1 2.8-3.1 8-4.8 11.6-1.7 3.5-5 9.4-7.4 12.9-2.3 3.6-5.7 8.1-7.6 10-2.8 3.1-3.6 3.6-5.8 3.6-2 0-2.9-0.4-4-1.9-0.7-1-1.3-2.6-1.3-3.5 0-1 1.3-3.3 3.1-5.5 1.7-2 4.6-5.9 6.4-8.5 1.8-2.6 4.4-7 5.8-9.8 1.4-2.8 3.3-7.1 4.2-9.5 0.9-2.5 2.4-7.5 3.4-11.3 0.9-3.7 2.1-7.3 2.8-8 0.8-0.9 1.9-1.1 3.8-1zm-95.8-30c1.5 0 4.4 0.4 6.5 1 2.8 0.9 4.6 2 7.2 4.6 2.5 2.7 3.7 4.5 4.6 7.6q1.3 4.1 0.9 7.5c-0.2 1.8-1.1 4.9-2 6.8-1 1.8-2.6 4.2-3.7 5.2-1 1-3.3 2.4-5 3.3-1.7 0.8-4.6 1.7-6.4 1.9q-3.4 0.3-7.5-0.9c-3.1-1-4.9-2.1-7.6-4.7-2.6-2.6-3.7-4.4-4.6-7.2-0.6-2.1-1.1-4.8-1.1-6.1 0-1.3 0.5-4.1 1.1-6.1 0.9-2.8 2-4.7 4.6-7.3 2.5-2.4 4.5-3.8 6.9-4.5 1.9-0.6 4.6-1.1 6.1-1.1zm-5.9 13.8c-1.2 1.4-1.6 2.7-1.6 5.2 0 2.9 0.4 3.7 2.3 5.6 1.9 1.9 2.7 2.2 5.6 2.2 2.9 0 3.6-0.3 5.6-2.2 1.9-1.9 2.2-2.7 2.2-5.6 0-2.9-0.3-3.7-2.1-5.5-1.4-1.4-2.8-2.1-4.7-2.4-1.5-0.1-3.4 0-4.2 0.3-0.8 0.3-2.2 1.4-3.1 2.4z"/>
		<path id="-" class="s11" aria-label="-"  d="m740.4 275.9h101.1l7.3-46.1h-101.1z"/>
	</g>
</svg>