<svg version="1.2" xmlns="http://www.w3.org/2000/svg" viewBox="0 0 1920 1080" width="1920" height="1080">
	<title>New Project</title>
	<style>
		.s0 { fill: #000000 } 
	</style>
	<path id="Path 0" fill-rule="evenodd" class="s0" d="m69 120h4l3 6v30l6 2 38 3 2-35h4l3 5v30l6 2 36 3 3-35 6 3v31l8 3 34 2 1-33h4l2 32 3 3 37 3 2-33h4l3 6 1 28 38 3v-28l4-3 3 3 32 48 5 17 15 20 2 14 15 19 2 15 14 16 1 16 16 16v25l-18 3 1 28-16 5v25l-16 9-1 22-17 13-1 21 18 2v28h13l4 3v27l16 2v28l16 1 1 28 15 1 2 28 27-2 3-4-1-80 3-5 13-2 1-27 4-3 37-2-1-28h-32l-2 28-3-2-4-25 1-27 15-3v-25l15-3-1-24-13-5-2-4 1-24 14-7v-20l15-16 1-15-13-1-3-3 1-26 12-27 5-2 15-35 4-1 2 29 31 1-2-28-30-3 14-33 4-1 1 4 1 24 26 3 4-1v-23l1-4 4-1 2 29 29 3 1-25 5-3 1 28 30 4-3 7-9 1v26l7 2 21 1 2-23 50-35h5l1 3 1 25 25 2 1-24 4-3 1 26 19 4 8-1v-24l4-2 2 27 23 3 1 4-8 4-31-4-2 25 22 3 4 4-9 4-23-2-10 2 1 24 24 4-1 4-8 3v23l6 3h20l2-13 29-5 5-6-12-6 1-21-11-3 1-21 116-40 7 1v23l9 3 14-1v-20l3-2 1 23 3 2h19l3-23 2 24 8 2 11 1 7-5 60-14 3 2v22l4 2h15l1-21 3-1 1 22 11 3 8-1v-19l3-2 1 21 10 3 9-1v-19l3-2 1 21 8 3 11-1v-17l3-3 1 21 14 3 98-14 3 3v19l8 2 8-1 3-18v17l10 4 7-3 2-16 1 18 11 3 5-3 2-16v16l4 4 12-2 2-16v16l7 4 94-12 3 3 2 18 41 3 3-13 28-3 4 3 1 17 23 2 4-16 2 17h9l1-9 3-2 40-2 2 18 25 1 2 4-9 4 2 18-8 2 1 18-7 3v17l4 4-11 2v15l7 5v19l6 4-13 3v16l7 3-1 18 4 1 10-12h3v5l-22 26v4l8 2-3 4 2 20-10 6-3-3h-7l-1 15 9 2-3 9 10 4-10 2 1 5 9 2-1 4-15 1 1 6 10 1 3 5-5 10-1 18 5 5 22 9 5-17 3-3h8l43 19 6 6 14-1 2-5-6-14v-10l-9-19-5-22 3-15 8-21 7-1 3-5h16l19 6 24 24-5 12 1 19-3 12 15 6 20 15 16 6 15 16 8 25 19 35 11 51-1 15-3 4 2 26-8 15-27 23-29 6 10 8 1 6-35 39-31 4-10-2-2-5 3-6 12-3 2-4-11-1-6-5h-14l-4-7 3-10-31-23-2-32-5-6-4-15 1-9 8-4v-3l-15-13-10-2-7 4-6-1 1-4 10-4v-4l-20-31-15-10-4-9-9-6-10-15-1-8 4-4-1-15-6-7v-10l-16 7-2 8-7-12h-6v15l-5 5-2 20-4-4-1-19-10-2-6 5-2-8-4-2v-7h-5l-4 13 7-1 1 4-4 7-8-8v-13l-9 1-3 16-5-8 1-8-3-1-7 2-2 18-44-9-10-5-8 2-3 17-2-17h-9l-4 4-5-3-9 1-3 20-35-8-3-7-4-1-10 2-1 18-3-17h-13l-2 19-3-17h-14l-2 19-3-18h-12l-4 4-2 16-1-18h-14l-4 22-80-25-4-3-1-13h-15l-2 23 4 5-15 3-1 20-3-2-1-18-18 3-1 20-3-2-1-19-18 3v20l-4-2v-18l-18 1-2 22h-3l-1-21h-11l-8 2v21l-5 2-112-53-3-3-1-20-21 1-1 23 8 7-22 5v22h20l8-3 8 7-22 5-1 23-4-2-1-21-22 2v23l-3 2-75-52-20 1-6 2 1 25 23-2 3-5h4l9 7v4l-25 4-1 24-4-4v-20l-25 2-1 25-4 1-48-46-2-10-24 1-3 2 1 26 25-2 2-9 4-1 12 11v4l-27 5-1 25-5-4v-21l-27 2-2 27h-3l-2-5-1-21-26 2-2 26-3 1-51-84 1-22 13-4-1-23 14-4-1-15-12-12-1-13 18-4v-25h-30v26l-4 2-2-27-4-2-27 2-1 28-5-2-2-27-29 1-2 26 2 3 12 1 2 6-35 4v27l13 1 3 8-36 3 1 28 28-1 4 3 21 71v9l-32 3-3 29h-3l-2-5-1-23-32 3-1 23-3 6-3-4-1-24-33 3-4 23-4-22-31 2-4 2v23l-3 7-4-4-1-26-31 2-5 2v24l-4 6-3-30-40 2 20-49 20-4 1-29-2-2-39 2 4-9 14-2v-30l-40-1 4-7 13-2v-30h-40l3-8 14-3v-30h-40l-1-4 3-3 13-3 2-3-1-29-38-1-3 3 1 34-17 9-3 25 21 3v28l-18 15-3 23 21 1-1 29h19l2 4-2 27-72 95-4-1-1-32-41 3-2 29-4 7-4-4v-30l-33 2-12 3-1 32-6 2-2-34-32 3h-13l-1-3 22-19h5l2 10 44-4-1-35-44 2 20-18 6-1 2 8 44-4-1-33-44 1 5-7 14-4v-32h-45l2-5 18-10h4l3 5 44-3-1-34h-44l4-5 15-6v-31l-45-1 2-5 18-6 51-1v-33h-40l-4-1v-6l-25-1 43-4-1-33-40-1v-3l27-6 40-1-1-33-39-2 6-5-32-2 39-2 1-34-15-8 1-2h40l-1-34-40-2-27-8 3-3 39 1-1-34-40-5 27 1-3-4 2-3 41 2v-33l-51-3-20-9v-4l44 3-1-35-40-4-10 3-21-11 6-4 39 4zm35 84l42 3 2-3-2-31-42-4zm52 4l30 3 12-2-1-31-41-4zm50 4l41 2-2-32-39-3zm49 4l39 2v-31l-39-4zm46 3l35 4 4-2-1-30-37-3zm293 23l5 2 25 1 1-27-29-4zm38 4l29 1v-26l-29-3zm-356 11l-67-5 3 5 1 25 18 8v27l-22 3 3 3-1 28 20 5v27l-4 3h-16l1 30-3 3 66 1 5 9h36l1-32-32-1-5-3 18-2 4-4h37l1-30-14-6-1-4 38-2-1-29-43-1-17-8 1-3 36 1v-31l-36-3-7 4-18-11 1-4 38 2v-31l-38-3zm49 6l37 2 1-2-2-29-35-3zm445-6l26 1v-24l-26-3zm-233 20l32 1-1-28-31-3zm442-4l22 1v-21l-21-3zm-402 7l29 1v-27l-30-3zm429-5l18 3 4-2v-21l-21-3zm-356 9l29 1-2-27-27-1zm-547 9l42 3 3-4-1-30-43-3zm581-22l2 16 27 1v-26l-27-3zm412 11l15 3 5-2v-20l-18-3zm24 2l19 2v-21l-18-2zm24 2l19 1v-20l-18-2zm23 2l7 2h11l1-20-18-3zm23 2l18 1-1-21-16-1zm24 3l16-1v-18l-17-3zm-866 13l35 2 2-2-2-30-34-2zm959-6l14 1 2-3-1-16-15-2zm19 1l14 2 2-2-1-18-15-1zm-334 4l10 3 12-1v-22l-21-2zm353-3l14 2 2-2v-16l-14-3zm19 1l13 3 3-3-1-16-13-2zm-809-13l1 26 32 3-1 6-12 2v28l31 1 1-17 10-5 1-19v-4l-14-2-1-19-14 6-3-7-28-2zm828 15l13 2 2-3-1-15-13-2zm17-14l2 17 13-1v-17l-12-2zm-317 20l10 3 11-2-1-20-19-2zm25 2l19 2v-21l-18-2zm-440 9l27 2 3-7 8-3-1-19-9 2-27-3zm821-7l41 3 2-15-8-4-36-3zm-288 4l18 2v-20l-17-2zm-432 7l27 2v-25l-26-2zm454-5l17 1v-19l-16-2zm312-4l12 1v-15l-11-2zm45 4l9 2 3-2v-13l-3-3h-8zm14 0l5 3 6-1v-15l-9-2zm-298 5l15 2 2-3-1-17-15-1zm20 1l16 1v-18l-15-2zm-421 7l23-1v-21l-24-3zm769-6l10-1v-12l-10-2zm-685 9l22 1v-22l-21-2zm414-4l14-1v-15l-14-3zm16-1l4 3 11-1v-17l-13-2zm-1039 16h36l-1-30-34-2zm636-9l20 2 2-2v-21l-21-2zm65 3l20 1v-21l-19-2zm25 1l19 2 1-2v-19l-18-3zm384-4l26 2 2-2-1-16-27-2zm-943 15h32l-1-28-30-2zm991-12l12-1v-14l-12-3zm14-1l8 3 4-1v-16l-11-1zm-330 8l5 2 13-1v-19l-17-2zm376-3h9l2-11-3-6h-8zm-938 12l29-1-2-26-27-1zm584-8l17 1v-19l-16-2zm-550 8l3 2h26l1-20-2-7-26-2zm603-4h15v-19l-14-2zm19 0l16 1v-18l-15-2zm-521 7l8 3 19-1v-24l-26-2zm33 3h25v-24l-24-2zm61 2h24v-23l-23-2zm522-7l15-1-1-16-13-1zm-493-15l2 24 22-1v-22l-21-3zm511 16h14v-16l-13-2zm-454 9l21 2 2-2v-22l-21-2zm-861 14l41 1 3-4-2-31-42-3zm1383-20l3 2 10-1v-16l-12-2zm-495 6l22 2v-23l-21-1zm543-3h12v-15l-11-2zm-477 6l21 1v-21l-20-2zm25 1l20 1v-21l-18-2zm497-5h12l-1-15-10-1zm16 2l9-1 1-10-2-6h-8zm-1249 17l35 2 3-2-2-30-35-1zm876-9l17 1v-19l-16-2zm21 0l17 2v-19l-15-2zm-726 14l31-1-1-28-30-2zm71-28h-33v28l29 4h-13l-4 5h-30l-2 28 32 2 7-2 12 7-3 4h-28l1 29h29l4-19 27-1v-24l14-3v-25l-14-5 1-24-12-2-4-5h-4zm708 18h15l1-17-2-3-13-1zm18-17l2 18 15-1v-18l-14-2zm-647 30h28v-28h-28zm35 1l28-2v-24l-28-3zm707-11l14 1v-17l-13-2zm70 4h28l-1-17-26-2zm-677 9l25-1v-24l-26-1zm726-7l11-2v-14l-12-2zm13-16v14l12 1v-15l-9-2zm-647 25l23-1v-22l-24-2zm693-7l10-1v-15l-10-1zm18-2l2 3 5-2v-14l-5-1zm-627 10l22 1v-23l-21-1zm92 2l15 3 4 4-7 4v20l4 5-16 5v21l29 5-3 3-14 2v20l19 1 3-20 49 5-1-14-19-3-1-16-21-4v-17l-8-5v-15l-13-4v-21l-19-1zm163 4h17v-19l-15-2zm72 1l14 2 3-3-1-17-15-1zm20 1h15v-18l-14-1zm145 3l9 2 4-2v-15l-12-2zm15 0l3 2 11-1v-16l-12-2zm-1161 17h37l1-29-3-3h-35zm1211-14h26l-1-17-25-1zm-852 15l2 2 31 2 1-9-5-5v-15l-27-1zm101 1l27 1v-24l-25-2zm34 2l24-1v-24l-25-1zm60-1l24 1v-24l-23-1zm29-22l2 24 22-1v-23l-21-2zm58 24l22-1v-22l-22-1zm26-1l22 1v-23l-20-1zm66 1l16 3 5-2v-22l-19-2zm258 2l15 1 2-3-1-16-15-1zm20 0l16-1-1-17-14-1zm18-13v12l4 3 12-2v-17l-12-2zm125 14l11 2 2-2-1-17h-11zm64 1h11v-15l-10-2zm45-4l3-3v-8l-3-1zm14 5h11l-1-16-8-1zm-1499 32h43l2-3-2-31h-42zm51-2l2 2 42-2-2-32h-40zm52 2h39l2-32-40-2zm50 0l38-2-1-31h-38zm46-1l38-1-1-31h-37zm215-1l32-1v-28l-31-1zm151-1l28-1-1-27h-27zm35 0h26l2-3-1-24-26-1zm99-1l26-2-2-24h-23zm32 0l25-2-2-24h-23zm31 0l24-2v-22l-24-2zm28-23l2 23 23-2v-22l-22-2zm30 21l20 2 3-2v-22l-22-1zm28 0h23v-22l-22-1zm28 0h22v-22l-21-1zm347-2l16-1v-16l-15-2zm19 0l16-1v-16l-15-2zm19 0l14 1 2-3-1-16-13-1zm19 0h14v-18l-13-1zm113-10h4l-1-8h-9zm40 10l26-1-1-17h-25zm114-1l9 2 2-3-1-15-8-1zm-179 0l13-1-2-8-10-7zm124 0l11-1v-14l-9-1zm15 0l10-12-1-4h-9zm47 12l6-3v-5h-4zm-139-2l7 3 7 10 7 1v-8l-5-8-15-1zm27 9l9 4v-15l-10-1zm17 4l4 2 3-2v-15l-8-1zm41-9l4-6-4-1zm-212-3l1 16h14v-18l-11-1zm73 0l8 4 4-3-2-4h-10zm15 6l9 7 20 1-1-6-9-9-18-2zm-124 11l13 1 3-3-1-16-14-1zm19-1l13 1 2-3v-14l-14-2zm234-9h4l-1-8zm-550 16l21-1v-21l-19-1zm-150-20v22l19 2 5-2v-22l-14-2zm29 22h23v-23l-21-1zm30 1l21-2v-22l-22-1zm-150-21l1 23 25-1v-24l-23-1zm32 23h22l3-3-2-23h-22zm30-2h24v-23l-23-1zm-195-21v25h29v-26l-26-1zm35 24l7 4 21-4v-25l-26-1zm-183-23v27l33-1v-26l-5-2zm39 27l31-1-1-28h-28zm37-2l2 2 29-2-1-27h-28zm38 1l29-2-1-26h-28zm814-16l9-1v-3l-3-5-7-2zm-1283-8l-1 32 7 2 36-3v-30l-13-2zm97 31l39-1-1-31h-37zm-149 3l44-2-1-32h-42zm1475-30l1-3h-2zm46 9l1 14 9-1 1-14-8-2zm-41 14l10-13-1-3h-8zm-13-7l4-6-3-2zm-78-4l2 2 9 3-2-6-7-2zm-47 15l13-1v-14l-12-2zm15-10l2 11 26-1 2-8-10-8-7 2-11-3zm-86-2v13l2 3 13-2v-16l-8-2zm-17 15l13 1 2-3-1-15-13-1zm152-10l6 4 14 2 7-2v-4l-6 2-4-7-8 5-8-6zm64 3l7-1-2-8zm-365 12l5 2 12-2v-19l-15-1zm-163 6l20-1v-20l-19-1zm-120-18v22l23-1v-21l-4-2zm29 22l21-1v-22l-20-1zm-57-21l1 23 22-1v-23l-20-1zm-59 1v23h24l1-22-6-3zm-31 1v23l26-1v-22l-20-2zm-31 25l26-2-1-24h-24zm946 4l19 2 12 8v17l-3 3-21 3 6 28 5 10h6l23-25 6-1-1-38 6-4v-5l-15-22-33-5zm-1046-26l1 26 26-1 3-4 6 3 4-2-1-5-10-6-2-13h-21zm-34 27l28-2-1-26h-26zm935-9h8l3-3 11 2 1-5-6 1 5-12h-8l-2 4-3-4h-9zm-1087-14v27l33-1v-27l-15-1zm1043-1l4 7-5 3 1 7 10-1v-15l-6-2zm-16 5l11-1-1-4h-9zm-65 1l1 14 13-1v-15l-10-2zm-16 15l11 1 3-3-1-15-11-1zm-1161-15l2 31 35-1 2-31-25-1zm1091 1v17l15-1v-16l-6-2zm17 16h15v-17l-13-1zm-1306-13v33l43-1 2-30-1-3-6-1zm1194 20l15-2v-18l-14-1zm-53 1l6 2 11-2v-19l-15-1zm-21 2l17-1v-19l-16-1zm322-19l-1 4 10-1v-5h-4zm-462 25l4 2 16-2v-22h-18zm-25 2l21-1v-21l-19-1zm551-19l1 7 7 5 3-1v-11l-8-2zm-644 1l1 23 22-2v-22l-17-1zm-28 1v23l23-1v-23l-16-1zm627 0v6l-7 3-1-3 6-6h-11l-1 16h20l6-14v-3l-4-1zm-716 4v22l15 2 10-2 1-22-2-3h-9zm-30 0l-1 23 5 3 21-3v-24l-7-1zm652 1l-1 13-13-3 2-5 10-2-2-4h-10l-2 18 11 1 5-3 12 2 1-17-8-2zm-751 3v25l28-1v-25l-19-1zm699 1l1 16 14-1v-17l-12-1zm-734 1v24l16 2 13-2v-26l-12-1zm717 15l6 2 9-4-1-15-13-1zm-93 8l14-2v-18l-14-1zm-22 0l16-1v-18l-15-1zm-790-17v28l34-1v-28l-17-1zm737 3l1 17 17-1v-19l-10-1zm-21-1v19l5 2 13-3v-18l-8-2zm403 7l9-1-4 11 6-1v-14l-9-1zm-1291-2v29l8 2 30-3 1-28-3-3h-9zm772 1v21l11 1 9-3v-19l-11-2zm-25 1v21l4 2 16-3v-21l-6-1zm487 8l3 6h8v-10h-5v-5l-5-1zm-607-1v22l23-1v-22l-6-2zm511 15l13-1v-16l-11-1zm140-14l1 4 10-2-1-3-7-2zm-193 2v15l8 2 7-2v-17l-8-1zm-17 0v17l12 1 3-3v-15l-6-2zm-559 3v23l5 2 20-2 1-24-8-2zm483 2l-1 16 2 3 15-2v-18l-7-1zm-580 3v24l7 2 21-3v-25l-10-1zm562 18l14-2 1-17-15-2zm-596-17v26h25l4-4-1-23-15-1zm521 2l-1 17 2 3 16-2v-19l-6-1zm-22 2v19l18-1v-19l-15-1zm350 2l-1 14 8 1 10-3 1-3 3 4 5-2v-14l-11-1zm59-2l-1 10 17-2-1-9zm179 16l-3 18-8 5 7 4 3 6 6 2v4l-7 5 1 10-10 21-4 20 44-66v-3l-9-2 1-4h12l16 9 16 17 6 14h4l-3-7 2-8h6l12 12-1 5-10 1v4l6 2 1 4-25-4-2 4 13 5 1 4-15-2-5 14 24 2 4 6-14 11-14-3-8 19 17-2 9-5 8 12-1 6-4 3 4 6-2 3-7-1-20-16-5 1 6 12 23 11 2 5-27-5-12-11h-22l-3 5-10 4-34-3v-4l13-1 11-7 51-50 11-21-2-6 10-5-3-10-13-16-8-3 2 18 6 3-3 15-23 37-7 5 1-8 17-26 1-6-3-4-4 2-13 23-12 9-5-2-16 2 4-23 8-18-1-5-16 3-25-2-5 5h-5l-33-27-4 13 10 7 2 5 29 12 21 16-1 10 3 6-12-6-4 4 1 9-3 1 7 12-1 5 7 9-6 1 5 6v5l-5 5h-4l2-8-9 3 1 12 4-2 2 2 4 35-2 11 40 30 15-4 16-13 1 5-11 16-8 3-1-4h-3l4 9 12 5 20-28 2-7-11-7h-42l-9-4 2-4 8-2-5-4-10 1 9-4 1-8-7-4h-14l-2-4 14-2 5 3 9-1 61 17h14l3-3-1-5-17-7-13-1 2-7-3-9 3-1 10 11 28 9 14 18h4l5-15-2-9 3-9 5-7h9l3-6-5-23-31-11 2-3 10 1 8-8-2-13 9-6-5-29-23-21-2-7-7-2-9 2-5-26-13-15-9-3v9l-8 11-4 1-5-6 6-15-14-3zm-681-10v20l19-1v-20l-15-1zm-627 0l-6 3v26l14 2 21-3v-28l-9-1zm602 2v19l12 2 8-2 1-19-7-3zm387 1l-5-3-10 1-1 18h12l2-3 15 1v-17l-7-1zm-70 5l2 17 13-2v-17l-12-1zm-1053 1v29h32l6-3-1-29h-20zm1035 1v14l13 2 3-4-1-15-8-1zm-18 17l10 1 6-4-1-16h-13zm324-1l34 29 4-3 6-28-25-14-14-2zm-751-15v22l23-1v-22l-15-1zm408 0v18l16-2v-16l-10-2zm-20 8v10l3 3 14-3v-17l-14-1zm-19-4v17l13 1 4-4-1-16-8-1zm-458 2v23l25-1 1-22-5-3zm-31 3v22l6 2 20-3v-24l-4-1zm-714 1v33l44-3v-32l-17-1zm1087 2v20l18-1v-20l-7-1zm-471 3v24l28-2v-24l-15-1zm448-1v20l11 1 8-3v-18l-10-2zm508 10l-6 4-2 6 1 9-3 7 11 7 10 15 7-1 6 3-1 6 15 25 8 6 12-15-11 5-5-1-2-4 13-6 5-7 12 2v-4l-31-14-8 2-6-9-15-7-5-8-1-10 7-16-9-7zm-531-8v20l19-1v-20l-12-1zm-24 2v21l19-2v-20l-13-1zm-24 2v21l20-2v-20l-15-1zm636 16l2 8 37 6 6-4v-4l-12-8-13 1-4-11-10-6zm-1236-7v27l5 2 29-4v-27l-11-1zm-127 9v28l37-2v-29l-9-1zm333 13v26l28-2 1-24-4-3zm-186 16v27l33-3v-27l-10-1zm-40 3v28l34-3v-28l-8-1zm-85 7v28l36-2 1-28-14-2zm-44 3v30l37-3 1-29-8-2zm-244 19v33l43-3 2-31-2-3h-6zm1708 22l12 2v-5l-5-4zm-137-369l3 17h-4zm185 78h3l-2 5-22 7 1-3zm-30 4h7l-4 5-30 15-13 10-58 26 2-5 6-1v-6l4-5h5l1 5 6-1v-7l11-11 9 1zm-131 113l15 3v3h-10l-7-3zm-39 21l7 2 1 6-6 4zm-63 62l3 2-2 8-7 10-4-1zm-35 13l2 6-4 1zm-60-148l3 3-2 1zm266 206l21 7 2 6-8-2-8 10-8 1-3 7-7 1 6-25z"/>
</svg>