<svg version="1.2" xmlns="http://www.w3.org/2000/svg" viewBox="0 0 1779 1172" width="1779" height="1172"><style>tspan{white-space:pre}.a{fill:#fff}.b{font-size: 546px;fill: #000000;font-weight: 900;font-family: "ABCDiatypeRounded-Black", "ABC Diatype R"}</style><path  d="m913.5 10c-1.1 0.5-18.1 0.9-37.8 0.9-30.8 0.1-35.8 0.3-36.2 1.6-0.4 1.1-1.4 1.4-3.5 1q-3-0.5-3 0.7c0 1-1 1.1-4 0.5-2.6-0.4-3.8-0.3-3.5 0.3 0.3 0.6-1.2 1.4-3.3 2-2 0.5-4.3 1-5 1-0.6 0-1.2-0.4-1.2-1 0-0.6-0.7-1-1.5-1-0.8 0-1.5 0.7-1.5 1.5 0 0.9-0.9 1.5-2.5 1.5-1.4 0-2.5-0.6-2.5-1.3 0-0.6-0.5-0.4-1 0.6-0.6 0.9-1.9 1.7-3 1.7-1.1 0-2-0.6-2-1.3 0-0.6-0.5-0.4-1 0.6-0.6 0.9-1.9 1.7-3 1.7-1.1 0-2.1-0.4-2.3-1-0.1-0.6-4.2-0.3-10.4 0.8-7.7 1.3-10.5 2.2-11.6 3.7-1.2 1.6-2.6 2-6.9 1.9-2.9 0-5.6 0.4-6 1-0.4 0.6-4.4 2.1-8.8 3.4-4.4 1.2-8.5 2-9 1.7-0.5-0.3-1.1-0.1-1.2 0.3-0.2 0.5-5.9 2.5-12.8 4.6-6.9 2-13.3 3.4-14.2 3.1-1-0.3-5.6 0.7-10.3 2.3-4.6 1.5-8.2 2.9-8 3.2 0.3 0.3-0.1 1.1-0.8 1.8-0.7 0.8-2.3 1.1-4.2 0.7-2.4-0.5-3-0.2-3 1.2 0 1.4-0.8 1.8-3.5 1.8-1.9 0-4.9 0.4-6.5 0.8-1.9 0.5-3 1.4-3 2.5 0 1.3-0.8 1.6-3.7 1.5-3-0.2-3.7 0-3.3 1.2 0.3 0.9-0.4 1.9-1.5 2.5q-2 1-2.5 0c-0.3-0.6-1-1-1.5-1-0.5 0-1 0.7-1 1.5 0 0.8-1.2 2.2-2.7 3-1.8 0.9-3.1 1.1-3.8 0.4-0.5-0.5-1.8-0.7-2.7-0.4-1 0.3-1.8 1.2-1.8 2 0 0.8-2.1 2.6-4.7 4-3.3 1.6-5.1 2.1-5.8 1.4-0.7-0.7-2.4-0.4-5.2 1-2.4 1.2-4.2 2.6-4 3.3 0.1 0.6-1.6 2.2-3.8 3.5-2.2 1.3-4.9 2.1-6 1.9-1.1-0.3-2.8-0.1-3.7 0.5-1 0.5-1.6 1.3-1.3 1.9 0.3 0.6-0.2 1.4-1 2-0.8 0.6-2.2 0.8-3 0.5-0.8-0.3-2.4-0.1-3.5 0.5-1.1 0.6-1.8 1.6-1.5 2.5 0.3 0.8-0.3 1.9-1.2 2.5q-1.8 0.9-2.8-0.1c-0.5-0.6-1.6-0.8-2.2-0.5-0.7 0.3-1 1.2-0.7 1.9 0.3 0.7-1 2.2-3 3.5-2 1.2-4.5 2-5.6 1.7-1.5-0.4-2 0-2 1.5 0 1.4-2 3.2-6.7 6.1-3.8 2.2-7.4 3.8-8 3.5-0.7-0.3-2.6 0.2-4.3 1.2-1.6 0.9-3.1 2.6-3.2 3.7-0.2 1.5-1.1 2-3.3 2-2.3 0-3 0.5-3.5 2.5-0.4 1.8-1.3 2.5-3.1 2.5-1.3 0-3 0.3-3.6 0.8-0.7 0.4-1.3 1.5-1.3 2.5 0 0.9-1.6 3.1-3.7 4.8-2.1 1.7-6.8 5.4-10.5 8.2-3.8 2.9-7.3 5-7.8 4.7-0.5-0.3-1.9-0.1-3 0.5-1.3 0.6-1.8 1.6-1.5 2.8 0.3 0.9-0.1 2.3-1 3-0.8 0.6-2 1-2.5 0.7-0.5-0.3-2.1 0.5-3.5 1.8-1.4 1.2-2.5 2.9-2.5 3.7 0 0.8-1.7 3.3-3.8 5.6-2 2.2-5.2 5-6.9 6.2-1.8 1.2-3.9 1.9-4.5 1.6-0.7-0.3-1.9 0.2-2.5 1-0.7 0.9-1.1 2.1-0.8 2.6 0.3 0.5-0.5 2.1-1.7 3.5-1.3 1.5-2.9 2.3-3.8 2-0.8-0.3-2.3 0.4-3.2 1.5-1 1.1-1.6 2.5-1.3 3 0.3 0.5-0.1 1.7-0.7 2.5-0.7 0.9-2 1.6-2.8 1.5-0.8 0-2.7 1.3-4.2 3-1.6 1.6-2.6 3.5-2.3 4 0.3 0.5-2.8 4.6-6.7 9-4 4.4-7.9 8-8.5 8-0.7 0-3.9 2.7-7 6.1-3.2 3.4-5.8 6.9-5.8 7.8 0 1-2.2 4.7-5 8.4-3.1 4.1-5.6 6.4-6.5 6.2-0.9-0.3-2.7 1.2-4.5 3.7-1.6 2.3-5.5 6.9-8.5 10.2-3.1 3.4-7 8.1-8.7 10.6-1.7 2.5-4.5 7.6-6.2 11.5-1.9 4.4-2.7 7.4-2.2 8 0.6 0.6 0.2 2.2-1.2 4.3-1.3 1.9-2.7 3.1-3.4 2.8-0.7-0.3-1.5-0.1-1.8 0.4-0.3 0.5-0.1 1.6 0.5 2.3q0.9 1.2-0.5 3.5c-0.8 1.2-2.3 2.2-3.2 2.2-1 0-2.5 1.4-3.4 3.2l-1.6 3.3c-80.2 1.3-85.9 1.6-86.5 2.9-0.5 0.9-1.7 1.6-2.8 1.6-1.1 0-2-0.5-2-1 0-0.6-3.7-1-9-1-7.3 0-9 0.3-9 1.5 0 0.9-0.9 1.5-2.5 1.5-1.4 0-2.5-0.5-2.5-1 0-0.6-5-1-13-1-10.9 0-13 0.2-13 1.5 0 0.9-0.9 1.5-2.5 1.5-1.4 0-2.5-0.5-2.5-1 0-0.6-7.2-1-19.5-1-16.4 0-19.6 0.2-20 1.5-0.3 0.9-1.7 1.5-3.5 1.5-1.7 0-3-0.5-3-1.2 0-1-4.1-1.2-19.2-0.6-16.1 0.5-19.4 0.9-20.1 2.2-0.4 0.9-1.6 1.6-2.7 1.6-1.1 0-2.1-0.5-2.2-1.1-0.2-0.9-2.2-0.9-7.8-0.1-4.8 0.8-7.8 1.7-8.2 2.7-0.5 0.8-1.7 1.5-2.8 1.5-1.1 0-2-0.6-2-1.2 0-0.7-0.5-0.5-1 0.5-0.6 0.9-1.9 1.7-3 1.7-1.1 0-2-0.5-2-1 0-0.6-1.2-0.7-2.7-0.4-1.6 0.3-3.5 1.5-4.3 2.6-0.8 1-2.3 1.9-3.2 1.8-1 0-1.9-0.5-2-1-0.2-0.6-3.2 0-7.3 1.4-3.8 1.3-6.9 2.9-6.7 3.5 0.1 0.6-1.3 2.2-3 3.5-2 1.5-4.1 2.2-5.3 1.9-1.5-0.4-2.8 0.5-5 3.3-1.7 2.1-3 4.9-3 6.3 0 2-0.6 2.7-2.2 2.9-1.9 0.2-2.2 0.7-1.8 2.7 0.3 1.4 0.1 3.2-0.5 4-0.6 0.8-1.4 1.3-2 1-0.6-0.3-1.9 2.1-3.1 5.3-1.1 3.1-3.2 10.2-4.6 15.7-1.6 6.6-2.1 10.1-1.4 10.3 0.6 0.1 1.1 1.1 1.1 2.2 0 1.1-0.6 2.3-1.4 2.8-0.8 0.4-1.7 1.9-2 3.5-0.3 1.5-0.2 2.7 0.4 2.7 0.5 0 1 0.9 1 2 0 1.1-0.8 2.4-1.7 3-1 0.5-1.2 1-0.5 1 0.6 0 1.2 0.9 1.2 2 0 1.1-0.8 2.4-1.7 3-1 0.5-1.2 1-0.5 1 0.6 0 1.2 0.9 1.2 2 0 1.1-0.8 2.5-1.7 3.1-1.3 0.7-1.4 1.1-0.5 1.5 0.6 0.2 1.2 1.3 1.2 2.4 0 1.1-0.6 2.3-1.4 2.8-0.9 0.4-1.9 3.6-2.6 7.7-0.8 4.9-0.8 7.1-0.1 7.3 0.6 0.1 1.1 1.1 1.1 2.2 0 1.1-0.8 2.4-1.7 3-1 0.5-1.2 1-0.5 1 0.6 0 1.2 0.9 1.2 2 0 1.1-0.8 2.5-1.7 3.1-1.3 0.7-1.4 1.1-0.5 1.5 0.6 0.2 1.2 1.3 1.2 2.4 0 1.1-0.8 2.5-1.7 3.1-1.3 0.7-1.4 1.1-0.5 1.5 0.6 0.2 1.2 1.3 1.2 2.4 0 1.1-0.8 2.5-1.7 3.1-1.3 0.7-1.4 1.1-0.5 1.5 0.6 0.2 1.2 1.3 1.2 2.4 0 1.1-0.8 2.5-1.7 3.1-1.3 0.7-1.4 1.1-0.5 1.5 0.6 0.2 1.2 1.3 1.2 2.4 0 1.1-0.8 2.5-1.7 3.1-1.3 0.7-1.4 1.1-0.5 1.5 0.6 0.2 1.2 1.3 1.2 2.4 0 1.1-0.8 2.5-1.7 3.1-1.3 0.7-1.4 1.1-0.5 1.5 0.6 0.2 1.2 1.3 1.2 2.4 0 1.1-0.8 2.5-1.7 3.1-1.3 0.7-1.4 1.1-0.5 1.5 0.6 0.2 1.2 1.3 1.2 2.4 0 1.1-0.6 2.3-1.4 2.8-1 0.5-2.2 6.2-4.1 19.2-1.7 12-2.2 18.6-1.5 18.8 0.5 0.1 1 1.1 1 2.2 0 1.1-0.8 2.5-1.7 3.1-1.3 0.7-1.4 1.1-0.5 1.5 0.6 0.2 1.2 1.3 1.2 2.4 0 1.1-0.8 2.5-1.7 3.1-1.3 0.7-1.4 1.1-0.5 1.5 0.6 0.2 1.2 1.3 1.2 2.4 0 1.1-0.8 2.5-1.7 3.1-1.3 0.7-1.4 1.1-0.5 1.5 0.6 0.2 1.2 1.3 1.2 2.4 0 1.1-0.8 2.5-1.7 3.1-1.3 0.7-1.4 1.1-0.5 1.5 0.6 0.2 1.2 1.3 1.2 2.4 0 1.1-0.8 2.5-1.7 3.1-1.3 0.7-1.4 1.1-0.5 1.5 0.6 0.2 1.2 1.3 1.2 2.4 0 1.1-0.6 2.3-1.4 2.8-1 0.5-2.6 8.9-5.5 29.2-2.6 17.7-3.7 28.6-3.1 28.8 0.5 0.1 1 1.1 1 2.2 0 1.1-0.8 2.5-1.7 3.1-1.3 0.7-1.4 1.1-0.5 1.5 0.6 0.2 1.2 1.3 1.2 2.4 0 1.1-0.6 2.3-1.4 2.8-0.8 0.4-1.7 2.4-2 4.5-0.4 2.2-0.2 3.7 0.4 3.7 0.5 0 1 0.9 1 2 0 1.1-0.6 2.3-1.4 2.8-0.8 0.4-1.7 2.4-2 4.5-0.4 2.2-0.2 3.7 0.4 3.7 0.5 0 1 0.9 1 2 0 1.1-0.7 2.2-1.5 2.5-1 0.3-1.9 2.9-2.6 7.3-0.7 4.7-0.7 6.8 0 7 0.6 0.1 1.1 1.1 1.1 2.2 0 1.1-0.8 2.4-1.7 3-1 0.5-1.2 1-0.5 1 0.6 0 1.2 0.9 1.2 2 0 1.1-0.8 2.4-1.7 3-1 0.5-1.2 1-0.5 1 0.6 0 1.2 0.9 1.2 2 0 1.1-0.8 2.4-1.7 3-1 0.5-1.2 1-0.5 1 0.6 0 1.2 0.9 1.2 2 0 1.1-0.8 2.4-1.7 3-1 0.5-1.2 1-0.5 1 0.6 0 1.2 0.9 1.2 2 0 1.1-0.8 2.4-1.7 3-1 0.5-1.2 1-0.5 1 0.6 0 1.2 0.9 1.2 2 0 1.1-0.8 2.4-1.7 3-1 0.5-1.2 1-0.5 1 0.6 0 1.2 0.9 1.2 2 0 1.1-0.7 2.3-1.5 2.8-0.8 0.4-1.9 3.2-2.5 6.2-0.7 3.7-0.7 5.6 0 5.8 0.5 0.1 1 1.1 1 2.2 0 1.1-0.7 2.3-1.5 2.8-0.8 0.4-1.9 3.2-2.5 6.2-0.7 3.7-0.7 5.6 0 5.8 0.5 0.1 1 1.1 1 2.2 0 1.1-0.8 2.4-1.7 3-1 0.5-1.2 1-0.5 1 0.6 0 1.2 0.9 1.2 2 0 1.1-0.8 2.5-1.7 3.1-1.3 0.7-1.4 1.1-0.5 1.5 0.6 0.2 1.2 1.3 1.2 2.4 0 1.1-0.7 2.2-1.5 2.5-0.8 0.3-1.5 1.2-1.5 2 0 0.8 0.5 1.5 1 1.5 0.5 0 1 1.1 1 2.5 0 1.6-0.6 2.5-1.5 2.5-1 0-1.5 1.1-1.5 3.5 0 1.9 0.5 3.5 1 3.5 0.5 0 1 1.3 1 3 0 1.7-0.5 3-1 3-0.5 0-1 1.1-1 2.5 0 1.4 0.5 2.5 1 2.5 0.5 0 1 1.1 1 2.5 0 1.4-0.5 2.5-1 2.5-0.5 0-1 1.3-1 3 0 1.8 0.6 3.2 1.5 3.5 0.8 0.3 1.5 1.4 1.5 2.5 0 1.1-0.5 2-1 2-0.5 0-1 0.9-1 2 0 1.1 0.9 2.5 2 3 1.1 0.5 2 1.9 2 3 0 1.1-0.5 2-1 2-0.5 0-1 0.5-1 1 0 0.5 0.5 0.8 1 0.5 0.5-0.3 1.5 0.2 2 1 0.5 0.8 0.8 2.4 0.5 3.5-0.3 1.1 0 2.9 0.5 4 0.5 1.1 1.5 1.8 2 1.5 0.5-0.3 1.9 0.8 3 2.5 1.1 1.7 1.8 3.9 1.5 5-0.4 1.5-0.1 1.9 1.3 1.5 1-0.3 2.6 0.4 4 1.7 1.6 1.6 2 2.9 1.5 4.2-0.7 1.7-0.5 1.9 1.5 1.3 1.5-0.5 3.6 0.2 7 2.2 2.6 1.6 4.6 3.4 4.5 4-0.2 0.6 0.7 1.3 2 1.6 1.2 0.2 6.2 0.9 11.2 1.5 5.2 0.5 34.3 1 69.3 1 52.8 0 60.2-0.2 60.2-1.5 0-0.9 0.9-1.5 2.5-1.5 1.4 0 2.5 0.5 2.5 1 0 0.6 4.2 1 10.5 1 5.8 0 14.9-0.5 20.3-1.1 5.3-0.6 12-1.9 14.7-2.8 2.8-1 4.9-2.3 4.8-3-0.2-0.6 2.2-2.9 5.2-5.1 3-2.2 6.1-3.7 6.8-3.4 0.7 0.3 2.9-1.4 5-3.8 2.3-2.7 3.5-4.9 3.2-6-0.3-1 0.7-3.9 2.3-6.4 1.5-2.6 3.1-4.6 3.7-4.5 0.6 0.2 1.4-0.5 1.9-1.6 0.5-1 2-5 3.3-8.8 1.4-4.2 1.9-7.1 1.3-7.2-0.5-0.2-1-1.2-1-2.3 0-1.1 0.8-2.2 1.8-2.5 1.3-0.5 2.8-4.9 6.3-18.8 3.2-12.6 4.3-18.4 3.5-18.8-0.6-0.4-0.8-1.2-0.3-1.8 0.4-0.6 1.1-1.1 1.7-1.1 0.6 0 0.8 0.6 0.6 1.3-0.2 0.6 0.2 2.1 1 3.2 0.8 1.1 1.4 1.5 1.4 1-0.1-0.5 0.6-0.3 1.5 0.5 1 1 1.4 2.4 1.1 4-0.4 1.5 0.4 5.2 1.9 9 1.3 3.6 2.4 6 2.4 5.5 0-0.5 0.7-0.3 1.6 0.5q1.7 1.5 1 4c-0.4 1.5 0.3 4.9 1.7 8.7 1.3 3.4 2.6 6 3.1 5.7 0.4-0.2 1.5 0.8 2.4 2.4 1 1.5 1.8 4.5 1.8 6.7 0.1 2.2 0.9 5.5 1.8 7.3 0.9 1.7 2.1 3 2.7 2.7 0.6-0.3 1.4 0.2 2 1 0.6 0.8 0.8 2.3 0.5 3.3-0.4 1.1 1.2 3.4 5 7.2 3 3 7.6 6.7 10.2 8.3 3 1.7 5.6 2.5 7.1 2.2 1.2-0.3 3.6 0 5.2 0.5 1.6 0.5 3 1.7 3 2.5 0 0.8 0.4 1.5 1 1.5 0.6 0 1-0.5 1-1 0-0.5 0.9-1 2-1 1.1 0 2.4 0.9 3 2 0.6 1.1 1.7 2 2.5 2 0.8 0 1.5-0.5 1.5-1 0-0.6 1.7-0.8 4.3-0.4 2.3 0.3 4.6 1.2 5.2 2 0.6 0.7 2.8 1.8 5 2.5 2.9 0.8 4.1 0.8 4.3 0 0.1-0.6 1.1-1.1 2.2-1.1 1.1 0 2.4 0.9 3 2 0.7 1.4 2.3 2.2 5.3 2.5 3 0.4 5 1.4 7 3.5 1.5 1.7 2.4 3.2 2 3.5-0.5 0.3 0.2 0.3 1.5 0 1.9-0.4 2.6 0.4 5.2 5.8 1.7 3.4 3.7 6.9 4.4 7.7 0.8 0.8 2.3 3.3 3.4 5.5 1.1 2.2 2 4.9 2 6-0.1 1.1 1.7 5 4 8.8 2.3 3.7 4.6 6.7 5.2 6.7 0.6 0 0.9 0.5 0.8 1.2-0.2 0.7 0.3 1.3 1 1.5 0.6 0.2 1.5 0.3 2 0.3 0.4 0 2.6 2.8 4.9 6.2 2.3 3.5 8.1 10.8 12.9 16.3 4.7 5.5 9.1 11 9.8 12.3 0.9 1.9 0.8 2.5-0.4 3.1-1.3 0.7-1.2 1.1 0.5 2.2 1.1 0.8 2.1 2 2.3 2.7 0.1 0.6-0.2 1.2-0.8 1.2-0.6 0-1 0.5-1 1 0 0.5 0.8 0.8 1.8 0.5 0.9-0.3 2.6 0.3 3.6 1.2 1.1 1 1.6 1.2 1.3 0.6-0.4-0.7-0.1-1.3 0.6-1.3 0.6 0.1 2.5 1.7 4 3.8 1.6 2 4.8 5.7 7.1 8.2 2.3 2.5 6.3 6.9 8.9 9.8 2.6 2.8 4.5 5.7 4.2 6.2-0.3 0.5 0.2 1.6 1 2.3 0.9 0.6 1.3 1.9 1 2.7-0.3 0.8 0.3 2.3 1.5 3.3 1.1 0.9 2.5 1.5 3 1.2 0.5-0.3 1.7 0.1 2.5 0.8 0.9 0.6 1.6 1.9 1.5 2.7 0 0.8 1.3 2.7 3 4.3 1.6 1.5 3.6 2.4 4.3 2.1 0.7-0.4 3.2 1.5 6 4.2 2.6 2.7 4.7 5.7 4.7 6.7q0 1.7 1.8 1.2c0.9-0.3 2.3 0.1 3 0.7 0.7 0.7 1.3 1.9 1.2 2.6 0 0.6 2.8 3.8 6.1 7 3.4 3.1 6.9 5.6 7.8 5.5 0.9-0.1 4.6 2.2 8.4 5.2 3.7 3 6.5 6.1 6.2 6.8-0.2 0.6 1.6 2.7 4 4.5 2.6 1.8 5.2 3 6.3 2.7 0.9-0.3 2.3 0.1 3 0.7 0.7 0.7 1.3 2 1.2 2.8 0 0.8 1 2.1 2.2 2.9 1.3 0.7 2.9 1.1 3.6 0.7 0.6-0.3 6.2 2.6 12.2 6.4 8 5.1 11 7.5 11 9 0 1.5 0.5 1.9 2.3 1.6 1.2-0.3 3-0.1 4 0.5 0.9 0.5 1.5 1.6 1.2 2.4-0.3 0.8 0 1.7 0.5 2 0.5 0.3 1.6 0 2.3-0.5 0.8-0.7 2-0.4 4 1 1.5 1.1 2.6 2.6 2.5 3.3-0.2 0.7 0.6 1.1 2.2 1 1.4-0.2 3.5 0.4 4.8 1.2 1.2 0.8 2.1 2 2 2.7-0.2 0.7 0.9 1.2 2.7 1.3 1.7 0 4.3 0.8 5.8 1.8 1.5 0.9 2.5 2.2 2.2 2.7-0.3 0.5 1.9 2.2 4.8 3.6 3.5 1.7 5.5 2.2 6.2 1.5 0.7-0.7 2.5-0.2 5.8 1.4 2.6 1.4 4.7 3.2 4.7 4 0 0.8 0.8 1.7 1.8 2 0.9 0.3 2.2 0.1 2.7-0.4 0.7-0.7 2-0.5 3.8 0.4 1.5 0.8 2.7 2.2 2.7 3 0 0.8 0.5 1.5 1 1.5 0.5 0 1.2-0.5 1.5-1q0.5-1 2.5 0c1.1 0.6 1.8 1.6 1.5 2.5-0.4 1.2 0.1 1.4 2.3 1 1.5-0.3 4.4 0.1 6.5 1 2.8 1.1 3.6 1.9 3.1 3.3-0.5 1.5-0.2 1.6 2.5 1 2-0.5 4.5-0.3 6.9 0.6 2.2 0.8 3.7 2 3.7 3 0 1.3 0.6 1.6 3 1.1 2-0.3 7.3 0.9 16.5 4 7.4 2.5 18.2 5.9 24 7.6 5.8 1.7 11.1 3.8 11.8 4.7 1 1.3 3 1.7 8 1.8 4.9 0.1 7 0.6 7.9 1.8 0.9 1.1 2.2 1.4 4.5 1 2.6-0.4 3.7-0.1 5 1.5 1 1.2 2.3 2.1 2.8 2.1 0.5 0 1-0.5 1-1 0-0.5 1.1-1 2.5-1 1.7 0 2.5 0.6 2.6 1.8 0 0.9 0.2 1.1 0.5 0.5 0.2-0.7 1.3-1.3 2.4-1.3 1.1 0 2.4 0.8 3 1.8 0.5 0.9 1 1.1 1 0.5 0-0.7 0.9-1.3 2-1.3 1.1 0 2.3 0.6 2.7 1.4 0.5 0.8 2.5 1.7 4.5 2 2.3 0.4 3.8 0.2 3.8-0.4 0-0.5 2.2-1 5-1 3.8 0 5 0.4 5 1.5 0 1.1 1.2 1.5 5 1.5 2.7 0 5-0.5 5-1 0-0.5 1.4-1 3-1 1.7 0 3 0.5 3 1.3q0 1.2 5.8 1.4c3.1 0.1 7.9 0.8 10.6 1.5 2.7 0.7 5 1.9 5.2 2.6 0.2 0.6 1.1 1.2 1.9 1.2 0.8 0 1.7-0.7 2-1.5 0.3-0.8 1.4-1.5 2.5-1.5 1.1 0 2 0.5 2 1 0 0.5 1.1 1 2.5 1 1.4 0 2.5-0.5 2.5-1 0-0.5 1.1-1 2.5-1 1.6 0 2.5 0.6 2.5 1.5 0 1.3 2.1 1.5 12.8 1.5 7 0 14.8-0.3 17.5-0.7 2.7-0.5 4.7-1.3 4.7-2 0-0.7 1.1-1.3 2.5-1.3 1.4 0 2.5 0.5 2.5 1 0 0.5 1.1 1 2.5 1 1.4 0 2.5-0.5 2.5-1 0-0.5 0.9-1 2-1 1.1 0 2.2 0.7 2.5 1.5 0.3 0.8 1.4 1.5 2.5 1.5 1.1 0 2.2-0.7 2.5-1.5 0.3-0.8 1.4-1.5 2.5-1.5 1.1 0 2 0.5 2 1 0 0.6 2.7 1 6.2 1 4.8-0.1 6.6-0.5 7.5-1.8 0.8-1.3 2.6-1.7 6.7-1.7 3.1 0 5.6-0.5 5.6-1 0-0.5 1.9-1.3 4.2-1.8 2.4-0.4 4.5-0.4 4.8 0 0.3 0.5 5.1 0.7 10.7 0.6 7.4-0.2 10.3-0.6 10.3-1.5 0-0.8 3.7-2 10-3.3 8.9-1.8 10.2-1.8 11.1-0.5 0.8 1.3 1.1 1.3 1.9-0.2 0.8-1.4 1.8-1.7 4.2-1.3 1.8 0.3 4.1 0.3 5 0 1-0.3 1.8-1.1 1.8-1.7 0-0.7 3-2.2 6.7-3.2 3.8-1.1 8.9-2 11.4-2 3.2-0.1 4.5-0.5 4.3-1.3-0.2-0.7 1.2-2 3.1-2.8 1.9-0.8 4.4-1.5 5.5-1.5 1.1 0 2.2 0.6 2.4 1.3q0.4 1.2 0.5-0.3c0-1.1 2.5-2 8.3-3.3 4.6-1 9-1.5 9.8-1.1 0.8 0.3 3.6-0.2 6.2-1.2 2.6-1.1 5-2.7 5.3-3.6 0.4-1.5 1.3-1.7 5-1.3 3.8 0.4 4.7 0.2 5.5-1.5 0.7-1.5 1.7-1.9 3.7-1.6 1.6 0.3 4.3-0.1 6.1-0.7 1.8-0.7 3.2-1.8 3.2-2.4 0-0.7 2.8-2.7 6.2-4.4 3.9-2 6.4-2.7 6.5-2 0.2 0.6 1 1.1 1.8 1.1 0.8 0 1.6-0.8 1.8-1.7 0.2-1.1 2.5-2.7 6.3-4.1 3.2-1.2 9.5-4 13.9-6.1 4.9-2.4 8.4-3.6 9-3 0.5 0.5 1.8 0.7 2.7 0.4 1-0.3 1.5-1.1 1.2-1.7-0.3-0.8 1.3-2.4 4-4 2.5-1.6 5.3-2.6 6.1-2.3 0.8 0.3 2.6-0.2 4-1 1.5-0.9 2.3-2.1 2-3-0.3-1 1-2.3 3.7-3.9 2.9-1.7 4.7-2.2 5.5-1.5 0.7 0.5 1.9 0.6 2.5 0.1 0.7-0.4 1.3-1.4 1.3-2.2 0-0.8 1.4-2 3.1-2.5 1.7-0.5 3.2-1.3 3.2-1.8 0.1-0.4 0.2-1.2 0.2-1.7 0-0.5 1-1.3 2.2-1.7 1.3-0.4 3.1-0.6 4-0.5q1.8 0.2 1.8-1.8 0-2 4-4c2.2-1.1 4.8-1.8 5.7-1.5 1.1 0.3 2.8-0.5 4.3-2.1 1.4-1.4 2.5-3.2 2.5-3.9 0-0.8 2-2.8 4.5-4.5 2.5-1.6 6.4-4.6 8.7-6.5 2.8-2.3 5-3.3 6.3-3 1.5 0.4 1.9 0.1 1.5-1.3-0.4-1.2 0.8-2.6 4-5 2.5-1.7 5.2-3 6-2.7 0.8 0.3 2.2 0.3 3 0 0.8-0.3 1.5-1.3 1.5-2.2 0-1 1.2-3 2.7-4.6 1.6-1.5 3.1-2.4 3.5-2 0.4 0.5 2.2-0.5 4-2.1 1.8-1.6 3.2-3.5 3-4.3-0.1-0.7 0.1-1.3 0.5-1.3 0.5 0 2.6-1.5 4.8-3.4q4-3.5 6-2.9c1.1 0.2 2.7-0.2 3.5-1.1 0.8-0.9 1.2-2 0.8-2.4-0.4-0.4-0.1-1.9 0.7-3.5 0.9-1.5 2.3-2.7 3.5-2.7q2 0 2-2c0-1.1 1.3-2.9 3-4 1.7-1.1 3.6-1.7 4.2-1.4 0.7 0.3 2.9-1.1 4.8-3 1.9-2 4.2-3.6 5.1-3.6 0.8 0 2-0.6 2.7-1.3 0.7-0.6 1.2-1.8 1.2-2.4 0-0.7 2.6-4.2 5.7-7.8 4.7-5.3 6.2-6.4 7.8-5.9 1.7 0.6 1.9 0.4 1.2-1.2-0.4-1.1-0.2-2.4 0.5-3.2 0.7-0.7 2.1-1.3 3-1.2 1.2 0 1.6-0.5 1.3-1.5-0.3-0.8 0.7-3.1 2.2-5 1.6-2 3.5-3.6 4.3-3.5 0.8 0 2.7-1.2 4.3-2.7 1.5-1.6 2.5-3.5 2.3-4.3-0.3-0.8 2-4.8 5.2-9 3.7-4.9 6.5-7.6 8-7.8 1.2-0.1 3.2-1.7 4.4-3.4 1.2-1.8 3.7-4.9 5.5-6.8 1.9-1.9 3.6-4.4 4-5.5 0.3-1.1 2.3-3.7 4.4-5.8 2.2-2 3.9-4.4 3.9-5.2 0-0.8-0.5-1.5-1-1.5-0.5 0-0.9-1-0.8-2.3 0.2-1.5 1-2.2 2.4-2.2 1.1 0 2.7-0.5 3.5-1.1 0.8-0.7 2.5-3.5 3.9-6.3l2.5-5.1c95.2 0 101.5-0.2 101.5-1.5 0-0.9 0.9-1.5 2.5-1.5 1.4 0 2.5 0.5 2.5 1 0 0.5 1.6 1 3.5 1 2.2 0 3.7-0.5 4-1.5 0.3-0.8 1.4-1.5 2.5-1.5 1.1 0 2 0.5 2 1 0 0.5 0.7 1 1.5 1 0.8 0 1.7-0.7 2-1.5 0.3-0.8 1.4-1.5 2.5-1.5 1.1 0 2 0.5 2 1 0 0.6 1.5 0.8 3.7 0.4 2.1-0.3 4.1-1.2 4.5-2 0.5-0.8 1.7-1.4 2.8-1.4 1.1 0 2 0.5 2 1 0 0.6 1.4 0.8 3.2 0.4 1.8-0.3 4-1.5 4.8-2.5 0.8-1.1 2.3-2 3.2-1.9 1 0 1.9 0.4 2 0.9 0.2 0.6 2 0.6 4.8 0 2.8-0.5 4.7-1.5 5.1-2.6 0.3-1 2.1-2.1 4-2.5 2.1-0.5 3.6-0.4 3.9 0.2 0.3 0.7 3.2 0.1 7.7-1.5 4-1.4 7.1-3 6.8-3.5-0.3-0.5 0.2-1.5 1-2 0.8-0.5 2.4-0.8 3.5-0.5 1.1 0.3 3.1-0.1 4.5-0.8 1.3-0.6 2.2-1.5 2-2-0.3-0.4 1-1.6 2.7-2.7 2-1.2 4.3-1.8 5.8-1.5 1.7 0.3 4-0.5 7.2-2.5 2.7-1.7 4.6-3.5 4.3-4-0.3-0.5 1.6-2.4 4.2-4.2 2.7-1.7 7.8-5.3 11.5-8 5.2-3.7 7.3-4.6 9-4.1 2 0.6 2.2 0.4 1.5-1.3-0.4-1-0.3-2.5 0.3-3.2 0.7-0.8 1.9-0.9 3.7-0.5 2.3 0.7 2.6 0.6 1.9-1.2-0.4-1.2-0.2-2.5 0.6-3.3 0.7-0.6 2.1-1 3-0.7 1.3 0.4 4.9-2.6 12.3-10 7.5-7.5 10.3-11 10-12.3-0.3-0.9 0-2.3 0.7-3 0.8-0.7 2.1-0.9 3.2-0.5 1.8 0.7 1.9 0.5 1.3-1.9-0.5-2-0.3-3.1 0.8-3.8 0.8-0.5 2-0.8 2.5-0.5 0.5 0.3 2.1-0.7 3.5-2.3 1.3-1.5 2.2-3.5 2-4.5-0.3-0.9 0.4-3 1.5-4.7 1.1-1.7 3-3.1 4.2-3.3 1.8-0.1 2.3-0.8 2.3-3.2 0-2.4 0.5-3.1 2.2-3.3 1.5-0.1 3.4-1.9 5.3-5 1.7-2.6 2.8-5.4 2.4-6.2-0.3-0.8 1.8-5.4 4.9-10.5 2.9-5 5.9-9 6.5-9 0.6 0 1.8-0.9 2.5-2 0.8-1.1 4-7.1 7.1-13.3 3.4-6.8 5.4-12 5.1-13.2-0.3-1.1 0.2-3.1 1-4.5 0.8-1.4 2-2.3 2.5-2 0.5 0.3 2.2-2.3 3.6-5.8 1.6-3.7 2.4-7.1 2-8.5-0.3-1.2-0.1-2.9 0.4-3.7 0.6-0.8 1.5-1.2 2.2-0.8 0.9 0.6 1-0.1 0.4-2.7-0.5-2.6-0.3-3.9 0.9-5 0.9-0.8 1.6-1 1.6-0.5 0 0.5 1.6-3.5 3.5-9 2.2-6.5 3-10.2 2.3-10.5-0.6-0.3-0.8-1.5-0.5-2.8 0.3-1.2 1.2-2.2 1.8-2.2 0.7 0 2.1-2.5 3-5.7 1.1-3.8 1.4-6 0.7-6.3-0.6-0.3-0.8-2.1-0.5-4.3 0.4-2.3 1.3-4.1 2.6-4.7 1.5-0.7 2.4-3 3.5-8.3 1-4.7 1.2-7.3 0.5-7.4-0.5-0.2-1-1.1-1-2 0-1 0.8-2.5 1.8-3.3 1.2-0.9 2.3-4.1 3-8.5 0.7-3.9 1.5-8.2 1.7-9.8 0.3-1.5 0-2.7-0.5-2.7-0.5 0-1-0.9-1-2 0-1.1 0.8-2.4 1.7-3 1-0.5 1.2-1 0.5-1-0.6 0-1.2-0.9-1.2-2 0-1.1 0.6-2.3 1.4-2.7 0.7-0.5 1.6-2.9 2-5.5 0.4-3 0.2-4.8-0.4-4.8-0.5 0-1-0.9-1-2 0-1.1 0.7-2.2 1.5-2.5 0.8-0.3 1.5-1.4 1.5-2.5 0-1.1-0.5-2-1-2-0.5 0-1-1.1-1-2.5 0-1.6 0.6-2.5 1.5-2.5 0.9 0 1.5-0.9 1.5-2.5 0-1.4-0.5-2.5-1-2.5-0.5 0-1-1.1-1-2.5 0-1.6 0.6-2.5 1.5-2.5 1.1 0 1.5-1.2 1.5-5 0-2.7-0.5-5-1-5-0.5 0-1-1.4-1-3 0-1.6 0.6-3.1 1.2-3.3 1-0.3 1.3-4.4 1.3-16.2 0-11.8-0.3-15.9-1.3-16.2-0.6-0.1-1.2-1.7-1.2-3.3 0-1.6 0.5-3 1-3 0.6 0 0.8-3.2 0.4-8.8-0.4-5.9-1.1-8.9-2-9.4-0.8-0.5-1.4-1.7-1.4-2.8 0-1.1 0.6-2 1.2-2 1 0 1.1-1.1 0.5-4.2-0.4-2.4-1.5-4.6-2.3-5-0.8-0.5-1.4-1.7-1.4-2.8 0-1.1 0.5-2.1 1.1-2.2 0.7-0.2 0.7-1.7 0-4.8-0.6-2.5-1.7-4.8-2.6-5.2-0.8-0.5-1.5-1.7-1.5-2.8 0-1.1 0.4-2.1 0.9-2.2 0.5-0.2 0.7-1.8 0.5-3.5-0.3-2.1-1-3.3-1.9-3.3-0.8 0-1.8-1-2.1-2.2-0.3-1.3-0.1-2.5 0.5-2.8 0.7-0.4 0.7-1.7 0-4.5-0.6-2.2-2.4-7.7-4-12.3-1.6-4.5-3.4-8-3.9-7.7-0.5 0.3-1.7-0.6-2.5-2-0.9-1.5-1.2-3.4-0.8-4.7 0.5-1.7 0.3-2.1-0.5-1.5-0.7 0.4-1.8-0.3-2.7-1.8-0.8-1.4-1.3-3.2-1-4 0.3-0.8-0.5-3.3-1.8-5.5-1.3-2.4-2.9-4-4-4-0.9 0-2.4-1.1-3.2-2.5-0.8-1.4-1.3-3.2-1-4 0.3-0.8-1-3.3-2.8-5.5-2-2.5-3.8-3.8-4.7-3.5-0.9 0.3-3.4-1.4-6.3-4.2-3.7-3.8-4.6-5.2-4-6.8 0.7-1.6 0.5-1.8-1.5-1.2-1.7 0.5-3.8-0.5-9.5-4.6-3.9-2.9-8.4-6-10-7-1.5-0.9-2.7-2.6-2.7-3.7 0-1.1-0.6-2.1-1.3-2.1-0.6-0.1-2.3-0.2-3.7-0.3-1.7-0.1-2.6-0.7-2.8-2.1-0.1-1.1-1.7-2.8-3.7-3.7-1.9-1-4.1-1.5-4.8-1.2-0.6 0.3-3.1-0.6-5.5-2-2.3-1.4-4-3.1-3.7-3.6 0.3-0.5-1.4-2.2-3.8-3.7-2.3-1.4-6.8-3.9-10-5.5-3.3-1.6-6.7-2.6-8-2.3-1.2 0.2-3.8-0.4-5.7-1.3-1.9-1-3.4-2.2-3.3-2.8 0.1-0.5-3-1.9-7-3.1-4-1.2-8.4-2.4-10-2.7-1.5-0.3-2.7-0.2-2.7 0.4 0 0.5-0.8 1-1.8 1-0.9 0-2.4-0.8-3.2-1.8-1.1-1.3-4.3-2.1-12.5-3.1-8-1-11.1-1-11.3-0.2-0.1 0.6-1.1 1.1-2.2 1.1-1.1 0-2.2-0.7-2.5-1.5-0.3-1-1.8-1.5-4-1.5-1.9 0-3.5 0.5-3.5 1 0 0.5-0.9 1-2 1-1.1 0-2.2-0.7-2.5-1.5-0.4-1.2-2.3-1.5-8.5-1.5-4.7 0-8 0.4-8 1 0 0.5-1.1 1-2.5 1-1.6 0-2.5-0.6-2.5-1.5 0-1.2-1.4-1.5-6.5-1.5-3.7 0-6.5 0.4-6.5 1 0 0.5-1.1 1-2.5 1-1.6 0-2.5-0.6-2.5-1.5 0-1.3-7.5-1.5-61.5-1.5-53.8 0-61.6 0.2-62 1.5-0.3 0.8-1.4 1.5-2.5 1.5-1.1 0-2-0.5-2-1 0-0.5-2-1-4.5-1-3.4 0-4.8-0.5-5.8-2-0.6-1.1-1.9-2-2.7-2-0.8 0.1-5.1-5.5-9.8-12.5-4.5-6.9-8-13.2-7.7-14 0.3-0.8-0.2-2.6-1-4-0.8-1.4-2.3-2.5-3.3-2.5-0.9 0.1-2.9-1.5-4.5-3.5-1.8-2.3-2.5-4.1-2-5.2 0.7-1.3 0.4-1.5-1.2-1-1.6 0.5-2.8-0.6-6.8-6.3-2.6-3.9-4.5-7.7-4.2-8.5 0.3-1-0.1-1.5-1.3-1.5-0.9 0.1-2.3-0.6-3-1.5-0.6-0.8-1-2-0.7-2.5 0.3-0.5-0.7-2.4-2.3-4-1.6-1.8-3.3-2.8-4.2-2.5-0.8 0.3-2.1 0-2.8-0.7-0.6-0.7-1-2.1-0.7-3 0.3-1.2-0.1-1.8-1.3-1.8-0.9 0.1-2.6-0.9-3.7-2.1-1.1-1.2-2.1-2.9-2.2-3.8-0.2-0.9-2.6-4-5.5-6.9-2.9-2.9-6-5.2-6.8-5.2-0.8 0-2.5-1-3.7-2.2-1.3-1.3-2.3-3.1-2.3-4 0-1.3-0.5-1.6-1.8-1.3-0.9 0.3-2.3-0.1-3-1-0.6-0.8-0.9-2.1-0.6-2.7 0.4-0.8-1.8-3.7-5.2-7.1-3.6-3.5-6.5-5.5-7.4-5.2-0.9 0.3-2.4-0.7-3.8-2.5-1.2-1.6-1.9-3.6-1.6-4.2 0.3-0.7-0.9-2.8-2.7-4.6-2.2-2-4.1-3-5.2-2.7-0.9 0.3-3-0.4-4.7-1.5-1.9-1.2-3-2.9-3-4.2 0-1.5-2.2-4.5-6.5-8.5-3.6-3.5-7.5-6.6-8.8-6.9-1.2-0.4-2.8-0.4-3.4 0-0.7 0.3-2.2-0.1-3.3-0.9-1.4-1-1.8-2.1-1.3-3.2 0.6-1.4 0.4-1.6-1-1-1.2 0.5-3.3-0.4-6.7-2.8-3.1-2.2-5.1-4.3-5.3-5.7-0.1-1.8-0.8-2.2-2.7-2.1-1.7 0.2-6.3-2.2-14.3-7.5-6.6-4.3-11.8-8.4-11.7-9.2 0-0.8-0.8-2.2-1.8-3-0.9-0.8-4.2-2.5-7.2-3.7-3.6-1.5-5.8-1.9-6.5-1.3-0.7 0.7-2.5 0-5.2-2-2.4-1.7-7.5-4.6-11.3-6.5-6.1-3-6.9-3.8-6.5-5.7 0.4-1.9-0.3-2.7-4.3-4.6-3.3-1.7-5.6-2.2-7.9-1.8-2.1 0.4-4.4 0-6.3-0.9-1.8-0.9-3-2.3-3-3.5 0-1.5-1.6-2.7-6.2-4.8-3.5-1.6-8.1-3.3-10.3-3.7-2.2-0.5-5.6-0.9-7.5-1-2.7 0-3.4-0.4-3.2-1.7 0.2-1.5-0.5-1.8-4-1.5-3.6 0.2-4.3-0.1-4.3-1.6 0-1.4-0.6-1.7-3-1.2-1.9 0.4-3.5 0.1-4.2-0.7-0.7-0.7-1-1.7-0.5-2.1 0.4-0.5-1.5-0.7-4.3-0.5-3.9 0.2-5 0-5-1.2 0-0.8-0.9-1.9-2-2.4-1.1-0.4-5.2-1-9-1.2-3.8-0.2-7.2-0.7-7.5-1.1-0.3-0.4-1.8-0.9-3.5-1-1.7 0-6.2-0.9-10-1.8-3.8-0.9-8.5-2.3-10.2-3.1-2.5-1.1-3.2-1.9-2.8-3.4 0.4-1.5-0.1-2.1-1.7-2.5-1.3-0.2-5.1-0.5-8.5-0.7-3.5-0.2-6.3 0-6.3 0.5 0 0.4-1 0.7-2.2 0.7-1.3-0.1-2.9-0.8-3.5-1.8-1-1.4-1.4-1.4-2-0.4-0.6 1-2 1.2-5.3 0.7-2.5-0.4-4.7-1.1-5-1.5-0.3-0.4-2.4-1-4.7-1.4-3.1-0.4-4.3-0.3-4.3 0.7 0 0.9-1 1-3.7 0.5-2.1-0.4-4.4-1.4-5-2.3-0.7-0.8-1.8-1.3-2.3-1-0.5 0.3-3 0.2-5.4-0.2-2.5-0.5-4.3-1.1-4-1.5 0.2-0.5-1.3-0.7-3.3-0.7-2.1 0.1-5.2-0.2-6.8-0.6-1.6-0.5-3.2-1.1-3.5-1.5-0.3-0.4-1.5-1-2.7-1.4-1.3-0.3-2.3-0.2-2.3 0.4 0 0.6-1.4 1-3 1-1.6 0-3.1-0.4-3.2-0.9-0.2-0.5-4.8-1.6-10.3-2.6-5.5-0.9-11.9-2.3-14.2-3.1-2.4-0.8-5.3-1.4-6.5-1.3-1.3 0-3.2 0.4-4.3 0.9z"/><path fill-rule="evenodd" class="a" d="m926 35h17.8c9.7 0.1 21.1 0.5 25.2 1 4.1 0.5 12 1.4 17.5 2 5.5 0.6 11.8 1.7 14 2.5 2.2 0.7 8.7 2.3 14.5 3.5 5.8 1.2 14.2 3.1 18.8 4.1 4.5 1 9.7 1.9 11.4 2 1.8 0 6 1 9.3 2.3 3.6 1.4 6.1 2.9 6.2 3.9 0.3 1.6-5 1.7-133.7 1.7v6h76.5c60.4 0 76.6-0.3 76.8-1.2 0.3-1 1.4-1 5.3 0 2.7 0.7 6.9 2.3 13.7 5.7l0.2 15.5h-3c-1.7 0-3.3-0.3-3.7-0.7-0.5-0.5-0.3-1.2 0.2-1.8 0.6-0.6 0.9-3.2 0.5-11l-9.5-0.3c-7.6-0.2-9.8-0.6-10.8-2-1.2-1.6-1.4-1.6-2.5 0-1 1.4-2.8 1.7-17.7 1.8l0.5 13.5-50.5 0.3c-37.9 0.2-50.8 0.6-51.8 1.5-1 0.9-1.3 10.6-1.2 90.7l4.5 4.5c2.5 2.5 4.5 5.2 4.5 6 0 0.8 1.2 2.6 2.7 4 1.6 1.4 3.5 2.6 4.3 2.6 0.8 0 2.5 1.1 3.7 2.4 1.3 1.4 3.2 2.5 4.3 2.5 1.1 0 2.2 0.7 2.5 1.5 0.3 0.8 1.6 1.5 3 1.5 1.4 0 2.7 0.7 3 1.5 0.3 0.8 1.3 1.5 2.2 1.5 1 0 3.5 1.6 9.3 7v87.5l4.5 4.6 161-0.1 4.6-4.5-0.1-197-4-2.3c-2.2-1.2-4.2-2.2-4.5-2.2-0.3 0-0.6 44.2-1 196.5h-151l-0.2-5c-0.2-2.9-0.9-5.6-1.8-6.5-0.9-0.8-1.6-2.1-1.5-2.8 0-0.6 0.7-1.4 1.5-1.7 1.3-0.4 1.5-5 1.6-32.3 0-27.9-0.2-31.9-1.6-33.2-0.9-0.8-1.6-2.7-1.5-4.3 0-1.7-1.2-3.9-3.3-6.2-2.5-2.7-4-3.4-7-3.5-2.4 0-3.9-0.5-4.2-1.5-0.3-0.8-1.5-1.5-2.8-1.5-1.2-0.1-3.3-1.4-4.7-3.1-1.4-1.6-3.2-2.9-4-2.9-0.8 0-4.3-2.8-7.8-6.3-3.4-3.4-6.2-6.9-6.2-7.7 0.1-0.8-0.6-2.2-1.5-3-1.4-1.3-1.6-6-1.5-39.5 0-34.6 0.2-38.2 1.8-39.8 1.6-1.7 6.7-1.8 93.2-1.7 60 0 93.7 0.4 98 1.1 3.6 0.6 7.8 1.7 9.5 2.5 1.7 0.8 5 2.5 7.5 3.9 2.5 1.4 7.1 4.5 10.3 6.8 3.1 2.3 5.7 4.5 5.7 4.9 0 0.5-0.5 1-1 1.3-0.7 0.3-1 51.9-1 303l-2.9 5.5c-1.9 3.5-3.5 5.4-4.5 5.2-0.9-0.1-2.3 0.4-3.1 1-1.1 0.9-1.6 3-1.5 7 0 3.2-0.5 6.9-1 8.3-0.5 1.4-1.7 2.5-2.5 2.5-1.3 0-1.5-7.3-1.5-118.5l-4.5-4.6-161.5 0.1-2 2.2c-1.9 2.2-1.9 4.1-2 60.5 0 51.1-0.2 58.3-1.5 58.3-0.8 0-4.6-2.1-15.4-9.5l-0.2-210-3.4-3.3c-1.9-1.7-4.1-3.2-4.8-3.2-0.6 0.1-1.9-0.6-2.7-1.5-0.8-0.9-2.2-1.6-3-1.5-0.8 0-3.5-2-6-4.5-2.5-2.5-5.2-4.5-6-4.5-0.8 0-2.5-1-3.8-2.3-1.2-1.2-2.2-2.9-2.2-3.7 0-0.8-2-3.5-4.5-6-3.5-3.5-4.5-5.2-4.5-7.8 0-2-0.6-3.4-1.5-3.7q-1.5-0.5-1.5-4.5 0-4-1.5-4.5c-1.3-0.4-1.5-5.3-1.5-36 0-30.7 0.2-35.6 1.5-36 0.8-0.3 1.5-1.2 1.5-2 0-0.8-0.7-1.7-1.5-2-1-0.3-1.6-2.1-1.8-5.7-0.1-2.8-0.7-5.3-1.2-5.5-0.7-0.2-1 9.9-1 29 0 16-0.3 35.4-0.8 42.9-0.6 11.3-1 13.8-2.2 13.8-1.3 0-1.5-7.8-1.5-64 0-56 0.2-64.1 1.5-64.5 0.9-0.3 1.5-1.7 1.5-3.5zm-133.2 29.3c8.2 0.2 8.4 0.3 11.6 3.7 2.8 3.1 3.3 4.4 3.9 11 0.4 4.1 1.5 10.9 2.7 15 1.1 4.1 2 9.4 2 11.7 0 2.4 0.7 6.2 1.5 8.5 0.8 2.4 2.1 8.6 2.9 13.8 0.8 5.2 2.6 14.2 3.9 20 1.4 5.8 3.2 14.1 4 18.5 0.9 4.4 2 10.5 2.6 13.5 0.6 3 1.8 9.3 2.6 14 0.8 4.7 2.4 13.2 3.5 19 1.1 5.8 2.3 14.8 2.6 20 0.4 5.2 1 10.2 1.5 11 0.4 0.8 1.7 5.8 2.8 11 1.1 5.2 2.3 11.7 2.6 14.5 0.3 2.7 1.2 8.1 2 12 0.7 3.9 1.9 11.3 2.5 16.5 0.7 5.2 1.9 14 2.7 19.5 0.8 5.5 1.6 12.7 1.8 16 0.2 3.3 0.8 7.8 1.5 10 0.6 2.2 1.5 8.3 2 13.5 0.4 5.2 1.5 12.9 2.4 17 0.8 4.1 2.4 13.1 3.6 20 2 11.4 2 12.7 0.6 14.7-0.9 1.3-4.2 3.2-7.4 4.4-3.1 1.1-7.1 2.8-8.7 3.6-1.7 0.9-6 2.4-9.8 3.4-3.7 1.1-9 3-11.7 4.4-2.8 1.4-6.2 2.5-7.8 2.5-1.7 0-3.7-1-5.3-2.7-1.4-1.6-4.4-6.4-6.5-10.8-2.1-4.3-5.5-10-7.5-12.5-2-2.5-4-5.6-4.4-7-0.4-1.4-2-5-3.5-8-1.5-3-4.1-8-5.9-11-1.8-3-4.3-6.6-5.6-8-1.3-1.4-6.2-9.5-11-18-4.8-8.5-10.8-18-13.4-21-2.6-3-6.1-8-7.8-11-1.6-3-6-10.5-9.6-16.5-3.6-6-8.2-13.3-10.2-16-2-2.8-5.9-8.6-8.7-13-2.8-4.4-7.2-11.1-9.7-14.8-2.5-3.8-6.4-9.9-8.7-13.5-2.2-3.7-6.7-11.2-9.9-16.7-3.2-5.5-7.9-12.7-10.4-16-2.5-3.3-6.5-9.6-8.9-14-2.4-4.4-5.9-9.6-7.7-11.5-1.8-1.9-6.2-8.2-9.8-14-3.6-5.8-8.6-13.6-11-17.5-2.5-3.9-5.7-9.7-7.2-13-2-4.4-2.5-6.8-2-9 0.4-1.7 2.8-5.1 5.6-7.8 2.7-2.6 7.9-6.1 11.6-7.8 3.8-1.7 8.8-4.5 11.3-6.2 2.5-1.7 9.7-5.5 16-8.5 6.3-3 13.3-6 15.5-6.7 2.2-0.7 9-3.4 15-5.9 6-2.6 17.7-6.9 26-9.7 8.2-2.8 16.1-5.7 17.5-6.4 1.4-0.7 7.9-2.5 14.5-4.1 6.6-1.5 13.6-3.1 15.5-3.5 1.9-0.4 7.2-0.7 11.8-0.6zm316.7 10.7c0.9 0 1.6 1.1 1.7 3 0.2 1.6 0.3 3.6 0.3 4.2 0 0.7-0.9 1.3-2 1.3-1.1 0-2-0.6-2-1.3 0-0.6 0.1-2.6 0.2-4.2 0.2-1.9 0.9-3 1.8-3zm7.4 4c0.9-0.1 2.2 0.6 2.8 1.5 0.7 0.8 1.1 1.9 0.8 2.5-0.3 0.6-1.8 1-3.5 1-1.7 0-3.2-0.4-3.5-1-0.3-0.6 0-1.7 0.6-2.5 0.6-0.8 1.9-1.5 2.8-1.5zm-57 1c0.3-0.1 1.2 0.6 1.8 1.5 1.1 1.2 1 1.6-0.5 2.1-0.9 0.3-2.3 0.3-3 0-0.9-0.4-0.9-1-0.1-2.1 0.6-0.8 1.4-1.5 1.8-1.5zm128.8 36c0.5 0 6.9 4.1 14.3 9.1 7.4 5 17.8 12.4 23 16.3 5.2 3.9 11 8.3 16 12.6v183l-6.6 7.2c-3.7 4-10.8 12.3-15.7 18.3-5 6-13.8 17.3-19.5 25-5.8 7.7-11 14-11.6 14-0.8 0-1.2-39.2-1.4-141.5-0.1-77.8 0-142.1 0.3-142.8 0.2-0.6 0.8-1.2 1.2-1.2zm-263.5 70.3c0.8 0 1.5 0.5 1.6 1.1 0.1 0.6 1.5 2.2 3.2 3.6 1.7 1.4 3.1 3.3 3 4.3 0 0.9 4.3 6 9.5 11.2 5.2 5.2 10.3 9.5 11.2 9.5 1 0.1 2.9 1.4 4.3 3.1 1.4 1.6 3.3 2.9 4.2 2.9 1 0 2.7 0.9 3.8 2 2 2 2 3.3 2 102 0 79.3-0.3 100-1.3 100-0.6 0-6.2-2-12.2-4.4-6-2.5-16.4-5.8-23-7.4-6.6-1.7-13.7-3.3-15.8-3.6-3-0.5-3.8-1.1-4.3-3.3-0.4-1.6-0.1-5 0.5-7.8 0.7-2.7 1.7-13.3 2.3-23.5 0.6-10.2 1.5-19 2-19.5 0.6-0.7 1.4-0.3 2.4 1 1.4 1.8 1.6 1.9 2.7 0.3 0.9-1.3 3.1-1.7 17.2-2.3l0.5-11.5h-5.5c-4.2 0-5.7-0.4-6.4-1.7-0.9-1.7-1-1.7-2.8-0.1-1 1-3.3 1.8-5.1 1.8-2.9 0-3.2-0.3-2.7-5.5l37-1 0.2-4.7c0.3-4.1-0.1-5.2-2.5-7.3-1.5-1.4-3.2-2.6-3.8-2.5-0.5 0-1.5 0.6-2.2 1.3-0.9 0.9-1.7 0.9-3.7-0.3-2.2-1.3-2.8-1.3-5 0-2 1.2-2.8 1.3-3.8 0.2-0.6-0.7-2.3-1.2-3.7-1.3-1.4 0-3.2 0.7-4 1.6-0.8 0.9-3 1.6-4.8 1.5-2.7 0-3.2-0.4-3.2-2.2 0-1.3 1.2-21.4 2.7-44.8 1.4-23.4 2.9-53.7 3.3-67.5 0.3-13.7 0.6-25 0.7-25.1 0 0 0.6-0.1 1.5-0.1zm352.7-0.1c0.8 0.2 8.2 7.5 16.5 16.3 8.3 8.9 18.9 20.6 23.4 26 4.6 5.5 13.1 16.3 18.9 24 5.8 7.7 13.4 18.4 16.9 23.8 3.5 5.3 6.4 10.4 6.4 11.2 0 1-1.3 1.7-3.8 2-2 0.2-9.8 0.7-17.2 1-7.4 0.4-17.1 1.3-21.5 2-4.4 0.8-11.4 2.6-15.5 4-4.1 1.4-11.7 4.8-16.8 7.5-5 2.8-9.4 5-9.7 5-0.3 0-0.5-15.1-0.5-33.5 0-21.7 0.4-33.5 1-33.5 0.6 0 0.9-3.9 0.7-10.1-0.1-5.5-0.5-10.3-1-10.5-0.4-0.2-0.7-5.1-0.7-10.9 0-6.6 0.5-11.3 1.2-12.6 1-1.7 1-2.2 0-2.5-0.6-0.2-1.3-2.1-1.4-4.2-0.1-2.1 0.3-4.2 0.7-4.6 0.5-0.4 1.6-0.5 2.4-0.4zm-25.4 4.8c0.9 0 1.5 0.9 1.5 2.5 0 1.6-0.6 2.5-1.5 2.5-0.9 0-1.5-0.9-1.5-2.5 0-1.6 0.6-2.5 1.5-2.5zm-0.3 32.3c1 0 1.5 1.2 1.6 3.9 0.2 2.8-0.2 3.8-1.3 3.8-1 0-1.6-1.2-1.7-3.8-0.1-2.8 0.3-3.9 1.4-3.9zm12.6 23.7c0.4 0 1.4 0.4 2.2 0.9 0.9 0.6 1.2 1.5 0.7 2.5-0.4 0.9-1 1.6-1.5 1.6-0.4 0.1-1.3-0.6-2-1.5-0.6-0.8-1-2-0.7-2.5 0.4-0.5 0.9-1 1.3-1zm-11.6 5c0.4 0 1 0.5 1.3 1 0.3 0.5 3.3 0.9 13 0.5l0.5 61-7.5 6.3c-4.1 3.4-8 6-8.5 5.7-0.6-0.3-1.1-13.8-1.2-36.8-0.1-20 0.2-36.7 0.7-37 0.5-0.4 1.2-0.7 1.7-0.7zm147.8 55.1c7.4 0 25.2 0.6 39.5 1.4 14.3 0.8 30.3 2.2 35.5 2.9 5.2 0.8 13.3 2.4 18 3.6 4.7 1.2 11.2 3.2 14.5 4.5 3.3 1.2 8.9 3.7 12.5 5.5 3.6 1.8 13 7.1 21 11.8 8 4.7 19.2 11.7 25 15.6 5.8 3.9 14 10.6 18.4 15.1 4.3 4.4 10.2 11.6 13.2 16 2.9 4.4 7.2 12 9.4 17 2.3 5 5.5 12.8 7 17.5 1.5 4.7 3.9 13.7 5.4 20 1.4 6.3 3.2 16 4 21.5 0.8 5.5 2 17.6 2.6 27 0.6 9.4 0.8 22.9 0.5 30-0.4 7.1-1.3 20.2-2.1 29-0.7 8.8-2.5 22.9-3.9 31.3-1.4 8.3-3.6 20.5-5 27-1.4 6.4-4.2 17.6-6.1 24.7-1.9 7.1-5.6 19.1-8.1 26.5-2.5 7.4-5.8 16.7-7.3 20.5-1.5 3.8-4.9 11.6-7.4 17.3-2.5 5.6-8.2 16.8-12.7 25-4.4 8.1-12.2 21-17.4 28.7-5.1 7.7-13.1 18.7-17.8 24.5-4.7 5.8-14 15.9-20.8 22.6-6.8 6.6-17.4 15.7-23.4 20.2-6 4.5-15.7 10.8-21.5 14.1-5.8 3.3-15.2 8-21 10.4-5.8 2.4-14.3 5.6-19 7-4.7 1.4-11.2 3.2-14.5 4.1-3.3 0.8-10 2.2-15 3.1-5 0.9-15.3 2.2-23 3-7.7 0.8-19.8 1.5-27 1.5-7.2 0-21.1-0.7-31-1.5-9.9-0.7-22-1.9-27-2.5-5-0.6-10.9-1.5-13.3-2.1-2.3-0.5-7-2-10.5-3.3-3.4-1.3-10.5-4.5-15.7-7.1-5.2-2.6-21-12.5-35-21.9-17.7-11.8-27.6-19.2-32.5-24.1-3.9-3.8-9.3-10.6-12-15-2.7-4.4-6.7-12-8.9-17-2.1-5-5.1-14.2-6.7-20.5-1.6-6.3-3.8-16.7-4.9-23-1.1-6.3-2.7-17.1-3.6-24-0.9-7.2-1.8-24.8-2.1-41.5-0.4-18.2-0.1-35.2 0.6-45.5 0.6-9.1 2.1-23.9 3.2-33 1.1-9.1 3.4-23.8 5-32.7 1.6-9 5.1-25 7.8-35.5 2.7-10.6 7.1-25.4 9.6-32.8 2.5-7.4 7.3-19.8 10.6-27.5 3.2-7.7 7.6-16.9 9.7-20.5 2.1-3.6 8-12.4 13.2-19.5 5.2-7.1 13.4-18 18.3-24 4.8-6 12.7-15.4 17.5-20.9 4.8-5.4 13-13.7 18.2-18.3 5.2-4.7 14.2-11.6 20-15.4 5.8-3.8 13.7-8.3 17.5-9.9 3.8-1.6 9.9-3.6 13.5-4.6 4-1 18.8-2.5 39-3.9 17.9-1.2 38.6-2.3 46-2.4zm-932 19.1c9.1-0.1 21.9 0.3 28.5 0.8 6.6 0.6 16.5 2 22 3.1 5.5 1.1 14.3 3.4 19.5 5.1 5.2 1.6 14.5 5.4 20.5 8.4 6 3 15.3 8.4 20.5 12.1 5.2 3.8 13.5 10.6 18.3 15.3 5 4.7 11.4 12.3 14.6 17 3.1 4.7 7.3 12.3 9.3 17 2 4.7 4.8 12.5 6.3 17.5 1.4 5 3.3 12.1 4.1 16 0.8 3.9 2.1 11.3 2.9 16.5 0.8 5.2 1.9 16.5 2.5 25 0.8 10.9 0.8 20.4 0 32-0.6 9.1-1.7 20.8-2.6 26-0.8 5.2-2.2 12.2-3 15.5-0.9 3.3-2.5 8.7-3.5 12-1.1 3.3-4.1 10.5-6.7 16-2.5 5.5-7.1 14.3-10.1 19.5-3 5.2-13.1 21.2-22.5 35.5-9.4 14.3-18.9 29.6-21.2 34-2.3 4.5-4.9 11.5-5.9 16-1.4 6.4-1.7 10.7-1.2 21 0.4 9.2 1.3 15.7 3 22.5 1.4 5.2 5.1 17.4 8.2 27 3.1 9.6 6.8 22.2 8.2 28 2.1 8.9 2.5 11.9 2 19.5-0.4 5-1.3 11.3-2.1 14-0.8 2.8-2.8 6.8-4.3 9-1.6 2.2-4.9 5-7.3 6.2-2.5 1.3-7.2 2.8-10.5 3.4-3.9 0.7-10.9 0.9-20 0.4-10.7-0.5-18.4-1.6-32.5-4.6-10.2-2.2-23.7-5.1-30-6.5-6.3-1.3-14.1-3.7-17.4-5.2-3.2-1.5-7.5-4.5-9.5-6.7-2.1-2.2-5.1-6.9-6.8-10.5-1.7-3.6-5.2-12.3-7.7-19.5-2.6-7.2-6.3-17.3-8.3-22.5-1.9-5.2-5.6-13.5-8.2-18.5-2.9-5.7-6.6-11-10.1-14.6-3-3.1-7.1-6.4-9-7.4-1.9-1-6.9-2.4-11-3.1-4.1-0.8-18.1-1.9-31-2.5-12.9-0.6-31.4-0.9-41-0.7-15.1 0.4-18.3 0.8-23 2.7-3 1.2-7 3.3-8.8 4.6-1.7 1.4-4.8 4.9-6.7 7.8-1.8 2.8-4.7 8.6-6.4 12.7-1.6 4.1-5.5 17.2-8.6 29-3 11.8-6.9 25.5-8.5 30.5-1.6 5-4.7 11.7-6.8 15-2.1 3.3-5.3 7.2-7.2 8.7-1.9 1.5-5.2 3.4-7.3 4.2-2 0.9-9.4 2-16.5 2.6-7 0.5-19.9 0.9-28.7 0.9-8.8 0-17.8-0.4-20-0.9-2.2-0.5-5.5-2-7.3-3.2-1.8-1.3-4.8-4.5-6.6-7.3-1.8-2.7-4.2-7.5-5.2-10.5-1.6-4.6-1.9-8.3-1.8-23 0.1-17.4 0.2-17.9 10.2-77 5.9-35 15.7-99.1 23.6-155.5 7.5-52.8 15.7-109.5 18.1-126 2.5-16.5 5.9-36.6 7.5-44.7 1.7-8.2 4.1-17.8 5.6-21.5 1.4-3.8 3.5-8.6 4.8-10.8 1.3-2.2 4-5.5 6-7.2 2.3-2.2 6.1-4 10.8-5.4 4-1.2 11.3-3 16.3-4.1 4.9-1.1 13.9-2.6 20-3.4 6.3-0.8 27.9-1.8 50.5-2.4 21.7-0.5 53-1.4 69.5-2.1 16.5-0.6 37.4-1.4 46.5-1.8 9.1-0.4 23.9-0.8 33-0.9zm685.5 4.3l0.5 147-3.5 12.5c-1.9 6.9-4.5 17.2-5.9 23-1.3 5.8-3.6 16.6-5 24-1.4 7.4-3.5 20.7-4.6 29.5-1.2 8.8-2.3 17.5-2.5 19.3-0.4 2.2-1 3.2-2.3 3.2-0.9-0.1-2.6 0.9-3.7 2.1-1.5 1.5-2.7 1.9-4.8 1.5-2.1-0.5-2.7-0.2-2.7 1.2 0 0.9-0.5 2.3-1.2 3-0.7 0.6-2.7 1.2-4.5 1.2-1.8 0-3.3 0.5-3.3 1 0 0.5-0.9 1-1.9 1-1.1 0-2.6 0.7-3.5 1.5-0.8 0.9-3.2 1.5-5.8 1.5-2.7-0.1-4.9 0.5-5.8 1.5-1.1 1.2-3.4 1.6-9 1.6-5.6 0-7.9-0.4-9-1.6-1-1-3.1-1.6-6-1.5-3.1 0-5-0.5-6.2-1.7-1.3-1.5-1.6-4.2-1.6-15.8 0-7.7-0.5-18-1.1-23-0.7-5-1.9-12.4-2.7-16.5-0.9-4.1-3.1-12.2-4.9-18-1.9-5.8-6.6-16.8-10.4-24.5-4.4-8.6-10.1-18-14.9-24.5-4.4-5.8-11.8-14.3-25.2-27.5l-0.2-60.1c-0.1-33 0.2-60.4 0.7-60.7 0.5-0.4 34.6-0.6 151-0.2zm-261.3 244.5c1 0 2.5 0.8 3.4 1.8 1.2 1.2 1.5 2.8 1 5.7-0.3 2.2-1.3 5-2.1 6.3-1 1.5-2.3 2.1-4.3 2-2.2-0.3-2.9-1-4-4.3-1-3.3-1-4.5 0-6.9 0.7-1.6 2-3.2 2.8-3.7 0.8-0.5 2.3-0.9 3.2-0.9zm235.9 26c2.6 0 2.9 0.3 2.9 3.3 0 1.7-0.3 6.2-0.8 10-0.6 6.1-0.9 6.7-3 6.7-1.2 0-2.4 0.7-2.7 1.5-0.3 0.8-1.6 1.5-3 1.5-1.4 0-2.7 0.7-3 1.5q-0.5 1.5-4.5 1.5-4 0-4.5 1.5c-0.4 1.1-1.9 1.5-5.3 1.5-3-0.1-5.2 0.5-6.2 1.5-0.8 0.9-2.8 1.6-4.5 1.6-1.7 0-3.8 0.7-4.8 1.7-1.7 1.6-1.8 5.3-1.7 57.7 0 33.8 0.3 56.4 0.9 57 0.5 0.5 1.1 2.6 1.6 8l54.8 1 2.8 7c1.6 3.8 2.9 7.6 2.9 8.3 0 0.9-6.2 1.2-55.5 1.2l-7.5 7.5-0.5 132-5.8 0.3c-3.3 0.1-5.7-0.2-5.7-0.8 0-0.5-0.7-1-1.5-1-1.2 0-1.5 1.5-1.3 8.5q0.3 8.5 1.5 9c0.7 0.3 1.3 1.3 1.3 2.3 0.1 0.9-0.6 2.3-1.5 3-1.2 1-1.5 3.4-1 26.2h5.7c3.2 0 5.8-0.4 5.8-1 0-0.5 0.8-1 1.7-1 1.6 0 1.8 1.3 1.8 13.8 0 12.2-0.2 13.7-1.8 14-1.5 0.2-1.7-1-2.2-19.3h-8l-0.3 6.5c-0.2 3.8-0.8 6.9-1.6 7.5-0.8 0.7-1.2 3.4-1.2 7.7 0.1 5.8 0.4 6.8 1.8 6.8 1 0 2 0.5 2.3 1 0.3 0.5-0.6 2.2-2 3.8-1.3 1.5-2.5 3.4-2.5 4.2-0.1 0.8 0.6 2.2 1.5 3 0.9 0.8 1.6 3 1.5 4.8 0 2-0.6 3.5-1.8 4.1-1.6 0.9-1.6 1 0 2.8 1 1 1.8 2.4 1.8 3.1 0 0.6-0.6 1.2-1.3 1.2-0.6 0-2-0.8-3-1.8-1.7-1.6-1.8-10.9-1.8-195.7 0-182.3-0.1-194.1-1.7-195.8-0.9-1-3-1.7-4.7-1.7-1.9 0-3.8-0.8-7.4-4.5l2.2-7.8c2.1-7.2 2.4-7.7 4.9-7.7 1.6 0 3.5 0.7 4.3 1.5 1.2 1.2 4.6 1.5 17.2 1.5 13.1 0.1 16-0.2 17-1.5q1.4-1.5 6.3-1.5c3.6 0 5.1-0.4 5.5-1.5 0.3-0.8 1.6-1.5 3-1.5 1.4 0 2.7-0.7 3-1.5 0.3-0.8 1.6-1.5 3-1.5 1.4 0 2.8-0.7 3.1-1.5 0.3-0.9 1.8-1.5 3.5-1.5zm1.7 29l0.6 27.3c0.3 18.4 1.2 32.4 2.5 43.2 1.1 8.8 3.2 21.8 4.7 29 1.5 7.2 2.8 14.5 3.4 19.5h-45v-110h3.2c1.8 0.1 3.9-0.6 4.7-1.5 0.8-0.8 2.8-1.5 4.5-1.5 1.7 0.1 3.7-0.6 4.5-1.5 0.7-0.8 2.8-1.5 4.5-1.5 1.7 0.1 3.7-0.6 4.5-1.5 0.7-0.8 2.8-1.5 7.9-1.5zm-73.6 5.7c1.8 0.4 4.1 1.5 5 2.5 1.7 1.7 1.8 12.9 1.9 410.3l-4.6 4.5-166.9-0.5-0.9-3c-0.5-1.7-0.9-9.8-0.9-18 0-8.3 0.3-18.6 0.7-23 0.4-4.4 1.4-9 2.1-10.3 0.8-1.2 1.4-4.6 1.4-7.5 0-2.8 0.5-7 1.1-9.2 0.9-3.4 0.7-4.7-1-8.8-1.2-2.7-2.5-9-3.2-15-0.7-7-0.7-13.8 0-21.7 0.5-6.3 0.7-14.4 0.4-18-0.3-3.6-0.5-13.5-0.4-22 0-8.5 0.2-23.2 0.4-32.5 0.2-9.3 0.8-23.5 1.2-31.5 0.6-12.2 0.5-15.2-0.9-19.3-0.9-2.6-1.6-7.3-1.6-10.5 0-3.1 0.5-8.6 1.1-12.2 0.6-3.6 2.2-8.8 3.6-11.5 2.4-4.8 2.4-5.1 0.9-8.3-0.9-1.7-1.6-4.1-1.6-5.2 0-1.1 0.5-2.9 1-4 0.5-1.1 2-2.5 3.2-3.2 1.3-0.6 3.9-1.5 5.8-2 1.9-0.4 6.5-1.2 10.2-1.8 3.8-0.5 12.1-2.7 18.5-4.9 6.5-2.1 16.8-5.7 22.8-8 6-2.3 13-5.4 15.5-6.8 2.5-1.4 6.3-4 8.5-5.7 2.2-1.8 6.5-4.7 9.5-6.5 3-1.9 7.3-5.2 9.5-7.5 2.3-2.2 7.2-7 11.1-10.6 3.9-3.6 7.6-7.5 8.2-8.8 0.7-1.2 3.6-4.8 6.4-8.1 2.9-3.2 8.7-11.7 12.9-18.7 4.2-7.1 8.2-14.7 8.9-16.9 0.7-2.2 2.3-6 3.6-8.5 1.2-2.5 2.5-5.3 2.8-6.2 0.4-1.4 1.2-1.6 3.8-1.1zm-289.7 77.3c1.1 0 2.6 0.5 3.3 1.2 0.7 0.7 1.2 2.4 1.2 3.8 0 1.4-1.4 4.8-3.1 7.5-1.8 2.8-5.7 7.9-8.8 11.5-3.2 3.6-6.9 8.4-8.4 10.8-1.5 2.3-4.1 5-5.8 5.9-1.8 1.1-4.7 4.6-6.9 8.3-2.2 3.6-7.8 10.8-12.5 16-4.8 5.2-10.5 12-12.8 15-2.3 3-7.1 8.9-10.7 13-3.6 4.1-8.4 10.2-10.7 13.5-2.3 3.3-6.7 8.5-9.8 11.5-3.1 3-10 10.7-15.4 17-5.3 6.3-12.4 14.9-15.7 19-3.3 4.1-7.1 9.3-8.6 11.5-1.4 2.2-7.4 9.6-13.3 16.5-5.9 6.9-15 18.1-20.1 25-5.2 6.9-10.4 13.2-11.6 14.1-1.3 0.8-4.5 4.7-7.2 8.5-2.7 3.8-7.3 9.5-10.3 12.6-2.9 3.2-5.3 6.3-5.3 6.8 0 0.5-2.4 3.6-5.3 6.7-2.9 3.2-6.5 7.5-8 9.5-1.5 2.1-3.7 4.1-5 4.4-1.6 0.4-3.2-0.3-5.7-2.5-1.9-1.7-6.9-5.7-11-9-4.1-3.2-12.2-10.9-28.5-28.3l2-3.8c1.1-2.1 7.8-9.2 15-15.7 7.1-6.6 14-13.5 15.2-15.4 1.1-1.8 4.7-5.3 8-7.6 3.2-2.3 7.4-5.8 9.3-7.8 1.9-2 5.1-4.5 7-5.5 1.9-1 12.3-10.3 23-20.5 10.7-10.3 22.9-21.2 27-24.3 4.1-3 10-7.8 13-10.5 3-2.7 10.2-9.5 16-15 5.8-5.5 12.9-11.9 15.8-14.1 2.9-2.3 5.3-4.3 5.2-4.6-0.1-0.3 3-3.1 6.7-6.2 3.7-3.2 10.6-9 15.2-13 4.6-4 12.3-11.1 17.1-15.8 4.8-4.7 11.9-11.3 15.6-14.7 3.8-3.3 10-8.5 13.8-11.4 3.8-2.9 9-7.2 11.5-9.7 2.5-2.5 7.5-6.7 11.1-9.3 3.6-2.7 7.4-4.9 8.5-4.9zm387 72.5l0.2 132.5c0.2 103.2 0 132.8-1 133.8-0.9 1-7.1 1.2-56.2 0.7l-0.2-41c-0.2-30.7-0.6-41.6-1.5-43.3-1.1-1.8-1.1-2.5 0-3.5 0.9-0.9 1.2-6.3 1.2-21 0-14-0.4-20.3-1.3-21.7-1-1.6-1-2.4 0-4 1-1.6 1.3-16.2 1.1-65.7-0.2-60.6-0.1-63.7 1.7-65.5 1.7-1.7 3.7-1.8 56-1.3zm11.3 13.7c0.4 0.2 4 3.7 15.2 15.3v71.2c0 62.7-0.2 71.3-1.5 71.3q-1.5 0-1.5-3 0-3-1.5-3c-0.8 0-1.5 0.5-1.5 1 0 0.5-1.1 1-2.5 1-2 0-2.5-0.5-2.5-2.5 0-2.2 0.5-2.5 3.7-2.8 2-0.1 3.8-0.8 4-1.5q0.3-1.2-3-1.2c-1.7 0.1-3.8-0.6-4.5-1.5-0.6-0.8-2.2-1.4-5.7-1l-0.3-70.5c-0.1-38.8 0-71.1 0.4-71.8 0.3-0.8 0.9-1.2 1.2-1zm25.1 22.4c1.4 0.9 7.6 5.2 13.6 9.4 6 4.3 17 11.6 37.5 25v156l-7.3 5.8c-3.9 3.2-11.5 9-16.7 12.7-5.2 3.8-13.5 9.5-18.5 12.7-5 3.2-9.8 5.9-10.8 5.8-1.6 0-1.7-6.2-1.9-113.8-0.1-62.6 0.2-114.2 0.7-114.5 0.5-0.4 2 0 3.4 0.9zm63.6 40.6c2.2 1 2.4 1.8 2.5 7 0 5.7 0 5.8 2.7 5.5 2.5-0.2 2.8-0.7 3-4 0.3-3.2 0.6-3.7 2.5-3.5 2.2 0.3 2.3 0.8 2.6 8.8 0.2 4.7 0.8 9.1 1.5 9.8 0.7 0.7 3.3 1.3 5.9 1.2 3.4 0 4.9 0.4 5.3 1.5 0.4 1.1 2 1.5 6.4 1.5q5.9 0 7.5-1.5c0.8-0.8 3-1.5 4.8-1.5 2.4 0 4.1 0.8 6.3 3 2.6 2.7 2.8 3.3 1.7 5-0.6 1.1-1.2 3.3-1.2 5 0 2.2 0.6 3.1 2 3.5 1.1 0.3 2 1.2 2 2 0 1.3-3.1 1.5-41.5 2l-0.4 82-7.1 6.2c-3.8 3.5-7.7 6.3-8.5 6.3-1.3 0-1.5-8.5-1.7-69.8-0.1-38.4 0.2-70.1 0.6-70.5 0.4-0.3 1.8-0.1 3.1 0.5zm22.9 8.2c1.2 0.4 8.4 1.5 16.1 2.6 7.7 1 17 2.1 20.7 2.4 5.9 0.5 6.8 0.9 6.8 2.6 0 1.9-0.7 2-21.5 2-19.6 0-21.6-0.2-22.1-1.8-0.3-0.9-1-2.5-1.5-3.5-0.5-0.9-0.8-2.4-0.7-3.3 0.1-1.2 0.7-1.5 2.2-1zm72.5 6.8c6.5 0.2 9.5 0.7 9.8 1.5 0.2 1-2.3 1.3-10.2 1.3-5.8 0-10.6-0.4-10.7-0.8-0.1-0.5 0.3-1.2 0.7-1.6 0.5-0.4 5.2-0.5 10.4-0.4zm-30.4 7.8c0.8 0 1.7 0.5 2 1 0.3 0.5-0.2 1.6-1 2.2q-1.6 1.3-2.6 0.3c-0.6-0.5-0.8-1.6-0.5-2.3 0.4-0.6 1.4-1.2 2.1-1.2zm6.4 0.2c0.9 0.2 1.6 1.3 1.6 2.7 0 1.4-0.6 2.6-1.3 2.8-0.6 0.1-1.6-0.7-2.1-2-0.5-1.2-0.6-2.6-0.4-3 0.3-0.4 1.3-0.7 2.2-0.5zm11.7 1.8c0.8 0 1.6 0.3 1.8 0.7 0.3 0.5-0.6 2.1-2 3.8-1.3 1.7-2.4 3.6-2.4 4.2 0 0.7 0.5 1.5 1 1.8 0.5 0.3 1.9-0.1 3-0.8 1-0.6 2.3-0.9 2.7-0.4 0.4 0.4 0.2 1.8-0.5 3.2-0.8 1.8-1.8 2.4-3.2 2-1.1-0.3-2.2 0-2.5 0.5-0.3 0.5 0 1.2 0.5 1.5 0.5 0.3 1 1.2 1 2 0 1.1-0.9 1.4-3.3 1.2-3.1-0.2-3.2-0.4-3.5-5.2-0.3-3.6 0.1-5.4 1.3-6.5 0.9-0.8 1.5-2.1 1.4-2.9-0.2-0.8 0.6-2.3 1.6-3.3 1-1 2.4-1.8 3.1-1.8zm-16.4 5c0.5 0 1.1 0.6 1.4 1.2 0.3 0.7 0.1 1.8-0.5 2.3-0.6 0.5-1.1 1.3-1.1 1.7 0 0.5 1.2 0.9 2.7 1 2.5 0.3 2.8 0.7 3 4.5 0.2 2.4 0.8 4.3 1.3 4.3 0.5 0 1 0.5 1 1 0 0.5-0.7 1.3-1.5 1.7-1 0.5-2.3 0-3.8-1.6-1.9-2-2-2.7-1-4.2 1-1.4 1-2.1 0.2-2.7-0.7-0.4-1.5 0-2 1-0.5 1-1.6 1.8-2.4 1.8-1.2 0-1.4-1-0.8-5.3 0.3-2.8 1.1-5.5 1.7-5.9 0.6-0.4 1.4-0.8 1.8-0.8zm-20.1 21c8.8 0 11 0.3 11.4 1.5 0.4 1.1 1.9 1.5 5.2 1.5q4.8-0.1 6.3 1.5c0.9 1.1 2.5 1.5 4 1.2 1.6-0.3 2.6 0 2.7 0.9 0.2 0.8-2.3 4.7-5.4 8.6-3.1 4-10.1 12.3-15.4 18.3-5.3 6-14.4 16-20.2 22-7.3 7.6-10.8 10.7-11.6 10-0.7-0.7-1-10.4-0.6-62l5-0.2c2.9-0.2 5.6-0.9 6.4-1.8 1-1.2 3.8-1.5 12.2-1.5zm-212.4 16c0.7 0 1.3 0.9 1.3 2 0 1.1-0.5 2-1 2-0.5 0-1 2-1 4.5 0 2.5 0.5 4.5 1 4.5 0.5 0 1 1.7 1 3.7 0 2.1-0.3 4.2-0.7 4.6-0.5 0.5-0.8 1.8-0.8 3 0 1.2-0.7 2.3-1.5 2.5-0.8 0.1-2.1-0.8-2.8-2-1-1.7-1-2.6-0.3-3.3 0.6-0.5 1.1-1.3 1.1-1.8 0-0.4-0.9-0.7-2-0.7-1.1 0-2-0.7-2-1.5 0-0.8 0.9-1.7 2-2 1.8-0.4 2-1.2 1.8-6.8-0.1-4.4 0.2-6.7 1.2-7.5 0.8-0.7 2-1.2 2.7-1.2zm76.8 29c0.3 0 1.3 0.4 2.2 0.9 1 0.5 2.7 1.3 3.8 1.7 1.6 0.6 1.2 0.9-2 1.5-2.2 0.4-4.5 0.3-5-0.2-0.5-0.4-0.7-1.5-0.3-2.4 0.4-0.8 1-1.5 1.3-1.5zm11 18c1 0 1.5 1.1 1.5 3.5 0 2.4-0.5 3.5-1.5 3.5-1 0-1.5-1.1-1.5-3.5 0-2.4 0.5-3.5 1.5-3.5zm-4.6 24c3.6 0 5 0.5 6.4 2.2 1 1.3 1.5 2.6 1 3-0.4 0.4-3.6 0.8-7 1-3.4 0.2-6.5 0-7-0.5-0.4-0.4-0.2-1.8 0.6-3.2 1.1-2.1 2.1-2.5 6-2.5zm7.7 23c1.1 0 1.4 2.9 1.4 15.5 0 13.1-0.2 15.5-1.5 15.5-0.8 0-1.5-0.8-1.5-1.8 0-0.9-0.5-2.3-1.2-3.1-1-1.1-1-1.4-0.1-1.7 0.7-0.2 1.3-1.1 1.3-1.9 0-1-1.1-1.5-3.5-1.5-2.4 0-3.5-0.5-3.5-1.5 0-0.8 0.7-1.5 1.5-1.5 0.8 0 2.5-1 3.7-2.3 1.8-1.8 2-3 1.5-6.7-0.3-2.5-0.3-5.5-0.1-6.8 0.3-1.2 1.2-2.2 2-2.2zm-107.9 5c0.5-0.1 1.4 0.6 2 1.5 1 1.2 1 1.8 0 3.1-1 1.3-0.9 1.7 0.3 2.4 1.2 0.8 1.3 1.3 0.3 2.7-0.9 1.4-0.9 2.1 0 3 0.9 1 0.9 1.8-0.1 3.5-0.7 1.3-1.2 4.3-0.7 11.3l5 0.3c2.7 0.1 5.4-0.2 5.9-0.8 0.6-0.5 1.6-1 2.3-1 0.7 0 1.4 1 1.8 4.5l37 0.2c22.9 0.2 37.5-0.1 38.2-0.7q1.3-1 3.3 0.2c1.1 0.7 2 1.9 2 2.5 0 0.7-2.6 2.8-5.8 4.7-3.1 1.9-10.3 5.7-26.2 13.6h-22.8c-20.1 0-22.9 0.2-24.5 1.8-1.4 1.4-1.8 3.3-1.7 19.7l-7.7 2.8c-4.3 1.5-8.4 2.7-9.1 2.7-0.9 0-1.2-3-1.2-11.5 0-9.5-0.3-11.8-1.8-13.5-1.7-2-2.9-2-50-2-42.2 0-48.2-0.2-48.2-1.5 0-0.8 0.9-1.5 2-1.5 1.1 0 2.2-0.7 2.5-1.5 0.3-1 1.8-1.5 4-1.5 1.9 0 3.7 0.6 3.9 1.2 0.2 0.8 2 1.3 4.4 1.3 2.3 0 4.7-0.6 5.3-1.3 0.7-0.6 1.8-1.2 2.4-1.2 0.5-0.1 1.7 0.6 2.5 1.5 0.9 0.9 3.1 1.6 9 1.5l-0.5-16.5 5-0.3c2.8-0.2 6 0.3 7.3 1 1.8 1 2.5 1 3 0.1 0.5-0.9 7.2-1.3 48.7-1.8l0.3-14c0.1-7.7 0.4-14.6 0.7-15.3 0.2-0.6 0.8-1.2 1.2-1.2zm97 21.7c2.1 0.3 4.3 0.9 4.8 1.4 0.5 0.5 0.6 1.2 0.2 1.6-0.5 0.5-2.6 0.9-4.8 1-2.1 0.2-4.1-0.2-4.4-0.7-0.3-0.5-0.3-1.7-0.1-2.4 0.3-1.1 1.4-1.3 4.3-0.9zm-257.2 9.3c2.5 0 4.7 0.5 5 1 0.3 0.5-0.1 1.7-0.8 2.5-0.7 1-2.7 1.6-5 1.5-3.3 0-3.7-0.3-3.7-2.5 0-2.3 0.4-2.5 4.5-2.5zm12.7 0c1.5 0 3.1 0.4 3.4 0.9 0.3 0.5 0.3 1.6 0 2.5-0.3 0.9-1.7 1.6-3.1 1.6-1.4 0-2.9-0.8-3.5-1.8-0.5-0.9-0.7-2-0.3-2.5 0.3-0.4 1.9-0.7 3.5-0.7zm7.6 0.2c0.8 0.2 1.7 0.9 1.9 1.5 0.2 0.7-0.4 1.6-1.2 2-0.9 0.5-2.1 0.3-2.6-0.2-0.6-0.5-0.8-1.6-0.4-2.3 0.4-0.7 1.4-1.2 2.3-1zm19-0.2c4.8 0 9 0.2 9.4 0.6 0.4 0.3 0.2 1.5-0.5 2.5-1 1.6-2.5 1.9-8.7 1.9-5.6 0.1-7.8-0.3-8.8-1.5-0.6-0.8-1-2-0.7-2.5 0.4-0.5 4.5-1 9.3-1zm26.1 0.2c1.8 0.2 2.6 0.9 2.6 2.3 0 1.2-0.8 2.1-2 2.3-1.1 0.2-2.6-0.4-3.3-1.2-0.6-0.9-0.9-2.1-0.6-2.7 0.4-0.5 1.8-0.9 3.3-0.7zm17.1-0.2c5 0 9.2 0.4 9.5 1 0.3 0.5 0.3 1.7 0 2.5-0.4 1.2-2.3 1.5-9 1.5-6.7 0-8.6-0.3-9-1.5-0.3-0.8-0.5-2-0.5-2.5 0-0.6 3.7-1 9-1zm-85.8 15c0.5 0 1 0.5 1.3 1 0.3 0.6 10.3 1 27 1 22.9 0 26.5 0.2 26.5 1.5 0 1.3-3.8 1.5-28.5 1.5-18 0-28.7-0.4-29-1-0.3-0.5 0.1-1.7 0.7-2.5 0.7-0.8 1.6-1.4 2-1.5zm-11.8 11h39.6c33.7 0 39.7 0.3 41 1.5 1.3 1.4 1.7 1.4 3 0 1.3-1.4 6.4-1.6 40.7-1.5 37.9 0 39.4 0.1 41.3 2 1.8 1.8 2 3.1 1.5 22.5l-16 4.2c-8.8 2.3-23 5.8-47 11.3h-52.8c-49.3 0-52.7-0.1-53.3-1.8-0.4-0.9-0.9-8.9-1.2-17.7-0.5-14.6-0.3-16.2 1.4-18.3zm200.5 0h10.5c9 0 10.5 0.3 10.3 1.6-0.2 0.9-4.1 3.2-9.3 5.5-4.9 2.2-9.5 4-10.2 4-0.9 0-1.3-1.8-1.3-5.6z"/><path  d="m933.2 75.7c0.2 1.9 1 2.9 2.7 3.3 1.5 0.3 2.7 1.4 3 2.8 0.4 1.3 1 2.3 1.6 2.3 0.5 0 1.2-0.8 1.4-1.8 0.1-1 0.9-2.6 1.7-3.5 1.2-1.6 1.1-2.1-0.6-3.8-1.3-1.3-3.3-2-6.1-2-3.8 0-4 0.2-3.7 2.7zm6.3 21c-0.5 0.3-0.8 4.7-0.7 9.7 0.1 5 0.5 9.4 0.9 9.9 0.4 0.4 1.8-0.3 3.1-1.5 1.8-1.9 2.3-3.4 2.3-8.3 0-5-0.4-6.4-2.4-8.3-1.3-1.2-2.7-1.9-3.2-1.5zm0 32c-0.5 0.3-0.8 4.7-0.7 9.7 0.1 5 0.5 9.4 0.9 9.9 0.4 0.4 1.8-0.3 3.1-1.5 1.8-1.9 2.3-3.4 2.3-8.3 0-5-0.4-6.4-2.4-8.3-1.3-1.2-2.7-1.9-3.2-1.5zm0 35.6c-0.3 0.8-0.5 4.7-0.3 8.8 0.3 7.1 0.4 7.4 2.8 7.4 2.5 0 2.5-0.1 2.5-8.5 0-8-0.1-8.5-2.2-8.8-1.2-0.2-2.5 0.3-2.8 1.1zm102 2.4c-0.5 0.3-0.8 2.8-0.7 5.5 0.1 2.6 0.7 5 1.2 5.3 0.5 0.3 1.6-0.2 2.2-1 0.7-0.9 2.1-1.6 3-1.5 1 0 2 0.7 2.3 1.5 0.4 1.3 4.6 1.5 29.5 1.5h29c0-6.7-0.7-8.7-2-10-1.6-1.6-3.3-2-8.3-2-3.7 0-6.8 0.5-7.5 1.3-1 0.9-1.5 0.9-2.5-0.1-0.6-0.7-2.4-1.2-4-1.2-1.5 0-3.6 0.6-4.7 1.3-1.5 0.9-2.2 0.9-3.2 0-1-0.9-1.7-0.9-3.1 0-1.3 0.9-1.9 0.9-2.5 0-0.4-0.7-3.6-1.1-8.9-1-5.6 0.1-8.4 0.6-8.8 1.5-0.3 0.6-1.3 1.2-2.3 1.2-0.9 0.1-2.4-0.6-3.2-1.5-0.8-0.9-2.2-1.6-3.1-1.5-0.9 0-1.9 0.3-2.4 0.7zm17.5 20.5c-0.8 0.6-1.3 2.3-1.2 3.8 0.1 1.4 0.7 3.1 1.4 3.8 0.8 0.8 4.1 1.2 9 1.2 4.6 0 7.8 0.4 7.8 1 0 0.5 0.7 1 1.5 1 0.9 0 1.5-0.9 1.5-2.2 0.1-1.3-0.6-3-1.5-3.8-0.8-0.8-1.6-2.4-1.8-3.5-0.2-1.8-1.1-2-7.7-2.3-4.9-0.2-8 0.2-9 1zm23.4-0.5c-0.4 0.3-0.7 2.2-0.6 4.2 0.1 2.3 0.9 4.3 2.2 5.4 1.1 0.9 2.5 1.5 3 1.2 0.5-0.3 1-2 1-3.7 0-2.2-0.9-4.1-2.4-5.5-1.3-1.2-2.7-2-3.2-1.6zm-131.3 6.8c-0.6 0.8-0.9 2.2-0.6 3 0.3 0.8 1.3 1.5 2.2 1.5 1 0 3.8 2 6.3 4.5 2.5 2.5 4.8 4.5 5.2 4.5 0.5 0 0.8-1.1 0.8-2.5q0-2.5-5-7.5c-2.8-2.7-5.6-5-6.4-5-0.8 0-1.9 0.7-2.5 1.5zm25.9 17.3c0 0.4 1.3 2.1 3 3.7 2.1 2.1 3 3.9 3 6 0 1.6 0.3 3.3 0.7 3.7 0.5 0.4 1.8-0.3 3-1.5 1.3-1.3 2.3-3.5 2.3-5.2 0-1.8-0.8-3.9-2.2-5.2q-2.3-2.3-6.1-2.3c-2 0-3.7 0.3-3.7 0.8zm6.2 35.5c0.3 10.1 0.3 10.2 2.8 10.2 2.4 0 2.5-0.2 2.8-8 0.2-7.2 0-8.2-2-10.3-1.3-1.2-2.7-2.2-3.1-2.2-0.4 0-0.6 4.6-0.5 10.3zm0.1 33.4c0.2 8.7 0.2 8.8 2.7 8.8 2.5 0 2.5-0.1 2.5-8.5v-8.5l-5.4-0.6zm-0.2 29.2l-0.1 6.1c11.1-0.5 11.5-0.7 11.5-3 0-1.8-0.7-2.6-2.5-3-1.5-0.3-2.6-1.4-3-3-0.4-1.8-1.4-2.6-3.2-2.8-2.6-0.3-2.7-0.2-2.7 5.7zm26.1 2.8l0.3 2.8c16.9 0 17 0 17-2.5 0-2.5-0.2-2.5-8.8-2.8l-8.8-0.3zm29.2-1.5c-0.3 0.7-0.3 2.1 0 3 0.5 1.5 1.8 1.8 8.8 1.5 8.1-0.2 8.3-0.3 8.3-2.7 0-2.5-0.2-2.5-8.2-2.8-6-0.2-8.4 0.1-8.9 1zm32 0c-0.3 0.7-0.3 2.1 0 3 0.5 1.5 1.8 1.8 8.8 1.5 8.1-0.2 8.3-0.3 8.3-2.7 0-2.5-0.2-2.5-8.2-2.8-6-0.2-8.4 0.1-8.9 1zm29 0c-0.3 0.7-0.3 2.1 0 3 0.5 1.6 1.8 1.8 10.3 1.5 9.7-0.2 9.8-0.2 9.8-2.7 0-2.5-0.1-2.5-9.7-2.8-7.2-0.2-9.9 0.1-10.4 1zm32 0c-0.3 0.7-0.3 2.1 0 3 0.5 1.5 1.8 1.8 8.8 1.5 8.1-0.2 8.3-0.3 8.3-2.7 0-2.5-0.2-2.5-8.2-2.8-6-0.2-8.4 0.1-8.9 1zm32 0c-0.4 0.7-0.3 2.1 0 3 0.4 1.1 1.6 1.8 3.1 1.8 2.2 0 2.5 0.4 2.5 3.7 0 2.1 0.3 4.1 0.7 4.5 0.5 0.5 1.8-0.2 3.1-1.5 1.4-1.4 2.2-3.4 2.2-5.5 0-1.8-0.8-4-2-5.2-1.2-1.3-3.3-2-5.5-2-2 0-3.8 0.6-4.1 1.2zm6.1 25.4c-0.4 0.4-0.8 4.2-0.7 8.6 0.1 4.3 0.7 8 1.2 8.3 0.5 0.3 1.9-0.4 3-1.5 1.7-1.7 2-3.1 1.7-8.8-0.2-5.9-0.4-6.7-2.2-7-1.2-0.2-2.5 0-3 0.4zm0 29c-0.5 0.4-0.8 4.2-0.7 8.6 0.1 4.3 0.7 8 1.2 8.3 0.5 0.3 1.9-0.4 3-1.5 1.4-1.4 2-3.4 2-6.8 0-3.7-0.5-5.2-2.3-7-1.3-1.2-2.7-1.9-3.2-1.6zm-0.5 38.9c0 5.3 0.4 9.7 1 10 0.5 0.3 1.9-0.4 3-1.5 1.1-1.1 2-2.5 2-3 0-0.6-0.7-1.2-1.5-1.5-0.8-0.3-1.5-1.1-1.5-1.8-0.1-0.6 0.6-1.9 1.5-2.7 0.9-0.8 1.6-2.4 1.6-3.5 0-1.1-0.8-2.8-1.8-3.7-1-1-2.4-1.8-3.1-1.8-0.9 0-1.2 2.5-1.2 9.5zm210.5 33.5c-4.4 0.5-10 1.4-12.5 2.1-2.5 0.6-9.7 3.2-16 5.7-6.3 2.4-13.3 5.3-15.5 6.5-2.2 1.1-6.7 3.8-10 6-3.3 2.2-9.1 7-12.9 10.6-3.8 3.6-9.2 9.5-12 13.1-2.9 3.6-7 9.4-9.3 13-2.2 3.6-5.6 9.6-7.5 13.5-2 3.8-5.2 11.3-7.3 16.5-2 5.2-5 14.7-6.6 21-1.7 6.3-3.6 15.5-4.4 20.5-0.8 4.9-1.9 13.3-2.5 18.5-0.6 5.2-1.1 16.7-1.1 25.5 0 11.5 0.6 19.2 2 27.5 1.1 6.3 3.2 15.1 4.7 19.5 1.4 4.4 4 10.7 5.7 14 1.6 3.3 4.8 8.7 7.1 12 2.2 3.3 6.5 8.5 9.6 11.5 3 3.1 8.4 7.5 12 10 3.6 2.4 10.1 6.1 14.5 8.1 4.4 2.1 11.8 4.7 16.5 5.9 5.9 1.5 12.9 2.3 23 2.7 12.1 0.4 16.4 0.2 25.5-1.6 6-1.1 18.2-3 27-4.1 8.8-1.1 19.4-2.7 23.5-3.6 4.1-0.8 10.2-2.6 13.5-4 3.3-1.3 8.4-3.9 11.3-5.7 3-1.8 8.6-6.6 12.6-10.7 3.9-4.1 9.4-11.1 12.1-15.5 2.7-4.4 6.6-11.8 8.6-16.5 2-4.7 5.3-13.5 7.3-19.5 2.1-6.1 5.3-17.3 7.1-25 1.9-7.7 4.1-19 5-25 1-6.5 1.6-17.6 1.6-27 0-11.4-0.6-19.3-2-27.5-1.1-6.3-3.1-15-4.5-19.3-1.5-4.2-4.6-11.6-7-16.5-2.4-4.8-7-12.3-10.3-16.7-3.3-4.4-8.7-10.5-11.9-13.6-3.2-3.1-8.6-7.6-11.9-10-3.3-2.4-10-6.5-15-9.1-5-2.5-12.4-5.7-16.5-7.1-4.1-1.4-11.1-3.2-15.5-4-4.4-0.9-13-1.8-19-2.1-6-0.2-14.6-0.1-19 0.4zm-994 10c-7.7 0.5-18.1 1.4-23 2-5 0.6-11.9 1.8-15.5 2.6-3.6 0.8-11 2.9-16.5 4.6-7.7 2.6-10.7 4.1-13.2 6.8-1.9 1.9-4.9 6.4-6.7 10-1.9 3.6-4.6 10.2-6 14.7-1.4 4.6-3.3 12.2-4.1 17-0.8 4.9-1.5 14.4-1.5 21.3 0 8.1 0.5 14.6 1.6 18.5 0.8 3.3 2.4 8 3.5 10.5 1.1 2.5 3.5 6.2 5.2 8.3 1.9 2.3 5.8 5.2 9.7 7l6.5 3.2c41.1-0.1 58.4-0.7 65-1.4 6.6-0.7 24.6-2.5 40-4.2 15.4-1.6 35-3.6 43.5-4.3 12.1-1.1 16.6-1.9 20.5-3.8 2.7-1.2 7.7-4.8 11-7.9 4.1-3.8 7.3-8.1 10.1-13.5 2.3-4.4 4.9-10.6 5.9-13.9 0.9-3.3 1.9-9.6 2.2-14 0.4-5.6 0-10.6-1.1-16.5-1-4.7-3-11.2-4.6-14.5-1.9-4.1-5-8.1-9.9-12.8-5.2-4.9-9.5-7.8-15.9-10.9-5.7-2.7-11.5-4.6-16.7-5.4-4.4-0.8-19-1.9-32.5-2.5-13.5-0.6-28.8-1.2-34-1.4-5.2-0.2-15.8 0.1-23.5 0.5zm651.3 10.1c-1 1-1.8 2.7-1.8 3.6 0.1 1 1.8 3.5 3.8 5.5 2 2 4.4 3.7 5.3 3.7 0.8 0.1 2.1-0.5 2.7-1.2 1-1 1.6-1 3.2 0 1.7 1.1 2.1 1 2.5-0.2 0.4-1.2 2.5-1.5 10.5-1.5 8 0 10.1 0.3 10.5 1.5 0.3 0.8 1.3 1.5 2.3 1.5 0.9 0 2.7-1.2 4-2.5 1.2-1.4 2.7-2.5 3.2-2.5 0.5 0 1.5 1.2 2.1 2.7 0.9 2.5 1.2 2.6 2.2 1.1 1-1.5 3.1-1.7 14.5-1.8 12.3 0 13.4-0.2 15.7-2.3 1.8-1.6 2.5-3.3 2.5-5.9v-3.7c-79.7 0-81.6 0.1-83.2 2zm-100.7 363.3c-0.7 0.8-2.2 1.6-3.4 1.8-1.8 0.2-2.2 0.9-2.2 4.3 0 3.2 0.4 4 2 4.3 1.1 0.2 2.8 1.1 3.8 2 1.7 1.6 1.9 1.6 2.8-0.1 0.7-1.3 2.2-1.7 6.7-1.7 4 0 6.2 0.5 7.5 1.8 1.6 1.6 1.8 1.6 3.5 0 1-1.1 3.3-1.8 5.7-1.8 2.4-0.1 4.6 0.5 5.5 1.5 0.8 0.9 1.8 1.6 2.3 1.5 0.4 0 0.7-1.6 0.7-3.5 0-2.5 0.5-3.5 1.5-3.5 0.8 0 1.5 0.9 1.5 2 0 1.1 0.7 2 1.5 2 0.8 0 1.5-0.9 1.5-2 0-1.1 0.7-2 1.5-2 0.8 0 1.5 0.7 1.5 1.5 0 0.8 0.9 2.4 2 3.5 1.1 1.1 2.8 2 3.8 2 0.9 0.1 2.4-0.6 3.2-1.5 1.1-1.1 3.3-1.6 7.8-1.6l6.2 0.1-0.5-8.5c-21.4-0.4-24.3-0.8-25.5-2-1.4-1.4-1.8-1.3-4.3 1.2-2.4 2.4-3 2.6-4.7 1.5-1.1-0.6-4.7-1.2-8-1.2-3.9 0-6.1 0.4-6.4 1.2-0.3 1-0.8 1-2.5 0-1.1-0.6-2.8-1.2-3.6-1.2-0.8 0-2.7 1.3-4.3 3q-2.7 3-5.4 3c-1.8 0-2.8-0.5-2.8-1.5 0-0.8 0.9-1.5 2-1.5 1.4 0 2-0.7 2.1-2.5 0.1-1.3-0.3-2.6-0.9-2.9-0.6-0.3-1.5 0.1-2.1 0.8zm321.4 69.2c-0.4 0.4-0.8 3.1-0.7 6.1l0.2 5.3c11.2-0.5 11.5-0.7 11.5-3 0-2-0.5-2.6-2.7-2.8-2.3-0.2-2.8-0.8-3-3-0.2-1.9-0.9-2.8-2.3-3-1.2-0.2-2.5 0-3 0.4zm22.9 6.6c-0.4 0.7-0.3 2.1 0 3 0.5 1.5 1.8 1.8 6.9 1.8 5.1 0 6.6-0.3 8.5-2.2 1.2-1.3 1.9-2.7 1.5-3.1-0.5-0.4-4.3-0.8-8.6-0.7-5.2 0-7.9 0.4-8.3 1.2zm-207 9c-0.4 0.7-0.3 2.1 0 3 0.5 1.4 1.6 1.7 5.6 1.5 2.8-0.1 5-0.7 5.1-1.2 0-0.6-0.9-1.1-2.1-1.3-1.1-0.1-2.2-0.9-2.5-1.7-0.3-0.8-1.6-1.5-3-1.5-1.4 0-2.8 0.6-3.1 1.2zm-63.9 159.5c-0.5 0.3-0.8 3-0.7 6 0.2 4.9 0.4 5.3 2.7 5.3 1.6 0 3.4-1.1 5-3l2.5-3c4.3 4.6 6.4 6 7.5 6 1.1 0 2.7-0.6 3.5-1.5 0.8-0.9 2.6-1.6 4-1.6 1.4 0 3.2 0.7 4 1.6 1.2 1.3 3.1 1.6 9.5 1.3l8-0.3c0.9-7.2 1.4-8 3-8 1.6 0 2.1 0.8 2.5 4q0.5 4 2 4c1 0 1.6-1.2 1.8-3.5 0.2-1.9 0.8-4.1 1.3-4.8 0.5-0.6 0.7-1.7 0.4-2.2-0.3-0.6-10.8-1-28.3-1-15.3 0-28.2 0.3-28.7 0.7z"/><path class="a" d="m329.6 479.3c-0.8 1.2-2.3 4.5-3.4 7.2-1.1 2.8-3 8.8-4.3 13.5-1.9 7.1-2.3 11.1-2.3 24-0.1 9.9 0.4 16.9 1.1 19.3 1 2.8 1.8 3.7 3.5 3.7 2.1 0 2.2-0.3 1.6-3.7-0.4-2.4-0.1-5.5 0.8-8.3 0.7-2.5 1.4-6 1.4-7.7 0-1.8 0.6-4.8 1.4-6.5 0.8-2 1.6-9.3 2-18.3 0.3-8.2 1.1-16.6 1.8-18.5 0.6-1.9 0.8-4.3 0.4-5.2-0.3-1-1-1.8-1.6-1.8-0.5 0-1.6 1-2.4 2.3zm1126 0.5c-0.3 0.4 0.4 6.3 1.5 13.2 1 6.9 2.6 15.4 3.4 19 0.8 3.6 1.8 9.1 2.2 12.3 0.5 3.1 1.1 5.7 1.5 5.7 0.5 0 0.8 17.3 0.8 38.5 0 25-0.4 38.5-1 38.5-0.5 0-1 2.4-1.1 5.3 0 2.8-0.4 7.5-1 10.2-0.5 2.8-1.4 10.4-1.9 17-0.6 6.6-1.7 13.7-2.5 15.8-0.8 2-1.5 5.1-1.5 6.7 0 1.7-0.7 5.6-1.6 8.8-1.1 3.9-1.2 6-0.5 6.7q1 1 2.7-0.5c0.9-0.8 3.6-4.2 5.9-7.5 2.4-3.3 5.9-9.3 7.9-13.2 2-4 5.8-13.9 8.5-22 2.7-8.2 6.1-19.5 7.5-25.3 1.4-5.8 3.2-15.7 4.2-22 1.3-8.8 1.5-15.7 1.1-29.5-0.4-15.2-0.9-19.6-3.1-28-1.5-5.5-4.9-14.6-7.6-20.2-3-6.2-7.3-13.1-10.8-17.1-3.1-3.8-7.3-8.2-9.2-10-1.9-1.7-3.8-3.1-4.2-3.2-0.4 0-0.9 0.3-1.2 0.8zm-24.6 8.9c-2.3 2.6-6.4 8.1-9.1 12.1l-4.9 7.2c0 38 0.2 49.7 0.5 50.5 0.4 1.2 3 1.5 15 1.5h14.5c0-15.1-0.5-22.2-1.1-25.5-0.6-3.3-1.7-9.4-2.5-13.5-0.8-4.1-2.1-12.9-3-19.5-0.9-6.6-2-13.1-2.3-14.4-0.3-1.3-1.1-2.6-1.7-2.8-0.6-0.2-3 1.8-5.4 4.4zm-22.7 39.8c0.4 0.9 0.1 1.7-0.8 2q-1.5 0.5-1.5 4.5c0 2.9 0.5 4.1 1.7 4.5 1.7 0.5 1.7 0.6 0.1 2.3-1.3 1.3-1.8 3.9-2 11.2l-0.3 9.5-8.5 0.5c-1.6 10.5-2.5 17.8-3 23-0.5 5.2-1 15.8-1 23.5 0 7.7 0.5 16.7 1 20 0.6 3.3 1.5 8.1 2 10.8 0.7 3.1 1.5 4.7 2.5 4.7 1.2 0 1.5-1.3 1.5-6 0-4.3 0.4-5.9 1.2-5.7q1.3 0.4 1.5 8c0.3 6.8 0.1 7.8-1.7 8.7-1.9 1-1.9 1.2-0.4 5.3 0.8 2.3 2.8 6.6 4.5 9.5 1.6 2.8 3.6 5.2 4.4 5.2 1.3 0 1.5-5.4 1.7-41.7l0.3-41.8 35.5-0.5v-6h-21l0.5-5.5c20.5-0.5 20.5-0.5 20.5-3v-2.5l-35.5-0.5c-0.5-39.2-0.7-41.5-2.2-41.5q-1.6 0-1 1.5zm10.5 66.3c-1.6 1.6-1.7 5.3-1.8 43.2 0 33.5 0.2 41.9 1.4 43.5 0.7 1.1 3.7 3.7 6.7 5.8 3.5 2.5 6.3 3.7 7.9 3.5 1.4-0.2 3-1.4 3.8-2.8 0.7-1.4 1.1-4.4 1-6.7-0.2-2.2 0-3.9 0.4-3.7 0.5 0.2 0.8 0 0.8-0.6 0-0.5-0.7-1.2-1.5-1.5-0.8-0.3-1.7-0.5-2-0.5-0.3 0-0.5 0.9-0.5 2 0 1.1-0.8 2.3-1.8 2.6-0.9 0.4-2.6 0.1-3.7-0.5-1.6-1-2.4-1-4-0.1-1.1 0.7-2.8 1-3.8 0.6-1.2-0.4-1.7-1.7-1.7-4.1 0-2.2 0.8-4.3 2-5.5 1.7-1.7 3.3-2 10-2 8 0 8 0 8.4-2.7 0.3-1.6 0.8-5.3 1.1-8.3 0.3-3 1.2-8.6 2-12.5 0.7-3.8 1.8-9.7 2.4-13 0.6-3.3 1.1-12.9 1.1-21.2v-15.3c-18.2 0-23.2-0.4-23.5-1-0.3-0.5-1.1-1-1.8-0.9-0.6 0-2 0.8-2.9 1.7z"/><text style="transform:matrix(.36,0,0,.36,1352.764,1105.508)" ><tspan x="0" y="0" class="b" dx="0 -45" >™
</tspan></text></svg>