<svg version="1.2" xmlns="http://www.w3.org/2000/svg" viewBox="0 0 1711 200" width="1711" height="200"><style>.a{fill:#fff}</style><path fill-rule="evenodd" class="a" d="m1204.4 118.1c0-7.7-3.1-12.4-24.9-17.1-24.9-6.2-40.4-13.2-40.4-35.8 0-21 17.1-35.8 41.2-35.8 16.3 0 31.1 5.5 43.6 15.6 0.8 0.8 0.8 0.8 0 1.6l-10.9 15.5c0 0 0 0.8-0.8 0.8-0.8 0-1.5-0.8-1.5-0.8-10.9-7.8-20.3-11.7-30.4-11.7-10.1 0-17.9 4.7-17.9 12.5 0 7.8 3.9 11.7 26.5 17.1 27.2 7 38.9 17.1 38.9 35.8 0 21.8-16.4 36.6-42.8 36.6-18.7 0-35.8-6.2-49.8-18.7q-1.2-1.2 0-2.3l12.4-14.8c0 0 0-0.8 0.8-0.8 10.9 10.9 23.3 15.6 36.6 15.6 11.6 0 19.4-4.7 19.4-13.3zm82.5-59.9c21 0 42 15.6 42 46.7 0 31.1-21 47.5-42 47.5-11.7 0-20.2-3.9-28-12.5v35.8c0 0.8-0.8 1.6-1.6 1.6h-20.2c-0.8 0-1.5-0.8-1.5-1.6v-114.4c0-0.7 0.7-1.5 1.5-1.5h20.2c0.8 0 1.6 0.8 1.6 1.5v10.2c7.8-9.4 16.3-13.3 28-13.3zm18.7 46.7c0-15.5-9.3-26.4-23.4-26.4-14 0-24.1 10.9-24.1 26.4 0 15.6 10.1 27.2 24.1 27.2 14.1 0 23.4-11.6 23.4-27.2zm78.6-46.7c27.2 0 47.4 20.3 47.4 46.7 0 26.5-21 47.5-48.2 47.5-27.2 0-48.2-20.3-48.2-46.7 0-26.5 21.7-47.5 49-47.5zm0 73.9c14.8 0 24.9-10.8 24.9-26.4 0-15.6-10.9-27.2-25.7-27.2-14.8 0-24.9 10.9-24.9 26.4 0 15.6 10.9 27.2 25.7 27.2zm106.6-72.3c0.8 0 1.5 0.8 1.5 1.5v17.2c0 0.7-0.7 1.5-1.5 1.5h-23.4v42q0 9.4 9.4 9.4c3.9 0 8.5-0.8 12.4-3.1h1.6c0.8 0 0.8 0.7 0.8 1.5v16.4c0 0.7 0 1.5-0.8 1.5-5.5 3.1-12.5 4.7-19.5 4.7-17.9 0-26.4-9.4-26.4-27.3v-45.1h-10.1c-0.8 0-1.6-0.8-1.6-1.5v-17.2c0-0.7 0.8-1.5 1.6-1.5h10.1v-22.6c0-0.8 0.8-1.5 1.5-1.5h20.3c0.7 0 0.7 0.7 0.7 1.5v22.6zm77.1 0h34.2c0.8 0 1.6 0.8 1.6 1.5l23.3 60.7 21.8-60.7c0-0.7 0-1.5 0.8-1.5h21c0.8 0 1.6 0 1.6 0.8v1.5l-35.1 90.3c-7 18.7-15.5 25.7-30.3 25.7-7.8 0-14-1.6-21-5.5-0.8 0-0.8-1.5-0.8-2.3l7-14.8 0.8-0.8h0.8c3.8 2.3 7.7 3.1 11.6 3.1 4.7 0 7.8-1.5 10.9-8.5l-28.8-69.3h-19.4v69.3c0 0.7 0 1.5-0.8 1.5h-20.2c-0.8 0-1.6-0.8-1.6-1.5v-69.3h-10.1c-0.8 0-1.6-0.8-1.6-1.5v-17.2c0-0.7 0.8-1.5 1.6-1.5h10.1v-3.9c0-19.5 9.4-30.4 28-30.4 7.8 0 13.3 0.8 17.1 2.4 0.8 0 0.8 0.8 0.8 1.5v16.4c0 0.8-0.8 1.5-0.8 1.5h-0.7c-3.9-1.5-7.8-1.5-11.7-1.5-7 0-10.1 3.1-10.1 11.6zm-44.4 0c0.8 0 0.8 0.8 0.8 1.6v87.9c0 0.8 0 1.6-0.8 1.6h-20.2c-0.8 0-1.6-0.8-1.6-1.6v-87.9c0-0.8 0.8-1.6 1.6-1.6zm-10.1-39.6c7.8 0 14 6.2 14 14 0 7.7-6.2 14.8-14 14.8-7.8 0-14.8-7.1-14.8-14.8 0-7.8 7-14 14.8-14zm161.8 53.7c0-7.8 6.3-14.1 14-14.1 7.8 0 14.8 6.3 14.8 14.1 0 7.7-7 14-14.8 14-7.7 0-14-6.3-14-14zm1.6 0c0 7 5.4 12.4 12.4 12.4 7 0 13.3-5.4 13.3-12.4 0-7-6.3-12.5-13.3-12.5-7 0-12.4 5.5-12.4 12.5zm20.2 7h-3.9l-3.1-4.7h-3.1v4.7h-3.1v-14.8h6.2c3.1 0 6.2 1.5 6.2 4.6 0 2.4-1.5 3.9-3.8 4.7zm-10.2-12.4v4.6h3.1c1.6 0 3.2-0.7 3.2-2.3 0-1.6-1.6-2.3-3.2-2.3z"/><path fill-rule="evenodd" class="a" d="m95.2 67.3c-1.2-6.6-6.5-16.8-21.6-16.8-11.3 0-18.7 7.2-18.7 15.1 0 6.5 4.2 11.7 13 13.4l16.6 3.2c21.6 4.2 33.2 18.3 33.2 35.1 0 18.3-15.3 36.7-43 36.7-31.5 0-45.5-20.3-47.3-37.2l21.5-5.7c1 11.7 9.2 22.3 26 22.3 12.4 0 19.3-6.2 19.3-14.6 0-6.9-5.2-12.3-14.4-14.1l-16.6-3.4c-19-3.8-31.3-16.1-31.3-34 0-21.2 19-37.3 41.5-37.3 28.9 0 40 17.5 42.6 30.9zm53.3 1.7v82.5h-22.4v-82.5zm-11.2-13.5c-7.6 0-13.8-6.1-13.8-13.7 0-7.6 6.2-13.8 13.8-13.8 7.6 0 13.8 6.2 13.8 13.8 0 7.6-6.2 13.7-13.8 13.7zm40.1 95.2c1.5 9.1 8.8 15.6 19.3 15.6 14.1 0 22-7 22-23v-6c-3.3 5.3-11.1 10.5-23 10.5-22 0-38.4-16.9-38.4-40.1 0-21.8 15.8-40.2 38.4-40.2 13.1 0 20.7 5.7 23.5 11.2v-9.7h21.5v73.6c0 22.7-12.2 43.3-43.3 43.3-22.7 0-37.8-14.1-40.1-29.8zm41.6-43c0-12.7-8.7-20.8-19.5-20.8-11 0-19.8 8.1-19.8 20.8 0 12.9 8.2 21 19.8 21 11.5 0 19.5-8.2 19.5-21zm57.4 43.8h-22.3v-82.6h21.7v10.3c5-8.6 14.9-12.4 23.8-12.4 20.5 0 29.9 14.6 29.9 32.7v52h-22.3v-48.2c0-9.2-4.6-16.4-15.3-16.4-9.8 0-15.5 7.5-15.5 17.1zm121.1-82.6v82.6h-22.3v-82.6zm-11.3-13.4c-7.6 0-13.8-6.1-13.8-13.7 0-7.6 6.2-13.8 13.8-13.8 7.6 0 13.8 6.2 13.8 13.8 0 7.6-6.2 13.7-13.8 13.7zm48.2 96h-22.3v-82.6h21.6v10.3c5.1-8.6 15-12.4 23.9-12.4 20.5 0 29.9 14.6 29.9 32.7v52h-22.4v-48.1c0-9.3-4.5-16.5-15.2-16.5-9.8 0-15.5 7.6-15.5 17.1zm233.6-119h23.6l-32.9 119h-23.8l-27.2-84.7-27.2 84.7h-24.2l-33.1-119h24.5l21.9 81.9 26.3-81.9h24l26.6 82.3zm50.7 36.4v82.6h-22.4v-82.6zm-11.2-13.4c-7.6 0-13.8-6.2-13.8-13.8 0-7.6 6.2-13.8 13.8-13.8 7.6 0 13.8 6.2 13.8 13.8 0 7.6-6.2 13.8-13.8 13.8zm53.4 13.4h16.6v19.8h-16.6v34.6c0 7.2 3.4 9.5 9.7 9.5 2.7 0 5.7-0.3 6.9-0.6v18.4c-2 0.9-6 2-12.6 2-16.1 0-26.2-9.5-26.2-25.5v-38.4h-14.9v-19.8h4.2c8.7 0 12.7-5.7 12.7-13.1v-11.6h20.2zm44.7 82.6h-22.4v-121.5h22.4v45.8c5.3-6.4 14.4-9.1 22.3-9.1 21 0 30.7 14.6 30.7 32.8v52h-22.3v-48.2c0-9.2-4.5-16.4-15.3-16.4-9.4 0-14.9 7-15.4 16.1z"/><path fill-rule="evenodd" class="a" d="m999.5 20.4c43.4 0 79.2 35.4 79.2 78.8 0 43.3-35.8 79.2-79.2 79.2-43.4 0-79.2-35.9-79.2-79.2 0-43.4 35.8-78.8 79.2-78.8zm34.5 107.1c-20.8-12.8-46.2-16.1-76.5-9-5.6 0.9-4.7 10.4 2 9.4 27.2-6.1 50.9-3.3 69.3 8 5.2 2.9 10.3-5.1 5.2-8.4zm9.4-23.2c-24.6-15.1-59.9-19.3-88.7-10.8-7.6 1.9-4.7 14.1 3.3 11.7 25-7.5 57.5-3.7 78.7 9.5 6.7 4.2 13.3-6.2 6.7-10.4zm2.8-14.1c8.5 4.7 16-8.5 8-12.7-29.2-17.5-76.4-19-104.2-10.4-8.9 3.3-3.8 17 4.2 14.1 24.1-7.5 66.6-6.1 92 9z"/></svg>